<?xml version="1.0" encoding="utf-8" standalone="no"?>
<!DOCTYPE svg PUBLIC "-//W3C//DTD SVG 1.1//EN"
  "http://www.w3.org/Graphics/SVG/1.1/DTD/svg11.dtd">
<svg xmlns:xlink="http://www.w3.org/1999/xlink" width="864pt" height="720pt" viewBox="0 0 864 720" xmlns="http://www.w3.org/2000/svg" version="1.1">
 <metadata>
  <rdf:RDF xmlns:dc="http://purl.org/dc/elements/1.1/" xmlns:cc="http://creativecommons.org/ns#" xmlns:rdf="http://www.w3.org/1999/02/22-rdf-syntax-ns#">
   <cc:Work>
    <dc:type rdf:resource="http://purl.org/dc/dcmitype/StillImage"/>
    <dc:date>2024-01-29T23:28:30.324111</dc:date>
    <dc:format>image/svg+xml</dc:format>
    <dc:creator>
     <cc:Agent>
      <dc:title>Matplotlib v3.8.0, https://matplotlib.org/</dc:title>
     </cc:Agent>
    </dc:creator>
   </cc:Work>
  </rdf:RDF>
 </metadata>
 <defs>
  <style type="text/css">*{stroke-linejoin: round; stroke-linecap: butt}</style>
 </defs>
 <g id="figure_1">
  <g id="patch_1">
   <path d="M 0 720 
L 864 720 
L 864 0 
L 0 0 
z
" style="fill: #ffffff"/>
  </g>
  <g id="axes_1">
   <g id="patch_2">
    <path d="M 65.72 516.31 
L 848.88 516.31 
L 848.88 15.573659 
L 65.72 15.573659 
z
" style="fill: #ffffff"/>
   </g>
   <g id="patch_3">
    <path d="M 73.5516 486.104162 
L 136.2044 486.104162 
L 136.2044 464.13882 
L 73.5516 464.13882 
L 73.5516 486.104162 
z
" clip-path="url(#p40e9029b3d)" style="fill: #3274a1; stroke: #3d3d3d; stroke-width: 1.5; stroke-linejoin: miter"/>
   </g>
   <g id="patch_4">
    <path d="M 151.8676 60.55819 
L 214.5204 60.55819 
L 214.5204 55.032165 
L 151.8676 55.032165 
L 151.8676 60.55819 
z
" clip-path="url(#p40e9029b3d)" style="fill: #e1812c; stroke: #3d3d3d; stroke-width: 1.5; stroke-linejoin: miter"/>
   </g>
   <g id="patch_5">
    <path d="M 230.1836 47.224789 
L 292.8364 47.224789 
L 292.8364 42.892062 
L 230.1836 42.892062 
L 230.1836 47.224789 
z
" clip-path="url(#p40e9029b3d)" style="fill: #3a923a; stroke: #3d3d3d; stroke-width: 1.5; stroke-linejoin: miter"/>
   </g>
   <g id="patch_6">
    <path d="M 308.4996 96.314807 
L 371.1524 96.314807 
L 371.1524 90.132886 
L 308.4996 90.132886 
L 308.4996 96.314807 
z
" clip-path="url(#p40e9029b3d)" style="fill: #c03d3e; stroke: #3d3d3d; stroke-width: 1.5; stroke-linejoin: miter"/>
   </g>
   <g id="patch_7">
    <path d="M 386.8156 205.703219 
L 449.4684 205.703219 
L 449.4684 187.287506 
L 386.8156 187.287506 
L 386.8156 205.703219 
z
" clip-path="url(#p40e9029b3d)" style="fill: #9372b2; stroke: #3d3d3d; stroke-width: 1.5; stroke-linejoin: miter"/>
   </g>
   <g id="patch_8">
    <path d="M 465.1316 215.46656 
L 527.7844 215.46656 
L 527.7844 202.104337 
L 465.1316 202.104337 
L 465.1316 215.46656 
z
" clip-path="url(#p40e9029b3d)" style="fill: #845b53; stroke: #3d3d3d; stroke-width: 1.5; stroke-linejoin: miter"/>
   </g>
   <g id="patch_9">
    <path d="M 543.4476 102.465753 
L 606.1004 102.465753 
L 606.1004 85.637302 
L 543.4476 85.637302 
L 543.4476 102.465753 
z
" clip-path="url(#p40e9029b3d)" style="fill: #d684bd; stroke: #3d3d3d; stroke-width: 1.5; stroke-linejoin: miter"/>
   </g>
   <g id="patch_10">
    <path d="M 621.7636 101.014882 
L 684.4164 101.014882 
L 684.4164 91.464197 
L 621.7636 91.464197 
L 621.7636 101.014882 
z
" clip-path="url(#p40e9029b3d)" style="fill: #7f7f7f; stroke: #3d3d3d; stroke-width: 1.5; stroke-linejoin: miter"/>
   </g>
   <g id="patch_11">
    <path d="M 700.0796 115.378533 
L 762.7324 115.378533 
L 762.7324 104.462415 
L 700.0796 104.462415 
L 700.0796 115.378533 
z
" clip-path="url(#p40e9029b3d)" style="fill: #a9aa35; stroke: #3d3d3d; stroke-width: 1.5; stroke-linejoin: miter"/>
   </g>
   <g id="patch_12">
    <path d="M 778.3956 265.618367 
L 841.0484 265.618367 
L 841.0484 239.504496 
L 778.3956 239.504496 
L 778.3956 265.618367 
z
" clip-path="url(#p40e9029b3d)" style="fill: #2eabb8; stroke: #3d3d3d; stroke-width: 1.5; stroke-linejoin: miter"/>
   </g>
   <g id="matplotlib.axis_1">
    <g id="xtick_1">
     <g id="line2d_1">
      <defs>
       <path id="mba7b3c9513" d="M 0 0 
L 0 3.5 
" style="stroke: #000000; stroke-width: 0.8"/>
      </defs>
      <g>
       <use xlink:href="#mba7b3c9513" x="104.878" y="516.31" style="stroke: #000000; stroke-width: 0.8"/>
      </g>
     </g>
     <g id="text_1">
      <!-- BIKES -->
      <g transform="translate(108.741125 563.960312) rotate(-90) scale(0.14 -0.14)">
       <defs>
        <path id="DejaVuSans-42" d="M 1259 2228 
L 1259 519 
L 2272 519 
Q 2781 519 3026 730 
Q 3272 941 3272 1375 
Q 3272 1813 3026 2020 
Q 2781 2228 2272 2228 
L 1259 2228 
z
M 1259 4147 
L 1259 2741 
L 2194 2741 
Q 2656 2741 2882 2914 
Q 3109 3088 3109 3444 
Q 3109 3797 2882 3972 
Q 2656 4147 2194 4147 
L 1259 4147 
z
M 628 4666 
L 2241 4666 
Q 2963 4666 3353 4366 
Q 3744 4066 3744 3513 
Q 3744 3084 3544 2831 
Q 3344 2578 2956 2516 
Q 3422 2416 3680 2098 
Q 3938 1781 3938 1306 
Q 3938 681 3513 340 
Q 3088 0 2303 0 
L 628 0 
L 628 4666 
z
" transform="scale(0.015625)"/>
        <path id="DejaVuSans-49" d="M 628 4666 
L 1259 4666 
L 1259 0 
L 628 0 
L 628 4666 
z
" transform="scale(0.015625)"/>
        <path id="DejaVuSans-4b" d="M 628 4666 
L 1259 4666 
L 1259 2694 
L 3353 4666 
L 4166 4666 
L 1850 2491 
L 4331 0 
L 3500 0 
L 1259 2247 
L 1259 0 
L 628 0 
L 628 4666 
z
" transform="scale(0.015625)"/>
        <path id="DejaVuSans-45" d="M 628 4666 
L 3578 4666 
L 3578 4134 
L 1259 4134 
L 1259 2753 
L 3481 2753 
L 3481 2222 
L 1259 2222 
L 1259 531 
L 3634 531 
L 3634 0 
L 628 0 
L 628 4666 
z
" transform="scale(0.015625)"/>
        <path id="DejaVuSans-53" d="M 3425 4513 
L 3425 3897 
Q 3066 4069 2747 4153 
Q 2428 4238 2131 4238 
Q 1616 4238 1336 4038 
Q 1056 3838 1056 3469 
Q 1056 3159 1242 3001 
Q 1428 2844 1947 2747 
L 2328 2669 
Q 3034 2534 3370 2195 
Q 3706 1856 3706 1288 
Q 3706 609 3251 259 
Q 2797 -91 1919 -91 
Q 1588 -91 1214 -16 
Q 841 59 441 206 
L 441 856 
Q 825 641 1194 531 
Q 1563 422 1919 422 
Q 2459 422 2753 634 
Q 3047 847 3047 1241 
Q 3047 1584 2836 1778 
Q 2625 1972 2144 2069 
L 1759 2144 
Q 1053 2284 737 2584 
Q 422 2884 422 3419 
Q 422 4038 858 4394 
Q 1294 4750 2059 4750 
Q 2388 4750 2728 4690 
Q 3069 4631 3425 4513 
z
" transform="scale(0.015625)"/>
       </defs>
       <use xlink:href="#DejaVuSans-42"/>
       <use xlink:href="#DejaVuSans-49" x="68.603516"/>
       <use xlink:href="#DejaVuSans-4b" x="98.095703"/>
       <use xlink:href="#DejaVuSans-45" x="163.671875"/>
       <use xlink:href="#DejaVuSans-53" x="226.855469"/>
      </g>
     </g>
    </g>
    <g id="xtick_2">
     <g id="line2d_2">
      <g>
       <use xlink:href="#mba7b3c9513" x="183.194" y="516.31" style="stroke: #000000; stroke-width: 0.8"/>
      </g>
     </g>
     <g id="text_2">
      <!-- SPORTS -->
      <g transform="translate(187.057125 577.811562) rotate(-90) scale(0.14 -0.14)">
       <defs>
        <path id="DejaVuSans-50" d="M 1259 4147 
L 1259 2394 
L 2053 2394 
Q 2494 2394 2734 2622 
Q 2975 2850 2975 3272 
Q 2975 3691 2734 3919 
Q 2494 4147 2053 4147 
L 1259 4147 
z
M 628 4666 
L 2053 4666 
Q 2838 4666 3239 4311 
Q 3641 3956 3641 3272 
Q 3641 2581 3239 2228 
Q 2838 1875 2053 1875 
L 1259 1875 
L 1259 0 
L 628 0 
L 628 4666 
z
" transform="scale(0.015625)"/>
        <path id="DejaVuSans-4f" d="M 2522 4238 
Q 1834 4238 1429 3725 
Q 1025 3213 1025 2328 
Q 1025 1447 1429 934 
Q 1834 422 2522 422 
Q 3209 422 3611 934 
Q 4013 1447 4013 2328 
Q 4013 3213 3611 3725 
Q 3209 4238 2522 4238 
z
M 2522 4750 
Q 3503 4750 4090 4092 
Q 4678 3434 4678 2328 
Q 4678 1225 4090 567 
Q 3503 -91 2522 -91 
Q 1538 -91 948 565 
Q 359 1222 359 2328 
Q 359 3434 948 4092 
Q 1538 4750 2522 4750 
z
" transform="scale(0.015625)"/>
        <path id="DejaVuSans-52" d="M 2841 2188 
Q 3044 2119 3236 1894 
Q 3428 1669 3622 1275 
L 4263 0 
L 3584 0 
L 2988 1197 
Q 2756 1666 2539 1819 
Q 2322 1972 1947 1972 
L 1259 1972 
L 1259 0 
L 628 0 
L 628 4666 
L 2053 4666 
Q 2853 4666 3247 4331 
Q 3641 3997 3641 3322 
Q 3641 2881 3436 2590 
Q 3231 2300 2841 2188 
z
M 1259 4147 
L 1259 2491 
L 2053 2491 
Q 2509 2491 2742 2702 
Q 2975 2913 2975 3322 
Q 2975 3731 2742 3939 
Q 2509 4147 2053 4147 
L 1259 4147 
z
" transform="scale(0.015625)"/>
        <path id="DejaVuSans-54" d="M -19 4666 
L 3928 4666 
L 3928 4134 
L 2272 4134 
L 2272 0 
L 1638 0 
L 1638 4134 
L -19 4134 
L -19 4666 
z
" transform="scale(0.015625)"/>
       </defs>
       <use xlink:href="#DejaVuSans-53"/>
       <use xlink:href="#DejaVuSans-50" x="63.476562"/>
       <use xlink:href="#DejaVuSans-4f" x="123.779297"/>
       <use xlink:href="#DejaVuSans-52" x="202.490234"/>
       <use xlink:href="#DejaVuSans-54" x="264.722656"/>
       <use xlink:href="#DejaVuSans-53" x="325.806641"/>
      </g>
     </g>
    </g>
    <g id="xtick_3">
     <g id="line2d_3">
      <g>
       <use xlink:href="#mba7b3c9513" x="261.51" y="516.31" style="stroke: #000000; stroke-width: 0.8"/>
      </g>
     </g>
     <g id="text_3">
      <!-- ANIME -->
      <g transform="translate(265.373125 568.41625) rotate(-90) scale(0.14 -0.14)">
       <defs>
        <path id="DejaVuSans-41" d="M 2188 4044 
L 1331 1722 
L 3047 1722 
L 2188 4044 
z
M 1831 4666 
L 2547 4666 
L 4325 0 
L 3669 0 
L 3244 1197 
L 1141 1197 
L 716 0 
L 50 0 
L 1831 4666 
z
" transform="scale(0.015625)"/>
        <path id="DejaVuSans-4e" d="M 628 4666 
L 1478 4666 
L 3547 763 
L 3547 4666 
L 4159 4666 
L 4159 0 
L 3309 0 
L 1241 3903 
L 1241 0 
L 628 0 
L 628 4666 
z
" transform="scale(0.015625)"/>
        <path id="DejaVuSans-4d" d="M 628 4666 
L 1569 4666 
L 2759 1491 
L 3956 4666 
L 4897 4666 
L 4897 0 
L 4281 0 
L 4281 4097 
L 3078 897 
L 2444 897 
L 1241 4097 
L 1241 0 
L 628 0 
L 628 4666 
z
" transform="scale(0.015625)"/>
       </defs>
       <use xlink:href="#DejaVuSans-41"/>
       <use xlink:href="#DejaVuSans-4e" x="68.408203"/>
       <use xlink:href="#DejaVuSans-49" x="143.212891"/>
       <use xlink:href="#DejaVuSans-4d" x="172.705078"/>
       <use xlink:href="#DejaVuSans-45" x="258.984375"/>
      </g>
     </g>
    </g>
    <g id="xtick_4">
     <g id="line2d_4">
      <g>
       <use xlink:href="#mba7b3c9513" x="339.826" y="516.31" style="stroke: #000000; stroke-width: 0.8"/>
      </g>
     </g>
     <g id="text_4">
      <!-- AUTO-MOTO -->
      <g transform="translate(343.689125 610.812187) rotate(-90) scale(0.14 -0.14)">
       <defs>
        <path id="DejaVuSans-55" d="M 556 4666 
L 1191 4666 
L 1191 1831 
Q 1191 1081 1462 751 
Q 1734 422 2344 422 
Q 2950 422 3222 751 
Q 3494 1081 3494 1831 
L 3494 4666 
L 4128 4666 
L 4128 1753 
Q 4128 841 3676 375 
Q 3225 -91 2344 -91 
Q 1459 -91 1007 375 
Q 556 841 556 1753 
L 556 4666 
z
" transform="scale(0.015625)"/>
        <path id="DejaVuSans-2d" d="M 313 2009 
L 1997 2009 
L 1997 1497 
L 313 1497 
L 313 2009 
z
" transform="scale(0.015625)"/>
       </defs>
       <use xlink:href="#DejaVuSans-41"/>
       <use xlink:href="#DejaVuSans-55" x="68.408203"/>
       <use xlink:href="#DejaVuSans-54" x="141.601562"/>
       <use xlink:href="#DejaVuSans-4f" x="202.685547"/>
       <use xlink:href="#DejaVuSans-2d" x="284.146484"/>
       <use xlink:href="#DejaVuSans-4d" x="320.230469"/>
       <use xlink:href="#DejaVuSans-4f" x="406.509766"/>
       <use xlink:href="#DejaVuSans-54" x="485.220703"/>
       <use xlink:href="#DejaVuSans-4f" x="546.304688"/>
      </g>
     </g>
    </g>
    <g id="xtick_5">
     <g id="line2d_5">
      <g>
       <use xlink:href="#mba7b3c9513" x="418.142" y="516.31" style="stroke: #000000; stroke-width: 0.8"/>
      </g>
     </g>
     <g id="text_5">
      <!-- NATURE -->
      <g transform="translate(422.005125 579.646875) rotate(-90) scale(0.14 -0.14)">
       <use xlink:href="#DejaVuSans-4e"/>
       <use xlink:href="#DejaVuSans-41" x="74.804688"/>
       <use xlink:href="#DejaVuSans-54" x="135.462891"/>
       <use xlink:href="#DejaVuSans-55" x="196.546875"/>
       <use xlink:href="#DejaVuSans-52" x="269.740234"/>
       <use xlink:href="#DejaVuSans-45" x="339.222656"/>
      </g>
     </g>
    </g>
    <g id="xtick_6">
     <g id="line2d_6">
      <g>
       <use xlink:href="#mba7b3c9513" x="496.458" y="516.31" style="stroke: #000000; stroke-width: 0.8"/>
      </g>
     </g>
     <g id="text_6">
      <!-- METAL-DETECTING -->
      <g transform="translate(500.321125 654.686875) rotate(-90) scale(0.14 -0.14)">
       <defs>
        <path id="DejaVuSans-4c" d="M 628 4666 
L 1259 4666 
L 1259 531 
L 3531 531 
L 3531 0 
L 628 0 
L 628 4666 
z
" transform="scale(0.015625)"/>
        <path id="DejaVuSans-44" d="M 1259 4147 
L 1259 519 
L 2022 519 
Q 2988 519 3436 956 
Q 3884 1394 3884 2338 
Q 3884 3275 3436 3711 
Q 2988 4147 2022 4147 
L 1259 4147 
z
M 628 4666 
L 1925 4666 
Q 3281 4666 3915 4102 
Q 4550 3538 4550 2338 
Q 4550 1131 3912 565 
Q 3275 0 1925 0 
L 628 0 
L 628 4666 
z
" transform="scale(0.015625)"/>
        <path id="DejaVuSans-43" d="M 4122 4306 
L 4122 3641 
Q 3803 3938 3442 4084 
Q 3081 4231 2675 4231 
Q 1875 4231 1450 3742 
Q 1025 3253 1025 2328 
Q 1025 1406 1450 917 
Q 1875 428 2675 428 
Q 3081 428 3442 575 
Q 3803 722 4122 1019 
L 4122 359 
Q 3791 134 3420 21 
Q 3050 -91 2638 -91 
Q 1578 -91 968 557 
Q 359 1206 359 2328 
Q 359 3453 968 4101 
Q 1578 4750 2638 4750 
Q 3056 4750 3426 4639 
Q 3797 4528 4122 4306 
z
" transform="scale(0.015625)"/>
        <path id="DejaVuSans-47" d="M 3809 666 
L 3809 1919 
L 2778 1919 
L 2778 2438 
L 4434 2438 
L 4434 434 
Q 4069 175 3628 42 
Q 3188 -91 2688 -91 
Q 1594 -91 976 548 
Q 359 1188 359 2328 
Q 359 3472 976 4111 
Q 1594 4750 2688 4750 
Q 3144 4750 3555 4637 
Q 3966 4525 4313 4306 
L 4313 3634 
Q 3963 3931 3569 4081 
Q 3175 4231 2741 4231 
Q 1884 4231 1454 3753 
Q 1025 3275 1025 2328 
Q 1025 1384 1454 906 
Q 1884 428 2741 428 
Q 3075 428 3337 486 
Q 3600 544 3809 666 
z
" transform="scale(0.015625)"/>
       </defs>
       <use xlink:href="#DejaVuSans-4d"/>
       <use xlink:href="#DejaVuSans-45" x="86.279297"/>
       <use xlink:href="#DejaVuSans-54" x="149.462891"/>
       <use xlink:href="#DejaVuSans-41" x="202.796875"/>
       <use xlink:href="#DejaVuSans-4c" x="271.205078"/>
       <use xlink:href="#DejaVuSans-2d" x="325.167969"/>
       <use xlink:href="#DejaVuSans-44" x="361.251953"/>
       <use xlink:href="#DejaVuSans-45" x="438.253906"/>
       <use xlink:href="#DejaVuSans-54" x="501.4375"/>
       <use xlink:href="#DejaVuSans-45" x="562.521484"/>
       <use xlink:href="#DejaVuSans-43" x="625.705078"/>
       <use xlink:href="#DejaVuSans-54" x="695.529297"/>
       <use xlink:href="#DejaVuSans-49" x="756.613281"/>
       <use xlink:href="#DejaVuSans-4e" x="786.105469"/>
       <use xlink:href="#DejaVuSans-47" x="860.910156"/>
      </g>
     </g>
    </g>
    <g id="xtick_7">
     <g id="line2d_7">
      <g>
       <use xlink:href="#mba7b3c9513" x="574.774" y="516.31" style="stroke: #000000; stroke-width: 0.8"/>
      </g>
     </g>
     <g id="text_7">
      <!-- MEDICINE-AESTHETICS -->
      <g transform="translate(578.637125 683.68875) rotate(-90) scale(0.14 -0.14)">
       <defs>
        <path id="DejaVuSans-48" d="M 628 4666 
L 1259 4666 
L 1259 2753 
L 3553 2753 
L 3553 4666 
L 4184 4666 
L 4184 0 
L 3553 0 
L 3553 2222 
L 1259 2222 
L 1259 0 
L 628 0 
L 628 4666 
z
" transform="scale(0.015625)"/>
       </defs>
       <use xlink:href="#DejaVuSans-4d"/>
       <use xlink:href="#DejaVuSans-45" x="86.279297"/>
       <use xlink:href="#DejaVuSans-44" x="149.462891"/>
       <use xlink:href="#DejaVuSans-49" x="226.464844"/>
       <use xlink:href="#DejaVuSans-43" x="255.957031"/>
       <use xlink:href="#DejaVuSans-49" x="325.78125"/>
       <use xlink:href="#DejaVuSans-4e" x="355.273438"/>
       <use xlink:href="#DejaVuSans-45" x="430.078125"/>
       <use xlink:href="#DejaVuSans-2d" x="493.261719"/>
       <use xlink:href="#DejaVuSans-41" x="527.095703"/>
       <use xlink:href="#DejaVuSans-45" x="595.503906"/>
       <use xlink:href="#DejaVuSans-53" x="658.6875"/>
       <use xlink:href="#DejaVuSans-54" x="722.164062"/>
       <use xlink:href="#DejaVuSans-48" x="783.248047"/>
       <use xlink:href="#DejaVuSans-45" x="858.443359"/>
       <use xlink:href="#DejaVuSans-54" x="921.626953"/>
       <use xlink:href="#DejaVuSans-49" x="982.710938"/>
       <use xlink:href="#DejaVuSans-43" x="1012.203125"/>
       <use xlink:href="#DejaVuSans-53" x="1082.027344"/>
      </g>
     </g>
    </g>
    <g id="xtick_8">
     <g id="line2d_8">
      <g>
       <use xlink:href="#mba7b3c9513" x="653.09" y="516.31" style="stroke: #000000; stroke-width: 0.8"/>
      </g>
     </g>
     <g id="text_8">
      <!-- CELEBRITIES -->
      <g transform="translate(656.953125 612.457187) rotate(-90) scale(0.14 -0.14)">
       <use xlink:href="#DejaVuSans-43"/>
       <use xlink:href="#DejaVuSans-45" x="69.824219"/>
       <use xlink:href="#DejaVuSans-4c" x="133.007812"/>
       <use xlink:href="#DejaVuSans-45" x="188.720703"/>
       <use xlink:href="#DejaVuSans-42" x="251.904297"/>
       <use xlink:href="#DejaVuSans-52" x="320.507812"/>
       <use xlink:href="#DejaVuSans-49" x="389.990234"/>
       <use xlink:href="#DejaVuSans-54" x="419.482422"/>
       <use xlink:href="#DejaVuSans-49" x="480.566406"/>
       <use xlink:href="#DejaVuSans-45" x="510.058594"/>
       <use xlink:href="#DejaVuSans-53" x="573.242188"/>
      </g>
     </g>
    </g>
    <g id="xtick_9">
     <g id="line2d_9">
      <g>
       <use xlink:href="#mba7b3c9513" x="731.406" y="516.31" style="stroke: #000000; stroke-width: 0.8"/>
      </g>
     </g>
     <g id="text_9">
      <!-- SMOKE -->
      <g transform="translate(735.269125 573.325) rotate(-90) scale(0.14 -0.14)">
       <use xlink:href="#DejaVuSans-53"/>
       <use xlink:href="#DejaVuSans-4d" x="63.476562"/>
       <use xlink:href="#DejaVuSans-4f" x="149.755859"/>
       <use xlink:href="#DejaVuSans-4b" x="228.466797"/>
       <use xlink:href="#DejaVuSans-45" x="294.042969"/>
      </g>
     </g>
    </g>
    <g id="xtick_10">
     <g id="line2d_10">
      <g>
       <use xlink:href="#mba7b3c9513" x="809.722" y="516.31" style="stroke: #000000; stroke-width: 0.8"/>
      </g>
     </g>
     <g id="text_10">
      <!-- ENTERTAINMENT -->
      <g transform="translate(813.585125 640.336875) rotate(-90) scale(0.14 -0.14)">
       <use xlink:href="#DejaVuSans-45"/>
       <use xlink:href="#DejaVuSans-4e" x="63.183594"/>
       <use xlink:href="#DejaVuSans-54" x="137.988281"/>
       <use xlink:href="#DejaVuSans-45" x="199.072266"/>
       <use xlink:href="#DejaVuSans-52" x="262.255859"/>
       <use xlink:href="#DejaVuSans-54" x="324.488281"/>
       <use xlink:href="#DejaVuSans-41" x="377.822266"/>
       <use xlink:href="#DejaVuSans-49" x="446.230469"/>
       <use xlink:href="#DejaVuSans-4e" x="475.722656"/>
       <use xlink:href="#DejaVuSans-4d" x="550.527344"/>
       <use xlink:href="#DejaVuSans-45" x="636.806641"/>
       <use xlink:href="#DejaVuSans-4e" x="699.990234"/>
       <use xlink:href="#DejaVuSans-54" x="774.794922"/>
      </g>
     </g>
    </g>
    <g id="text_11">
     <!-- Label -->
     <g transform="translate(433.018281 701.365937) scale(0.18 -0.18)">
      <defs>
       <path id="DejaVuSans-61" d="M 2194 1759 
Q 1497 1759 1228 1600 
Q 959 1441 959 1056 
Q 959 750 1161 570 
Q 1363 391 1709 391 
Q 2188 391 2477 730 
Q 2766 1069 2766 1631 
L 2766 1759 
L 2194 1759 
z
M 3341 1997 
L 3341 0 
L 2766 0 
L 2766 531 
Q 2569 213 2275 61 
Q 1981 -91 1556 -91 
Q 1019 -91 701 211 
Q 384 513 384 1019 
Q 384 1609 779 1909 
Q 1175 2209 1959 2209 
L 2766 2209 
L 2766 2266 
Q 2766 2663 2505 2880 
Q 2244 3097 1772 3097 
Q 1472 3097 1187 3025 
Q 903 2953 641 2809 
L 641 3341 
Q 956 3463 1253 3523 
Q 1550 3584 1831 3584 
Q 2591 3584 2966 3190 
Q 3341 2797 3341 1997 
z
" transform="scale(0.015625)"/>
       <path id="DejaVuSans-62" d="M 3116 1747 
Q 3116 2381 2855 2742 
Q 2594 3103 2138 3103 
Q 1681 3103 1420 2742 
Q 1159 2381 1159 1747 
Q 1159 1113 1420 752 
Q 1681 391 2138 391 
Q 2594 391 2855 752 
Q 3116 1113 3116 1747 
z
M 1159 2969 
Q 1341 3281 1617 3432 
Q 1894 3584 2278 3584 
Q 2916 3584 3314 3078 
Q 3713 2572 3713 1747 
Q 3713 922 3314 415 
Q 2916 -91 2278 -91 
Q 1894 -91 1617 61 
Q 1341 213 1159 525 
L 1159 0 
L 581 0 
L 581 4863 
L 1159 4863 
L 1159 2969 
z
" transform="scale(0.015625)"/>
       <path id="DejaVuSans-65" d="M 3597 1894 
L 3597 1613 
L 953 1613 
Q 991 1019 1311 708 
Q 1631 397 2203 397 
Q 2534 397 2845 478 
Q 3156 559 3463 722 
L 3463 178 
Q 3153 47 2828 -22 
Q 2503 -91 2169 -91 
Q 1331 -91 842 396 
Q 353 884 353 1716 
Q 353 2575 817 3079 
Q 1281 3584 2069 3584 
Q 2775 3584 3186 3129 
Q 3597 2675 3597 1894 
z
M 3022 2063 
Q 3016 2534 2758 2815 
Q 2500 3097 2075 3097 
Q 1594 3097 1305 2825 
Q 1016 2553 972 2059 
L 3022 2063 
z
" transform="scale(0.015625)"/>
       <path id="DejaVuSans-6c" d="M 603 4863 
L 1178 4863 
L 1178 0 
L 603 0 
L 603 4863 
z
" transform="scale(0.015625)"/>
      </defs>
      <use xlink:href="#DejaVuSans-4c"/>
      <use xlink:href="#DejaVuSans-61" x="55.712891"/>
      <use xlink:href="#DejaVuSans-62" x="116.992188"/>
      <use xlink:href="#DejaVuSans-65" x="180.46875"/>
      <use xlink:href="#DejaVuSans-6c" x="241.992188"/>
     </g>
    </g>
   </g>
   <g id="matplotlib.axis_2">
    <g id="ytick_1">
     <g id="line2d_11">
      <defs>
       <path id="m8523760ab0" d="M 0 0 
L -3.5 0 
" style="stroke: #000000; stroke-width: 0.8"/>
      </defs>
      <g>
       <use xlink:href="#m8523760ab0" x="65.72" y="493.549257" style="stroke: #000000; stroke-width: 0.8"/>
      </g>
     </g>
     <g id="text_12">
      <!-- 0.0 -->
      <g transform="translate(36.455625 498.868163) scale(0.14 -0.14)">
       <defs>
        <path id="DejaVuSans-30" d="M 2034 4250 
Q 1547 4250 1301 3770 
Q 1056 3291 1056 2328 
Q 1056 1369 1301 889 
Q 1547 409 2034 409 
Q 2525 409 2770 889 
Q 3016 1369 3016 2328 
Q 3016 3291 2770 3770 
Q 2525 4250 2034 4250 
z
M 2034 4750 
Q 2819 4750 3233 4129 
Q 3647 3509 3647 2328 
Q 3647 1150 3233 529 
Q 2819 -91 2034 -91 
Q 1250 -91 836 529 
Q 422 1150 422 2328 
Q 422 3509 836 4129 
Q 1250 4750 2034 4750 
z
" transform="scale(0.015625)"/>
        <path id="DejaVuSans-2e" d="M 684 794 
L 1344 794 
L 1344 0 
L 684 0 
L 684 794 
z
" transform="scale(0.015625)"/>
       </defs>
       <use xlink:href="#DejaVuSans-30"/>
       <use xlink:href="#DejaVuSans-2e" x="63.623047"/>
       <use xlink:href="#DejaVuSans-30" x="95.410156"/>
      </g>
     </g>
    </g>
    <g id="ytick_2">
     <g id="line2d_12">
      <g>
       <use xlink:href="#m8523760ab0" x="65.72" y="434.360752" style="stroke: #000000; stroke-width: 0.8"/>
      </g>
     </g>
     <g id="text_13">
      <!-- 0.1 -->
      <g transform="translate(36.455625 439.679658) scale(0.14 -0.14)">
       <defs>
        <path id="DejaVuSans-31" d="M 794 531 
L 1825 531 
L 1825 4091 
L 703 3866 
L 703 4441 
L 1819 4666 
L 2450 4666 
L 2450 531 
L 3481 531 
L 3481 0 
L 794 0 
L 794 531 
z
" transform="scale(0.015625)"/>
       </defs>
       <use xlink:href="#DejaVuSans-30"/>
       <use xlink:href="#DejaVuSans-2e" x="63.623047"/>
       <use xlink:href="#DejaVuSans-31" x="95.410156"/>
      </g>
     </g>
    </g>
    <g id="ytick_3">
     <g id="line2d_13">
      <g>
       <use xlink:href="#m8523760ab0" x="65.72" y="375.172246" style="stroke: #000000; stroke-width: 0.8"/>
      </g>
     </g>
     <g id="text_14">
      <!-- 0.2 -->
      <g transform="translate(36.455625 380.491153) scale(0.14 -0.14)">
       <defs>
        <path id="DejaVuSans-32" d="M 1228 531 
L 3431 531 
L 3431 0 
L 469 0 
L 469 531 
Q 828 903 1448 1529 
Q 2069 2156 2228 2338 
Q 2531 2678 2651 2914 
Q 2772 3150 2772 3378 
Q 2772 3750 2511 3984 
Q 2250 4219 1831 4219 
Q 1534 4219 1204 4116 
Q 875 4013 500 3803 
L 500 4441 
Q 881 4594 1212 4672 
Q 1544 4750 1819 4750 
Q 2544 4750 2975 4387 
Q 3406 4025 3406 3419 
Q 3406 3131 3298 2873 
Q 3191 2616 2906 2266 
Q 2828 2175 2409 1742 
Q 1991 1309 1228 531 
z
" transform="scale(0.015625)"/>
       </defs>
       <use xlink:href="#DejaVuSans-30"/>
       <use xlink:href="#DejaVuSans-2e" x="63.623047"/>
       <use xlink:href="#DejaVuSans-32" x="95.410156"/>
      </g>
     </g>
    </g>
    <g id="ytick_4">
     <g id="line2d_14">
      <g>
       <use xlink:href="#m8523760ab0" x="65.72" y="315.983741" style="stroke: #000000; stroke-width: 0.8"/>
      </g>
     </g>
     <g id="text_15">
      <!-- 0.3 -->
      <g transform="translate(36.455625 321.302647) scale(0.14 -0.14)">
       <defs>
        <path id="DejaVuSans-33" d="M 2597 2516 
Q 3050 2419 3304 2112 
Q 3559 1806 3559 1356 
Q 3559 666 3084 287 
Q 2609 -91 1734 -91 
Q 1441 -91 1130 -33 
Q 819 25 488 141 
L 488 750 
Q 750 597 1062 519 
Q 1375 441 1716 441 
Q 2309 441 2620 675 
Q 2931 909 2931 1356 
Q 2931 1769 2642 2001 
Q 2353 2234 1838 2234 
L 1294 2234 
L 1294 2753 
L 1863 2753 
Q 2328 2753 2575 2939 
Q 2822 3125 2822 3475 
Q 2822 3834 2567 4026 
Q 2313 4219 1838 4219 
Q 1578 4219 1281 4162 
Q 984 4106 628 3988 
L 628 4550 
Q 988 4650 1302 4700 
Q 1616 4750 1894 4750 
Q 2613 4750 3031 4423 
Q 3450 4097 3450 3541 
Q 3450 3153 3228 2886 
Q 3006 2619 2597 2516 
z
" transform="scale(0.015625)"/>
       </defs>
       <use xlink:href="#DejaVuSans-30"/>
       <use xlink:href="#DejaVuSans-2e" x="63.623047"/>
       <use xlink:href="#DejaVuSans-33" x="95.410156"/>
      </g>
     </g>
    </g>
    <g id="ytick_5">
     <g id="line2d_15">
      <g>
       <use xlink:href="#m8523760ab0" x="65.72" y="256.795236" style="stroke: #000000; stroke-width: 0.8"/>
      </g>
     </g>
     <g id="text_16">
      <!-- 0.4 -->
      <g transform="translate(36.455625 262.114142) scale(0.14 -0.14)">
       <defs>
        <path id="DejaVuSans-34" d="M 2419 4116 
L 825 1625 
L 2419 1625 
L 2419 4116 
z
M 2253 4666 
L 3047 4666 
L 3047 1625 
L 3713 1625 
L 3713 1100 
L 3047 1100 
L 3047 0 
L 2419 0 
L 2419 1100 
L 313 1100 
L 313 1709 
L 2253 4666 
z
" transform="scale(0.015625)"/>
       </defs>
       <use xlink:href="#DejaVuSans-30"/>
       <use xlink:href="#DejaVuSans-2e" x="63.623047"/>
       <use xlink:href="#DejaVuSans-34" x="95.410156"/>
      </g>
     </g>
    </g>
    <g id="ytick_6">
     <g id="line2d_16">
      <g>
       <use xlink:href="#m8523760ab0" x="65.72" y="197.60673" style="stroke: #000000; stroke-width: 0.8"/>
      </g>
     </g>
     <g id="text_17">
      <!-- 0.5 -->
      <g transform="translate(36.455625 202.925637) scale(0.14 -0.14)">
       <defs>
        <path id="DejaVuSans-35" d="M 691 4666 
L 3169 4666 
L 3169 4134 
L 1269 4134 
L 1269 2991 
Q 1406 3038 1543 3061 
Q 1681 3084 1819 3084 
Q 2600 3084 3056 2656 
Q 3513 2228 3513 1497 
Q 3513 744 3044 326 
Q 2575 -91 1722 -91 
Q 1428 -91 1123 -41 
Q 819 9 494 109 
L 494 744 
Q 775 591 1075 516 
Q 1375 441 1709 441 
Q 2250 441 2565 725 
Q 2881 1009 2881 1497 
Q 2881 1984 2565 2268 
Q 2250 2553 1709 2553 
Q 1456 2553 1204 2497 
Q 953 2441 691 2322 
L 691 4666 
z
" transform="scale(0.015625)"/>
       </defs>
       <use xlink:href="#DejaVuSans-30"/>
       <use xlink:href="#DejaVuSans-2e" x="63.623047"/>
       <use xlink:href="#DejaVuSans-35" x="95.410156"/>
      </g>
     </g>
    </g>
    <g id="ytick_7">
     <g id="line2d_17">
      <g>
       <use xlink:href="#m8523760ab0" x="65.72" y="138.418225" style="stroke: #000000; stroke-width: 0.8"/>
      </g>
     </g>
     <g id="text_18">
      <!-- 0.6 -->
      <g transform="translate(36.455625 143.737131) scale(0.14 -0.14)">
       <defs>
        <path id="DejaVuSans-36" d="M 2113 2584 
Q 1688 2584 1439 2293 
Q 1191 2003 1191 1497 
Q 1191 994 1439 701 
Q 1688 409 2113 409 
Q 2538 409 2786 701 
Q 3034 994 3034 1497 
Q 3034 2003 2786 2293 
Q 2538 2584 2113 2584 
z
M 3366 4563 
L 3366 3988 
Q 3128 4100 2886 4159 
Q 2644 4219 2406 4219 
Q 1781 4219 1451 3797 
Q 1122 3375 1075 2522 
Q 1259 2794 1537 2939 
Q 1816 3084 2150 3084 
Q 2853 3084 3261 2657 
Q 3669 2231 3669 1497 
Q 3669 778 3244 343 
Q 2819 -91 2113 -91 
Q 1303 -91 875 529 
Q 447 1150 447 2328 
Q 447 3434 972 4092 
Q 1497 4750 2381 4750 
Q 2619 4750 2861 4703 
Q 3103 4656 3366 4563 
z
" transform="scale(0.015625)"/>
       </defs>
       <use xlink:href="#DejaVuSans-30"/>
       <use xlink:href="#DejaVuSans-2e" x="63.623047"/>
       <use xlink:href="#DejaVuSans-36" x="95.410156"/>
      </g>
     </g>
    </g>
    <g id="ytick_8">
     <g id="line2d_18">
      <g>
       <use xlink:href="#m8523760ab0" x="65.72" y="79.22972" style="stroke: #000000; stroke-width: 0.8"/>
      </g>
     </g>
     <g id="text_19">
      <!-- 0.7 -->
      <g transform="translate(36.455625 84.548626) scale(0.14 -0.14)">
       <defs>
        <path id="DejaVuSans-37" d="M 525 4666 
L 3525 4666 
L 3525 4397 
L 1831 0 
L 1172 0 
L 2766 4134 
L 525 4134 
L 525 4666 
z
" transform="scale(0.015625)"/>
       </defs>
       <use xlink:href="#DejaVuSans-30"/>
       <use xlink:href="#DejaVuSans-2e" x="63.623047"/>
       <use xlink:href="#DejaVuSans-37" x="95.410156"/>
      </g>
     </g>
    </g>
    <g id="ytick_9">
     <g id="line2d_19">
      <g>
       <use xlink:href="#m8523760ab0" x="65.72" y="20.041214" style="stroke: #000000; stroke-width: 0.8"/>
      </g>
     </g>
     <g id="text_20">
      <!-- 0.8 -->
      <g transform="translate(36.455625 25.360121) scale(0.14 -0.14)">
       <defs>
        <path id="DejaVuSans-38" d="M 2034 2216 
Q 1584 2216 1326 1975 
Q 1069 1734 1069 1313 
Q 1069 891 1326 650 
Q 1584 409 2034 409 
Q 2484 409 2743 651 
Q 3003 894 3003 1313 
Q 3003 1734 2745 1975 
Q 2488 2216 2034 2216 
z
M 1403 2484 
Q 997 2584 770 2862 
Q 544 3141 544 3541 
Q 544 4100 942 4425 
Q 1341 4750 2034 4750 
Q 2731 4750 3128 4425 
Q 3525 4100 3525 3541 
Q 3525 3141 3298 2862 
Q 3072 2584 2669 2484 
Q 3125 2378 3379 2068 
Q 3634 1759 3634 1313 
Q 3634 634 3220 271 
Q 2806 -91 2034 -91 
Q 1263 -91 848 271 
Q 434 634 434 1313 
Q 434 1759 690 2068 
Q 947 2378 1403 2484 
z
M 1172 3481 
Q 1172 3119 1398 2916 
Q 1625 2713 2034 2713 
Q 2441 2713 2670 2916 
Q 2900 3119 2900 3481 
Q 2900 3844 2670 4047 
Q 2441 4250 2034 4250 
Q 1625 4250 1398 4047 
Q 1172 3844 1172 3481 
z
" transform="scale(0.015625)"/>
       </defs>
       <use xlink:href="#DejaVuSans-30"/>
       <use xlink:href="#DejaVuSans-2e" x="63.623047"/>
       <use xlink:href="#DejaVuSans-38" x="95.410156"/>
      </g>
     </g>
    </g>
    <g id="text_21">
     <!-- F-score -->
     <g transform="translate(28.712187 298.544329) rotate(-90) scale(0.18 -0.18)">
      <defs>
       <path id="DejaVuSans-46" d="M 628 4666 
L 3309 4666 
L 3309 4134 
L 1259 4134 
L 1259 2759 
L 3109 2759 
L 3109 2228 
L 1259 2228 
L 1259 0 
L 628 0 
L 628 4666 
z
" transform="scale(0.015625)"/>
       <path id="DejaVuSans-73" d="M 2834 3397 
L 2834 2853 
Q 2591 2978 2328 3040 
Q 2066 3103 1784 3103 
Q 1356 3103 1142 2972 
Q 928 2841 928 2578 
Q 928 2378 1081 2264 
Q 1234 2150 1697 2047 
L 1894 2003 
Q 2506 1872 2764 1633 
Q 3022 1394 3022 966 
Q 3022 478 2636 193 
Q 2250 -91 1575 -91 
Q 1294 -91 989 -36 
Q 684 19 347 128 
L 347 722 
Q 666 556 975 473 
Q 1284 391 1588 391 
Q 1994 391 2212 530 
Q 2431 669 2431 922 
Q 2431 1156 2273 1281 
Q 2116 1406 1581 1522 
L 1381 1569 
Q 847 1681 609 1914 
Q 372 2147 372 2553 
Q 372 3047 722 3315 
Q 1072 3584 1716 3584 
Q 2034 3584 2315 3537 
Q 2597 3491 2834 3397 
z
" transform="scale(0.015625)"/>
       <path id="DejaVuSans-63" d="M 3122 3366 
L 3122 2828 
Q 2878 2963 2633 3030 
Q 2388 3097 2138 3097 
Q 1578 3097 1268 2742 
Q 959 2388 959 1747 
Q 959 1106 1268 751 
Q 1578 397 2138 397 
Q 2388 397 2633 464 
Q 2878 531 3122 666 
L 3122 134 
Q 2881 22 2623 -34 
Q 2366 -91 2075 -91 
Q 1284 -91 818 406 
Q 353 903 353 1747 
Q 353 2603 823 3093 
Q 1294 3584 2113 3584 
Q 2378 3584 2631 3529 
Q 2884 3475 3122 3366 
z
" transform="scale(0.015625)"/>
       <path id="DejaVuSans-6f" d="M 1959 3097 
Q 1497 3097 1228 2736 
Q 959 2375 959 1747 
Q 959 1119 1226 758 
Q 1494 397 1959 397 
Q 2419 397 2687 759 
Q 2956 1122 2956 1747 
Q 2956 2369 2687 2733 
Q 2419 3097 1959 3097 
z
M 1959 3584 
Q 2709 3584 3137 3096 
Q 3566 2609 3566 1747 
Q 3566 888 3137 398 
Q 2709 -91 1959 -91 
Q 1206 -91 779 398 
Q 353 888 353 1747 
Q 353 2609 779 3096 
Q 1206 3584 1959 3584 
z
" transform="scale(0.015625)"/>
       <path id="DejaVuSans-72" d="M 2631 2963 
Q 2534 3019 2420 3045 
Q 2306 3072 2169 3072 
Q 1681 3072 1420 2755 
Q 1159 2438 1159 1844 
L 1159 0 
L 581 0 
L 581 3500 
L 1159 3500 
L 1159 2956 
Q 1341 3275 1631 3429 
Q 1922 3584 2338 3584 
Q 2397 3584 2469 3576 
Q 2541 3569 2628 3553 
L 2631 2963 
z
" transform="scale(0.015625)"/>
      </defs>
      <use xlink:href="#DejaVuSans-46"/>
      <use xlink:href="#DejaVuSans-2d" x="57.519531"/>
      <use xlink:href="#DejaVuSans-73" x="93.603516"/>
      <use xlink:href="#DejaVuSans-63" x="145.703125"/>
      <use xlink:href="#DejaVuSans-6f" x="200.683594"/>
      <use xlink:href="#DejaVuSans-72" x="261.865234"/>
      <use xlink:href="#DejaVuSans-65" x="300.728516"/>
     </g>
    </g>
   </g>
   <g id="line2d_20">
    <path d="M 104.878 486.104162 
L 104.878 493.549257 
" clip-path="url(#p40e9029b3d)" style="fill: none; stroke: #3d3d3d; stroke-width: 1.5; stroke-linecap: square"/>
   </g>
   <g id="line2d_21">
    <path d="M 104.878 464.13882 
L 104.878 434.03009 
" clip-path="url(#p40e9029b3d)" style="fill: none; stroke: #3d3d3d; stroke-width: 1.5; stroke-linecap: square"/>
   </g>
   <g id="line2d_22">
    <path d="M 89.2148 493.549257 
L 120.5412 493.549257 
" clip-path="url(#p40e9029b3d)" style="fill: none; stroke: #3d3d3d; stroke-width: 1.5; stroke-linecap: square"/>
   </g>
   <g id="line2d_23">
    <path d="M 89.2148 434.03009 
L 120.5412 434.03009 
" clip-path="url(#p40e9029b3d)" style="fill: none; stroke: #3d3d3d; stroke-width: 1.5; stroke-linecap: square"/>
   </g>
   <g id="line2d_24">
    <defs>
     <path id="md606ab2180" d="M -0 3.535534 
L 2.12132 0 
L -0 -3.535534 
L -2.12132 -0 
z
" style="stroke: #3d3d3d; stroke-linejoin: miter"/>
    </defs>
    <g clip-path="url(#p40e9029b3d)">
     <use xlink:href="#md606ab2180" x="104.878" y="423.915721" style="fill: #3d3d3d; stroke: #3d3d3d; stroke-linejoin: miter"/>
    </g>
   </g>
   <g id="line2d_25">
    <path d="M 183.194 60.55819 
L 183.194 67.117786 
" clip-path="url(#p40e9029b3d)" style="fill: none; stroke: #3d3d3d; stroke-width: 1.5; stroke-linecap: square"/>
   </g>
   <g id="line2d_26">
    <path d="M 183.194 55.032165 
L 183.194 48.342628 
" clip-path="url(#p40e9029b3d)" style="fill: none; stroke: #3d3d3d; stroke-width: 1.5; stroke-linecap: square"/>
   </g>
   <g id="line2d_27">
    <path d="M 167.5308 67.117786 
L 198.8572 67.117786 
" clip-path="url(#p40e9029b3d)" style="fill: none; stroke: #3d3d3d; stroke-width: 1.5; stroke-linecap: square"/>
   </g>
   <g id="line2d_28">
    <path d="M 167.5308 48.342628 
L 198.8572 48.342628 
" clip-path="url(#p40e9029b3d)" style="fill: none; stroke: #3d3d3d; stroke-width: 1.5; stroke-linecap: square"/>
   </g>
   <g id="line2d_29">
    <g clip-path="url(#p40e9029b3d)">
     <use xlink:href="#md606ab2180" x="183.194" y="68.888234" style="fill: #3d3d3d; stroke: #3d3d3d; stroke-linejoin: miter"/>
     <use xlink:href="#md606ab2180" x="183.194" y="69.697488" style="fill: #3d3d3d; stroke: #3d3d3d; stroke-linejoin: miter"/>
     <use xlink:href="#md606ab2180" x="183.194" y="69.6685" style="fill: #3d3d3d; stroke: #3d3d3d; stroke-linejoin: miter"/>
     <use xlink:href="#md606ab2180" x="183.194" y="68.955832" style="fill: #3d3d3d; stroke: #3d3d3d; stroke-linejoin: miter"/>
    </g>
   </g>
   <g id="line2d_30">
    <path d="M 261.51 47.224789 
L 261.51 52.879356 
" clip-path="url(#p40e9029b3d)" style="fill: none; stroke: #3d3d3d; stroke-width: 1.5; stroke-linecap: square"/>
   </g>
   <g id="line2d_31">
    <path d="M 261.51 42.892062 
L 261.51 38.334401 
" clip-path="url(#p40e9029b3d)" style="fill: none; stroke: #3d3d3d; stroke-width: 1.5; stroke-linecap: square"/>
   </g>
   <g id="line2d_32">
    <path d="M 245.8468 52.879356 
L 277.1732 52.879356 
" clip-path="url(#p40e9029b3d)" style="fill: none; stroke: #3d3d3d; stroke-width: 1.5; stroke-linecap: square"/>
   </g>
   <g id="line2d_33">
    <path d="M 245.8468 38.334401 
L 277.1732 38.334401 
" clip-path="url(#p40e9029b3d)" style="fill: none; stroke: #3d3d3d; stroke-width: 1.5; stroke-linecap: square"/>
   </g>
   <g id="line2d_34">
    <g clip-path="url(#p40e9029b3d)">
     <use xlink:href="#md606ab2180" x="261.51" y="53.921708" style="fill: #3d3d3d; stroke: #3d3d3d; stroke-linejoin: miter"/>
     <use xlink:href="#md606ab2180" x="261.51" y="55.449294" style="fill: #3d3d3d; stroke: #3d3d3d; stroke-linejoin: miter"/>
     <use xlink:href="#md606ab2180" x="261.51" y="62.678906" style="fill: #3d3d3d; stroke: #3d3d3d; stroke-linejoin: miter"/>
     <use xlink:href="#md606ab2180" x="261.51" y="61.495063" style="fill: #3d3d3d; stroke: #3d3d3d; stroke-linejoin: miter"/>
     <use xlink:href="#md606ab2180" x="261.51" y="54.947256" style="fill: #3d3d3d; stroke: #3d3d3d; stroke-linejoin: miter"/>
    </g>
   </g>
   <g id="line2d_35">
    <path d="M 339.826 96.314807 
L 339.826 105.462487 
" clip-path="url(#p40e9029b3d)" style="fill: none; stroke: #3d3d3d; stroke-width: 1.5; stroke-linecap: square"/>
   </g>
   <g id="line2d_36">
    <path d="M 339.826 90.132886 
L 339.826 81.601889 
" clip-path="url(#p40e9029b3d)" style="fill: none; stroke: #3d3d3d; stroke-width: 1.5; stroke-linecap: square"/>
   </g>
   <g id="line2d_37">
    <path d="M 324.1628 105.462487 
L 355.4892 105.462487 
" clip-path="url(#p40e9029b3d)" style="fill: none; stroke: #3d3d3d; stroke-width: 1.5; stroke-linecap: square"/>
   </g>
   <g id="line2d_38">
    <path d="M 324.1628 81.601889 
L 355.4892 81.601889 
" clip-path="url(#p40e9029b3d)" style="fill: none; stroke: #3d3d3d; stroke-width: 1.5; stroke-linecap: square"/>
   </g>
   <g id="line2d_39">
    <g clip-path="url(#p40e9029b3d)">
     <use xlink:href="#md606ab2180" x="339.826" y="107.84403" style="fill: #3d3d3d; stroke: #3d3d3d; stroke-linejoin: miter"/>
    </g>
   </g>
   <g id="line2d_40">
    <path d="M 418.142 205.703219 
L 418.142 232.266666 
" clip-path="url(#p40e9029b3d)" style="fill: none; stroke: #3d3d3d; stroke-width: 1.5; stroke-linecap: square"/>
   </g>
   <g id="line2d_41">
    <path d="M 418.142 187.287506 
L 418.142 160.784388 
" clip-path="url(#p40e9029b3d)" style="fill: none; stroke: #3d3d3d; stroke-width: 1.5; stroke-linecap: square"/>
   </g>
   <g id="line2d_42">
    <path d="M 402.4788 232.266666 
L 433.8052 232.266666 
" clip-path="url(#p40e9029b3d)" style="fill: none; stroke: #3d3d3d; stroke-width: 1.5; stroke-linecap: square"/>
   </g>
   <g id="line2d_43">
    <path d="M 402.4788 160.784388 
L 433.8052 160.784388 
" clip-path="url(#p40e9029b3d)" style="fill: none; stroke: #3d3d3d; stroke-width: 1.5; stroke-linecap: square"/>
   </g>
   <g id="line2d_44">
    <g clip-path="url(#p40e9029b3d)">
     <use xlink:href="#md606ab2180" x="418.142" y="402.490018" style="fill: #3d3d3d; stroke: #3d3d3d; stroke-linejoin: miter"/>
     <use xlink:href="#md606ab2180" x="418.142" y="152.182994" style="fill: #3d3d3d; stroke: #3d3d3d; stroke-linejoin: miter"/>
    </g>
   </g>
   <g id="line2d_45">
    <path d="M 496.458 215.46656 
L 496.458 233.180385 
" clip-path="url(#p40e9029b3d)" style="fill: none; stroke: #3d3d3d; stroke-width: 1.5; stroke-linecap: square"/>
   </g>
   <g id="line2d_46">
    <path d="M 496.458 202.104337 
L 496.458 182.442733 
" clip-path="url(#p40e9029b3d)" style="fill: none; stroke: #3d3d3d; stroke-width: 1.5; stroke-linecap: square"/>
   </g>
   <g id="line2d_47">
    <path d="M 480.7948 233.180385 
L 512.1212 233.180385 
" clip-path="url(#p40e9029b3d)" style="fill: none; stroke: #3d3d3d; stroke-width: 1.5; stroke-linecap: square"/>
   </g>
   <g id="line2d_48">
    <path d="M 480.7948 182.442733 
L 512.1212 182.442733 
" clip-path="url(#p40e9029b3d)" style="fill: none; stroke: #3d3d3d; stroke-width: 1.5; stroke-linecap: square"/>
   </g>
   <g id="line2d_49">
    <g clip-path="url(#p40e9029b3d)">
     <use xlink:href="#md606ab2180" x="496.458" y="258.474342" style="fill: #3d3d3d; stroke: #3d3d3d; stroke-linejoin: miter"/>
     <use xlink:href="#md606ab2180" x="496.458" y="241.976571" style="fill: #3d3d3d; stroke: #3d3d3d; stroke-linejoin: miter"/>
    </g>
   </g>
   <g id="line2d_50">
    <path d="M 574.774 102.465753 
L 574.774 123.088828 
" clip-path="url(#p40e9029b3d)" style="fill: none; stroke: #3d3d3d; stroke-width: 1.5; stroke-linecap: square"/>
   </g>
   <g id="line2d_51">
    <path d="M 574.774 85.637302 
L 574.774 68.131875 
" clip-path="url(#p40e9029b3d)" style="fill: none; stroke: #3d3d3d; stroke-width: 1.5; stroke-linecap: square"/>
   </g>
   <g id="line2d_52">
    <path d="M 559.1108 123.088828 
L 590.4372 123.088828 
" clip-path="url(#p40e9029b3d)" style="fill: none; stroke: #3d3d3d; stroke-width: 1.5; stroke-linecap: square"/>
   </g>
   <g id="line2d_53">
    <path d="M 559.1108 68.131875 
L 590.4372 68.131875 
" clip-path="url(#p40e9029b3d)" style="fill: none; stroke: #3d3d3d; stroke-width: 1.5; stroke-linecap: square"/>
   </g>
   <g id="line2d_54">
    <g clip-path="url(#p40e9029b3d)">
     <use xlink:href="#md606ab2180" x="574.774" y="146.741609" style="fill: #3d3d3d; stroke: #3d3d3d; stroke-linejoin: miter"/>
     <use xlink:href="#md606ab2180" x="574.774" y="149.585868" style="fill: #3d3d3d; stroke: #3d3d3d; stroke-linejoin: miter"/>
     <use xlink:href="#md606ab2180" x="574.774" y="130.111066" style="fill: #3d3d3d; stroke: #3d3d3d; stroke-linejoin: miter"/>
     <use xlink:href="#md606ab2180" x="574.774" y="152.37534" style="fill: #3d3d3d; stroke: #3d3d3d; stroke-linejoin: miter"/>
     <use xlink:href="#md606ab2180" x="574.774" y="267.435866" style="fill: #3d3d3d; stroke: #3d3d3d; stroke-linejoin: miter"/>
    </g>
   </g>
   <g id="line2d_55">
    <path d="M 653.09 101.014882 
L 653.09 113.720863 
" clip-path="url(#p40e9029b3d)" style="fill: none; stroke: #3d3d3d; stroke-width: 1.5; stroke-linecap: square"/>
   </g>
   <g id="line2d_56">
    <path d="M 653.09 91.464197 
L 653.09 81.184896 
" clip-path="url(#p40e9029b3d)" style="fill: none; stroke: #3d3d3d; stroke-width: 1.5; stroke-linecap: square"/>
   </g>
   <g id="line2d_57">
    <path d="M 637.4268 113.720863 
L 668.7532 113.720863 
" clip-path="url(#p40e9029b3d)" style="fill: none; stroke: #3d3d3d; stroke-width: 1.5; stroke-linecap: square"/>
   </g>
   <g id="line2d_58">
    <path d="M 637.4268 81.184896 
L 668.7532 81.184896 
" clip-path="url(#p40e9029b3d)" style="fill: none; stroke: #3d3d3d; stroke-width: 1.5; stroke-linecap: square"/>
   </g>
   <g id="line2d_59">
    <g clip-path="url(#p40e9029b3d)">
     <use xlink:href="#md606ab2180" x="653.09" y="122.411824" style="fill: #3d3d3d; stroke: #3d3d3d; stroke-linejoin: miter"/>
     <use xlink:href="#md606ab2180" x="653.09" y="74.372304" style="fill: #3d3d3d; stroke: #3d3d3d; stroke-linejoin: miter"/>
    </g>
   </g>
   <g id="line2d_60">
    <path d="M 731.406 115.378533 
L 731.406 127.182993 
" clip-path="url(#p40e9029b3d)" style="fill: none; stroke: #3d3d3d; stroke-width: 1.5; stroke-linecap: square"/>
   </g>
   <g id="line2d_61">
    <path d="M 731.406 104.462415 
L 731.406 93.583335 
" clip-path="url(#p40e9029b3d)" style="fill: none; stroke: #3d3d3d; stroke-width: 1.5; stroke-linecap: square"/>
   </g>
   <g id="line2d_62">
    <path d="M 715.7428 127.182993 
L 747.0692 127.182993 
" clip-path="url(#p40e9029b3d)" style="fill: none; stroke: #3d3d3d; stroke-width: 1.5; stroke-linecap: square"/>
   </g>
   <g id="line2d_63">
    <path d="M 715.7428 93.583335 
L 747.0692 93.583335 
" clip-path="url(#p40e9029b3d)" style="fill: none; stroke: #3d3d3d; stroke-width: 1.5; stroke-linecap: square"/>
   </g>
   <g id="line2d_64">
    <g clip-path="url(#p40e9029b3d)">
     <use xlink:href="#md606ab2180" x="731.406" y="84.162095" style="fill: #3d3d3d; stroke: #3d3d3d; stroke-linejoin: miter"/>
    </g>
   </g>
   <g id="line2d_65">
    <path d="M 809.722 265.618367 
L 809.722 298.751645 
" clip-path="url(#p40e9029b3d)" style="fill: none; stroke: #3d3d3d; stroke-width: 1.5; stroke-linecap: square"/>
   </g>
   <g id="line2d_66">
    <path d="M 809.722 239.504496 
L 809.722 216.208832 
" clip-path="url(#p40e9029b3d)" style="fill: none; stroke: #3d3d3d; stroke-width: 1.5; stroke-linecap: square"/>
   </g>
   <g id="line2d_67">
    <path d="M 794.0588 298.751645 
L 825.3852 298.751645 
" clip-path="url(#p40e9029b3d)" style="fill: none; stroke: #3d3d3d; stroke-width: 1.5; stroke-linecap: square"/>
   </g>
   <g id="line2d_68">
    <path d="M 794.0588 216.208832 
L 825.3852 216.208832 
" clip-path="url(#p40e9029b3d)" style="fill: none; stroke: #3d3d3d; stroke-width: 1.5; stroke-linecap: square"/>
   </g>
   <g id="line2d_69">
    <g clip-path="url(#p40e9029b3d)">
     <use xlink:href="#md606ab2180" x="809.722" y="376.729839" style="fill: #3d3d3d; stroke: #3d3d3d; stroke-linejoin: miter"/>
     <use xlink:href="#md606ab2180" x="809.722" y="310.346741" style="fill: #3d3d3d; stroke: #3d3d3d; stroke-linejoin: miter"/>
    </g>
   </g>
   <g id="line2d_70">
    <path d="M 73.5516 478.659067 
L 136.2044 478.659067 
" clip-path="url(#p40e9029b3d)" style="fill: none; stroke: #3d3d3d; stroke-width: 1.5"/>
   </g>
   <g id="line2d_71">
    <path d="M 151.8676 57.39981 
L 214.5204 57.39981 
" clip-path="url(#p40e9029b3d)" style="fill: none; stroke: #3d3d3d; stroke-width: 1.5"/>
   </g>
   <g id="line2d_72">
    <path d="M 230.1836 44.902661 
L 292.8364 44.902661 
" clip-path="url(#p40e9029b3d)" style="fill: none; stroke: #3d3d3d; stroke-width: 1.5"/>
   </g>
   <g id="line2d_73">
    <path d="M 308.4996 93.610701 
L 371.1524 93.610701 
" clip-path="url(#p40e9029b3d)" style="fill: none; stroke: #3d3d3d; stroke-width: 1.5"/>
   </g>
   <g id="line2d_74">
    <path d="M 386.8156 195.595965 
L 449.4684 195.595965 
" clip-path="url(#p40e9029b3d)" style="fill: none; stroke: #3d3d3d; stroke-width: 1.5"/>
   </g>
   <g id="line2d_75">
    <path d="M 465.1316 209.479715 
L 527.7844 209.479715 
" clip-path="url(#p40e9029b3d)" style="fill: none; stroke: #3d3d3d; stroke-width: 1.5"/>
   </g>
   <g id="line2d_76">
    <path d="M 543.4476 93.188078 
L 606.1004 93.188078 
" clip-path="url(#p40e9029b3d)" style="fill: none; stroke: #3d3d3d; stroke-width: 1.5"/>
   </g>
   <g id="line2d_77">
    <path d="M 621.7636 96.072556 
L 684.4164 96.072556 
" clip-path="url(#p40e9029b3d)" style="fill: none; stroke: #3d3d3d; stroke-width: 1.5"/>
   </g>
   <g id="line2d_78">
    <path d="M 700.0796 109.663297 
L 762.7324 109.663297 
" clip-path="url(#p40e9029b3d)" style="fill: none; stroke: #3d3d3d; stroke-width: 1.5"/>
   </g>
   <g id="line2d_79">
    <path d="M 778.3956 249.177116 
L 841.0484 249.177116 
" clip-path="url(#p40e9029b3d)" style="fill: none; stroke: #3d3d3d; stroke-width: 1.5"/>
   </g>
   <g id="patch_13">
    <path d="M 65.72 516.31 
L 65.72 15.573659 
" style="fill: none; stroke: #000000; stroke-width: 0.8; stroke-linejoin: miter; stroke-linecap: square"/>
   </g>
   <g id="patch_14">
    <path d="M 848.88 516.31 
L 848.88 15.573659 
" style="fill: none; stroke: #000000; stroke-width: 0.8; stroke-linejoin: miter; stroke-linecap: square"/>
   </g>
   <g id="patch_15">
    <path d="M 65.72 516.31 
L 848.88 516.31 
" style="fill: none; stroke: #000000; stroke-width: 0.8; stroke-linejoin: miter; stroke-linecap: square"/>
   </g>
   <g id="patch_16">
    <path d="M 65.72 15.573659 
L 848.88 15.573659 
" style="fill: none; stroke: #000000; stroke-width: 0.8; stroke-linejoin: miter; stroke-linecap: square"/>
   </g>
  </g>
 </g>
 <defs>
  <clipPath id="p40e9029b3d">
   <rect x="65.72" y="15.573659" width="783.16" height="500.736341"/>
  </clipPath>
 </defs>
</svg>
