<?xml version="1.0" encoding="utf-8" standalone="no"?>
<!DOCTYPE svg PUBLIC "-//W3C//DTD SVG 1.1//EN"
  "http://www.w3.org/Graphics/SVG/1.1/DTD/svg11.dtd">
<svg xmlns:xlink="http://www.w3.org/1999/xlink" width="460.8pt" height="345.6pt" viewBox="0 0 460.8 345.6" xmlns="http://www.w3.org/2000/svg" version="1.1">
 <metadata>
  <rdf:RDF xmlns:dc="http://purl.org/dc/elements/1.1/" xmlns:cc="http://creativecommons.org/ns#" xmlns:rdf="http://www.w3.org/1999/02/22-rdf-syntax-ns#">
   <cc:Work>
    <dc:type rdf:resource="http://purl.org/dc/dcmitype/StillImage"/>
    <dc:date>2024-01-28T22:48:35.481052</dc:date>
    <dc:format>image/svg+xml</dc:format>
    <dc:creator>
     <cc:Agent>
      <dc:title>Matplotlib v3.8.0, https://matplotlib.org/</dc:title>
     </cc:Agent>
    </dc:creator>
   </cc:Work>
  </rdf:RDF>
 </metadata>
 <defs>
  <style type="text/css">*{stroke-linejoin: round; stroke-linecap: butt}</style>
 </defs>
 <g id="figure_1">
  <g id="patch_1">
   <path d="M 0 345.6 
L 460.8 345.6 
L 460.8 0 
L 0 0 
z
" style="fill: #ffffff"/>
  </g>
  <g id="axes_1">
   <g id="patch_2">
    <path d="M 57.6 307.584 
L 414.72 307.584 
L 414.72 41.472 
L 57.6 41.472 
z
" style="fill: #ffffff"/>
   </g>
   <g id="PathCollection_1">
    <defs>
     <path id="mea062de445" d="M 0 3 
C 0.795609 3 1.55874 2.683901 2.12132 2.12132 
C 2.683901 1.55874 3 0.795609 3 0 
C 3 -0.795609 2.683901 -1.55874 2.12132 -2.12132 
C 1.55874 -2.683901 0.795609 -3 0 -3 
C -0.795609 -3 -1.55874 -2.683901 -2.12132 -2.12132 
C -2.683901 -1.55874 -3 -0.795609 -3 0 
C -3 0.795609 -2.683901 1.55874 -2.12132 2.12132 
C -1.55874 2.683901 -0.795609 3 0 3 
z
" style="stroke: #ffffff; stroke-width: 0.48"/>
    </defs>
    <g clip-path="url(#p9fb8796f38)">
     <use xlink:href="#mea062de445" x="73.832727" y="66.777217" style="fill: #1f77b4; stroke: #ffffff; stroke-width: 0.48"/>
     <use xlink:href="#mea062de445" x="88.589752" y="58.544141" style="fill: #1f77b4; stroke: #ffffff; stroke-width: 0.48"/>
     <use xlink:href="#mea062de445" x="103.346777" y="119.172374" style="fill: #1f77b4; stroke: #ffffff; stroke-width: 0.48"/>
     <use xlink:href="#mea062de445" x="118.103802" y="295.488" style="fill: #1f77b4; stroke: #ffffff; stroke-width: 0.48"/>
     <use xlink:href="#mea062de445" x="132.860826" y="92.317066" style="fill: #1f77b4; stroke: #ffffff; stroke-width: 0.48"/>
     <use xlink:href="#mea062de445" x="147.617851" y="133.81711" style="fill: #1f77b4; stroke: #ffffff; stroke-width: 0.48"/>
     <use xlink:href="#mea062de445" x="162.374876" y="115.991727" style="fill: #1f77b4; stroke: #ffffff; stroke-width: 0.48"/>
     <use xlink:href="#mea062de445" x="177.131901" y="111.601514" style="fill: #1f77b4; stroke: #ffffff; stroke-width: 0.48"/>
     <use xlink:href="#mea062de445" x="191.888926" y="145.467995" style="fill: #1f77b4; stroke: #ffffff; stroke-width: 0.48"/>
     <use xlink:href="#mea062de445" x="206.64595" y="152.549528" style="fill: #1f77b4; stroke: #ffffff; stroke-width: 0.48"/>
     <use xlink:href="#mea062de445" x="221.402975" y="112.738311" style="fill: #1f77b4; stroke: #ffffff; stroke-width: 0.48"/>
     <use xlink:href="#mea062de445" x="236.16" y="120.412492" style="fill: #1f77b4; stroke: #ffffff; stroke-width: 0.48"/>
     <use xlink:href="#mea062de445" x="250.917025" y="82.520417" style="fill: #1f77b4; stroke: #ffffff; stroke-width: 0.48"/>
     <use xlink:href="#mea062de445" x="265.67405" y="100.248274" style="fill: #1f77b4; stroke: #ffffff; stroke-width: 0.48"/>
     <use xlink:href="#mea062de445" x="280.431074" y="104.771357" style="fill: #1f77b4; stroke: #ffffff; stroke-width: 0.48"/>
     <use xlink:href="#mea062de445" x="295.188099" y="126.921573" style="fill: #1f77b4; stroke: #ffffff; stroke-width: 0.48"/>
     <use xlink:href="#mea062de445" x="309.945124" y="112.733461" style="fill: #1f77b4; stroke: #ffffff; stroke-width: 0.48"/>
     <use xlink:href="#mea062de445" x="324.702149" y="83.556836" style="fill: #1f77b4; stroke: #ffffff; stroke-width: 0.48"/>
     <use xlink:href="#mea062de445" x="339.459174" y="125.484607" style="fill: #1f77b4; stroke: #ffffff; stroke-width: 0.48"/>
     <use xlink:href="#mea062de445" x="354.216198" y="61.808614" style="fill: #1f77b4; stroke: #ffffff; stroke-width: 0.48"/>
     <use xlink:href="#mea062de445" x="368.973223" y="53.568" style="fill: #1f77b4; stroke: #ffffff; stroke-width: 0.48"/>
     <use xlink:href="#mea062de445" x="383.730248" y="91.232286" style="fill: #1f77b4; stroke: #ffffff; stroke-width: 0.48"/>
     <use xlink:href="#mea062de445" x="398.487273" y="138.867537" style="fill: #1f77b4; stroke: #ffffff; stroke-width: 0.48"/>
    </g>
   </g>
   <g id="PathCollection_2">
    <defs>
     <path id="m8c619fc40f" d="M 0 3 
C 0.795609 3 1.55874 2.683901 2.12132 2.12132 
C 2.683901 1.55874 3 0.795609 3 0 
C 3 -0.795609 2.683901 -1.55874 2.12132 -2.12132 
C 1.55874 -2.683901 0.795609 -3 0 -3 
C -0.795609 -3 -1.55874 -2.683901 -2.12132 -2.12132 
C -2.683901 -1.55874 -3 -0.795609 -3 0 
C -3 0.795609 -2.683901 1.55874 -2.12132 2.12132 
C -1.55874 2.683901 -0.795609 3 0 3 
z
" style="stroke: #1f77b4; stroke-opacity: 0.8"/>
    </defs>
    <g clip-path="url(#p9fb8796f38)">
     <use xlink:href="#m8c619fc40f" x="73.832727" y="66.777217" style="fill: #1f77b4; fill-opacity: 0.8; stroke: #1f77b4; stroke-opacity: 0.8"/>
     <use xlink:href="#m8c619fc40f" x="88.589752" y="58.544141" style="fill: #1f77b4; fill-opacity: 0.8; stroke: #1f77b4; stroke-opacity: 0.8"/>
     <use xlink:href="#m8c619fc40f" x="103.346777" y="119.172374" style="fill: #1f77b4; fill-opacity: 0.8; stroke: #1f77b4; stroke-opacity: 0.8"/>
     <use xlink:href="#m8c619fc40f" x="118.103802" y="295.488" style="fill: #1f77b4; fill-opacity: 0.8; stroke: #1f77b4; stroke-opacity: 0.8"/>
     <use xlink:href="#m8c619fc40f" x="132.860826" y="92.317066" style="fill: #1f77b4; fill-opacity: 0.8; stroke: #1f77b4; stroke-opacity: 0.8"/>
     <use xlink:href="#m8c619fc40f" x="147.617851" y="133.81711" style="fill: #1f77b4; fill-opacity: 0.8; stroke: #1f77b4; stroke-opacity: 0.8"/>
     <use xlink:href="#m8c619fc40f" x="162.374876" y="115.991727" style="fill: #1f77b4; fill-opacity: 0.8; stroke: #1f77b4; stroke-opacity: 0.8"/>
     <use xlink:href="#m8c619fc40f" x="177.131901" y="111.601514" style="fill: #1f77b4; fill-opacity: 0.8; stroke: #1f77b4; stroke-opacity: 0.8"/>
     <use xlink:href="#m8c619fc40f" x="191.888926" y="145.467995" style="fill: #1f77b4; fill-opacity: 0.8; stroke: #1f77b4; stroke-opacity: 0.8"/>
     <use xlink:href="#m8c619fc40f" x="206.64595" y="152.549528" style="fill: #1f77b4; fill-opacity: 0.8; stroke: #1f77b4; stroke-opacity: 0.8"/>
     <use xlink:href="#m8c619fc40f" x="221.402975" y="112.738311" style="fill: #1f77b4; fill-opacity: 0.8; stroke: #1f77b4; stroke-opacity: 0.8"/>
     <use xlink:href="#m8c619fc40f" x="236.16" y="120.412492" style="fill: #1f77b4; fill-opacity: 0.8; stroke: #1f77b4; stroke-opacity: 0.8"/>
     <use xlink:href="#m8c619fc40f" x="250.917025" y="82.520417" style="fill: #1f77b4; fill-opacity: 0.8; stroke: #1f77b4; stroke-opacity: 0.8"/>
     <use xlink:href="#m8c619fc40f" x="265.67405" y="100.248274" style="fill: #1f77b4; fill-opacity: 0.8; stroke: #1f77b4; stroke-opacity: 0.8"/>
     <use xlink:href="#m8c619fc40f" x="280.431074" y="104.771357" style="fill: #1f77b4; fill-opacity: 0.8; stroke: #1f77b4; stroke-opacity: 0.8"/>
     <use xlink:href="#m8c619fc40f" x="295.188099" y="126.921573" style="fill: #1f77b4; fill-opacity: 0.8; stroke: #1f77b4; stroke-opacity: 0.8"/>
     <use xlink:href="#m8c619fc40f" x="309.945124" y="112.733461" style="fill: #1f77b4; fill-opacity: 0.8; stroke: #1f77b4; stroke-opacity: 0.8"/>
     <use xlink:href="#m8c619fc40f" x="324.702149" y="83.556836" style="fill: #1f77b4; fill-opacity: 0.8; stroke: #1f77b4; stroke-opacity: 0.8"/>
     <use xlink:href="#m8c619fc40f" x="339.459174" y="125.484607" style="fill: #1f77b4; fill-opacity: 0.8; stroke: #1f77b4; stroke-opacity: 0.8"/>
     <use xlink:href="#m8c619fc40f" x="354.216198" y="61.808614" style="fill: #1f77b4; fill-opacity: 0.8; stroke: #1f77b4; stroke-opacity: 0.8"/>
     <use xlink:href="#m8c619fc40f" x="368.973223" y="53.568" style="fill: #1f77b4; fill-opacity: 0.8; stroke: #1f77b4; stroke-opacity: 0.8"/>
     <use xlink:href="#m8c619fc40f" x="383.730248" y="91.232286" style="fill: #1f77b4; fill-opacity: 0.8; stroke: #1f77b4; stroke-opacity: 0.8"/>
     <use xlink:href="#m8c619fc40f" x="398.487273" y="138.867537" style="fill: #1f77b4; fill-opacity: 0.8; stroke: #1f77b4; stroke-opacity: 0.8"/>
    </g>
   </g>
   <g id="PolyCollection_1">
    <path d="M 73.832727 87.682784 
L 73.832727 195.689641 
L 77.112066 194.270368 
L 80.391405 192.851096 
L 83.670744 191.427734 
L 86.950083 190.003979 
L 90.229421 188.580223 
L 93.50876 187.210887 
L 96.788099 185.960198 
L 100.067438 184.709509 
L 103.346777 183.45882 
L 106.626116 182.288858 
L 109.905455 181.185846 
L 113.184793 180.082833 
L 116.464132 178.979821 
L 119.743471 177.876808 
L 123.02281 176.773796 
L 126.302149 175.670783 
L 129.581488 174.37926 
L 132.860826 172.942368 
L 136.140165 171.818464 
L 139.419504 170.896391 
L 142.698843 169.689239 
L 145.978182 167.990464 
L 149.257521 166.308542 
L 152.53686 164.74543 
L 155.816198 163.503973 
L 159.095537 162.253015 
L 162.374876 161.002056 
L 165.654215 159.751098 
L 168.933554 158.50014 
L 172.212893 157.249181 
L 175.492231 156.057476 
L 178.77157 154.861507 
L 182.050909 153.504385 
L 185.330248 152.255 
L 188.609587 150.887277 
L 191.888926 149.451851 
L 195.168264 147.996974 
L 198.447603 146.566294 
L 201.726942 145.464792 
L 205.006281 144.369701 
L 208.28562 143.258286 
L 211.564959 142.032994 
L 214.844298 140.852504 
L 218.123636 139.550824 
L 221.402975 138.557655 
L 224.682314 137.307891 
L 227.961653 136.060275 
L 231.240992 134.967904 
L 234.520331 133.891487 
L 237.799669 132.606962 
L 241.079008 131.910019 
L 244.358347 131.04328 
L 247.637686 130.087094 
L 250.917025 129.032836 
L 254.196364 128.536959 
L 257.475702 127.961074 
L 260.755041 127.42365 
L 264.03438 126.888293 
L 267.313719 126.020806 
L 270.593058 125.586779 
L 273.872397 125.161533 
L 277.151736 124.384144 
L 280.431074 124.240344 
L 283.710413 123.678096 
L 286.989752 122.813433 
L 290.269091 122.605984 
L 293.54843 122.227449 
L 296.827769 122.111672 
L 300.107107 121.825947 
L 303.386446 121.532462 
L 306.665785 121.449922 
L 309.945124 120.945004 
L 313.224463 120.649063 
L 316.503802 120.854675 
L 319.78314 120.721118 
L 323.062479 120.721533 
L 326.341818 120.730887 
L 329.621157 120.779044 
L 332.900496 120.842429 
L 336.179835 121.136947 
L 339.459174 121.421409 
L 342.738512 121.597277 
L 346.017851 121.770236 
L 349.29719 121.555991 
L 352.576529 121.886436 
L 355.855868 122.286823 
L 359.135207 122.30221 
L 362.414545 122.551018 
L 365.693884 122.703782 
L 368.973223 122.814052 
L 372.252562 122.763875 
L 375.531901 122.892727 
L 378.81124 123.059076 
L 382.090579 123.228799 
L 385.369917 123.434388 
L 388.649256 123.637759 
L 391.928595 123.848891 
L 395.207934 124.058488 
L 398.487273 124.355777 
L 398.487273 59.408562 
L 398.487273 59.408562 
L 395.207934 60.745892 
L 391.928595 62.088307 
L 388.649256 63.430722 
L 385.369917 64.773137 
L 382.090579 66.115552 
L 378.81124 67.457968 
L 375.531901 68.560445 
L 372.252562 69.765428 
L 368.973223 70.966943 
L 365.693884 71.986809 
L 362.414545 73.302571 
L 359.135207 74.617977 
L 355.855868 75.798984 
L 352.576529 77.067496 
L 349.29719 78.307224 
L 346.017851 79.332566 
L 342.738512 80.463328 
L 339.459174 81.418565 
L 336.179835 82.586393 
L 332.900496 83.400272 
L 329.621157 84.613099 
L 326.341818 85.407317 
L 323.062479 86.292078 
L 319.78314 87.230106 
L 316.503802 88.312882 
L 313.224463 88.66308 
L 309.945124 90.039418 
L 306.665785 90.443743 
L 303.386446 90.966111 
L 300.107107 91.757834 
L 296.827769 92.373018 
L 293.54843 92.959987 
L 290.269091 93.526666 
L 286.989752 93.726576 
L 283.710413 93.826413 
L 280.431074 94.319499 
L 277.151736 94.53886 
L 273.872397 94.856421 
L 270.593058 95.012873 
L 267.313719 95.175421 
L 264.03438 95.518461 
L 260.755041 95.816451 
L 257.475702 95.959969 
L 254.196364 96.075103 
L 250.917025 96.084899 
L 247.637686 96.187073 
L 244.358347 96.369691 
L 241.079008 96.42975 
L 237.799669 96.615361 
L 234.520331 96.667348 
L 231.240992 96.848426 
L 227.961653 96.860305 
L 224.682314 96.766067 
L 221.402975 96.707561 
L 218.123636 96.749173 
L 214.844298 96.670219 
L 211.564959 96.834689 
L 208.28562 96.874568 
L 205.006281 96.935902 
L 201.726942 96.737576 
L 198.447603 96.622943 
L 195.168264 96.511638 
L 191.888926 96.223427 
L 188.609587 96.019546 
L 185.330248 95.759299 
L 182.050909 95.433914 
L 178.77157 95.103574 
L 175.492231 94.898816 
L 172.212893 94.774013 
L 168.933554 94.645159 
L 165.654215 94.524277 
L 162.374876 94.413436 
L 159.095537 94.206881 
L 155.816198 93.920616 
L 152.53686 93.671956 
L 149.257521 93.589481 
L 145.978182 93.410764 
L 142.698843 93.209106 
L 139.419504 93.010329 
L 136.140165 92.812161 
L 132.860826 92.591664 
L 129.581488 92.317975 
L 126.302149 92.050527 
L 123.02281 92.007184 
L 119.743471 91.80487 
L 116.464132 91.384363 
L 113.184793 90.958784 
L 109.905455 90.684379 
L 106.626116 90.412554 
L 103.346777 90.140728 
L 100.067438 89.868903 
L 96.788099 89.498669 
L 93.50876 89.24157 
L 90.229421 89.053427 
L 86.950083 88.781602 
L 83.670744 88.5469 
L 80.391405 88.256551 
L 77.112066 88.009621 
L 73.832727 87.682784 
z
" clip-path="url(#p9fb8796f38)" style="fill: #1f77b4; fill-opacity: 0.15"/>
   </g>
   <g id="matplotlib.axis_1">
    <g id="xtick_1">
     <g id="line2d_1">
      <defs>
       <path id="m93313cb620" d="M 0 0 
L 0 3.5 
" style="stroke: #000000; stroke-width: 0.8"/>
      </defs>
      <g>
       <use xlink:href="#m93313cb620" x="73.832727" y="307.584" style="stroke: #000000; stroke-width: 0.8"/>
      </g>
     </g>
     <g id="text_1">
      <!-- 0 -->
      <g transform="translate(70.651477 322.182437) scale(0.1 -0.1)">
       <defs>
        <path id="DejaVuSans-30" d="M 2034 4250 
Q 1547 4250 1301 3770 
Q 1056 3291 1056 2328 
Q 1056 1369 1301 889 
Q 1547 409 2034 409 
Q 2525 409 2770 889 
Q 3016 1369 3016 2328 
Q 3016 3291 2770 3770 
Q 2525 4250 2034 4250 
z
M 2034 4750 
Q 2819 4750 3233 4129 
Q 3647 3509 3647 2328 
Q 3647 1150 3233 529 
Q 2819 -91 2034 -91 
Q 1250 -91 836 529 
Q 422 1150 422 2328 
Q 422 3509 836 4129 
Q 1250 4750 2034 4750 
z
" transform="scale(0.015625)"/>
       </defs>
       <use xlink:href="#DejaVuSans-30"/>
      </g>
     </g>
    </g>
    <g id="xtick_2">
     <g id="line2d_2">
      <g>
       <use xlink:href="#m93313cb620" x="147.617851" y="307.584" style="stroke: #000000; stroke-width: 0.8"/>
      </g>
     </g>
     <g id="text_2">
      <!-- 5 -->
      <g transform="translate(144.436601 322.182437) scale(0.1 -0.1)">
       <defs>
        <path id="DejaVuSans-35" d="M 691 4666 
L 3169 4666 
L 3169 4134 
L 1269 4134 
L 1269 2991 
Q 1406 3038 1543 3061 
Q 1681 3084 1819 3084 
Q 2600 3084 3056 2656 
Q 3513 2228 3513 1497 
Q 3513 744 3044 326 
Q 2575 -91 1722 -91 
Q 1428 -91 1123 -41 
Q 819 9 494 109 
L 494 744 
Q 775 591 1075 516 
Q 1375 441 1709 441 
Q 2250 441 2565 725 
Q 2881 1009 2881 1497 
Q 2881 1984 2565 2268 
Q 2250 2553 1709 2553 
Q 1456 2553 1204 2497 
Q 953 2441 691 2322 
L 691 4666 
z
" transform="scale(0.015625)"/>
       </defs>
       <use xlink:href="#DejaVuSans-35"/>
      </g>
     </g>
    </g>
    <g id="xtick_3">
     <g id="line2d_3">
      <g>
       <use xlink:href="#m93313cb620" x="221.402975" y="307.584" style="stroke: #000000; stroke-width: 0.8"/>
      </g>
     </g>
     <g id="text_3">
      <!-- 10 -->
      <g transform="translate(215.040475 322.182437) scale(0.1 -0.1)">
       <defs>
        <path id="DejaVuSans-31" d="M 794 531 
L 1825 531 
L 1825 4091 
L 703 3866 
L 703 4441 
L 1819 4666 
L 2450 4666 
L 2450 531 
L 3481 531 
L 3481 0 
L 794 0 
L 794 531 
z
" transform="scale(0.015625)"/>
       </defs>
       <use xlink:href="#DejaVuSans-31"/>
       <use xlink:href="#DejaVuSans-30" x="63.623047"/>
      </g>
     </g>
    </g>
    <g id="xtick_4">
     <g id="line2d_4">
      <g>
       <use xlink:href="#m93313cb620" x="295.188099" y="307.584" style="stroke: #000000; stroke-width: 0.8"/>
      </g>
     </g>
     <g id="text_4">
      <!-- 15 -->
      <g transform="translate(288.825599 322.182437) scale(0.1 -0.1)">
       <use xlink:href="#DejaVuSans-31"/>
       <use xlink:href="#DejaVuSans-35" x="63.623047"/>
      </g>
     </g>
    </g>
    <g id="xtick_5">
     <g id="line2d_5">
      <g>
       <use xlink:href="#m93313cb620" x="368.973223" y="307.584" style="stroke: #000000; stroke-width: 0.8"/>
      </g>
     </g>
     <g id="text_5">
      <!-- 20 -->
      <g transform="translate(362.610723 322.182437) scale(0.1 -0.1)">
       <defs>
        <path id="DejaVuSans-32" d="M 1228 531 
L 3431 531 
L 3431 0 
L 469 0 
L 469 531 
Q 828 903 1448 1529 
Q 2069 2156 2228 2338 
Q 2531 2678 2651 2914 
Q 2772 3150 2772 3378 
Q 2772 3750 2511 3984 
Q 2250 4219 1831 4219 
Q 1534 4219 1204 4116 
Q 875 4013 500 3803 
L 500 4441 
Q 881 4594 1212 4672 
Q 1544 4750 1819 4750 
Q 2544 4750 2975 4387 
Q 3406 4025 3406 3419 
Q 3406 3131 3298 2873 
Q 3191 2616 2906 2266 
Q 2828 2175 2409 1742 
Q 1991 1309 1228 531 
z
" transform="scale(0.015625)"/>
       </defs>
       <use xlink:href="#DejaVuSans-32"/>
       <use xlink:href="#DejaVuSans-30" x="63.623047"/>
      </g>
     </g>
    </g>
    <g id="text_6">
     <!-- ranks -->
     <g transform="translate(222.371719 335.860562) scale(0.1 -0.1)">
      <defs>
       <path id="DejaVuSans-72" d="M 2631 2963 
Q 2534 3019 2420 3045 
Q 2306 3072 2169 3072 
Q 1681 3072 1420 2755 
Q 1159 2438 1159 1844 
L 1159 0 
L 581 0 
L 581 3500 
L 1159 3500 
L 1159 2956 
Q 1341 3275 1631 3429 
Q 1922 3584 2338 3584 
Q 2397 3584 2469 3576 
Q 2541 3569 2628 3553 
L 2631 2963 
z
" transform="scale(0.015625)"/>
       <path id="DejaVuSans-61" d="M 2194 1759 
Q 1497 1759 1228 1600 
Q 959 1441 959 1056 
Q 959 750 1161 570 
Q 1363 391 1709 391 
Q 2188 391 2477 730 
Q 2766 1069 2766 1631 
L 2766 1759 
L 2194 1759 
z
M 3341 1997 
L 3341 0 
L 2766 0 
L 2766 531 
Q 2569 213 2275 61 
Q 1981 -91 1556 -91 
Q 1019 -91 701 211 
Q 384 513 384 1019 
Q 384 1609 779 1909 
Q 1175 2209 1959 2209 
L 2766 2209 
L 2766 2266 
Q 2766 2663 2505 2880 
Q 2244 3097 1772 3097 
Q 1472 3097 1187 3025 
Q 903 2953 641 2809 
L 641 3341 
Q 956 3463 1253 3523 
Q 1550 3584 1831 3584 
Q 2591 3584 2966 3190 
Q 3341 2797 3341 1997 
z
" transform="scale(0.015625)"/>
       <path id="DejaVuSans-6e" d="M 3513 2113 
L 3513 0 
L 2938 0 
L 2938 2094 
Q 2938 2591 2744 2837 
Q 2550 3084 2163 3084 
Q 1697 3084 1428 2787 
Q 1159 2491 1159 1978 
L 1159 0 
L 581 0 
L 581 3500 
L 1159 3500 
L 1159 2956 
Q 1366 3272 1645 3428 
Q 1925 3584 2291 3584 
Q 2894 3584 3203 3211 
Q 3513 2838 3513 2113 
z
" transform="scale(0.015625)"/>
       <path id="DejaVuSans-6b" d="M 581 4863 
L 1159 4863 
L 1159 1991 
L 2875 3500 
L 3609 3500 
L 1753 1863 
L 3688 0 
L 2938 0 
L 1159 1709 
L 1159 0 
L 581 0 
L 581 4863 
z
" transform="scale(0.015625)"/>
       <path id="DejaVuSans-73" d="M 2834 3397 
L 2834 2853 
Q 2591 2978 2328 3040 
Q 2066 3103 1784 3103 
Q 1356 3103 1142 2972 
Q 928 2841 928 2578 
Q 928 2378 1081 2264 
Q 1234 2150 1697 2047 
L 1894 2003 
Q 2506 1872 2764 1633 
Q 3022 1394 3022 966 
Q 3022 478 2636 193 
Q 2250 -91 1575 -91 
Q 1294 -91 989 -36 
Q 684 19 347 128 
L 347 722 
Q 666 556 975 473 
Q 1284 391 1588 391 
Q 1994 391 2212 530 
Q 2431 669 2431 922 
Q 2431 1156 2273 1281 
Q 2116 1406 1581 1522 
L 1381 1569 
Q 847 1681 609 1914 
Q 372 2147 372 2553 
Q 372 3047 722 3315 
Q 1072 3584 1716 3584 
Q 2034 3584 2315 3537 
Q 2597 3491 2834 3397 
z
" transform="scale(0.015625)"/>
      </defs>
      <use xlink:href="#DejaVuSans-72"/>
      <use xlink:href="#DejaVuSans-61" x="41.113281"/>
      <use xlink:href="#DejaVuSans-6e" x="102.392578"/>
      <use xlink:href="#DejaVuSans-6b" x="165.771484"/>
      <use xlink:href="#DejaVuSans-73" x="223.681641"/>
     </g>
    </g>
   </g>
   <g id="matplotlib.axis_2">
    <g id="ytick_1">
     <g id="line2d_6">
      <defs>
       <path id="mf1f2e4e8fe" d="M 0 0 
L -3.5 0 
" style="stroke: #000000; stroke-width: 0.8"/>
      </defs>
      <g>
       <use xlink:href="#mf1f2e4e8fe" x="57.6" y="258.04333" style="stroke: #000000; stroke-width: 0.8"/>
      </g>
     </g>
     <g id="text_7">
      <!-- 0.62 -->
      <g transform="translate(28.334375 261.842548) scale(0.1 -0.1)">
       <defs>
        <path id="DejaVuSans-2e" d="M 684 794 
L 1344 794 
L 1344 0 
L 684 0 
L 684 794 
z
" transform="scale(0.015625)"/>
        <path id="DejaVuSans-36" d="M 2113 2584 
Q 1688 2584 1439 2293 
Q 1191 2003 1191 1497 
Q 1191 994 1439 701 
Q 1688 409 2113 409 
Q 2538 409 2786 701 
Q 3034 994 3034 1497 
Q 3034 2003 2786 2293 
Q 2538 2584 2113 2584 
z
M 3366 4563 
L 3366 3988 
Q 3128 4100 2886 4159 
Q 2644 4219 2406 4219 
Q 1781 4219 1451 3797 
Q 1122 3375 1075 2522 
Q 1259 2794 1537 2939 
Q 1816 3084 2150 3084 
Q 2853 3084 3261 2657 
Q 3669 2231 3669 1497 
Q 3669 778 3244 343 
Q 2819 -91 2113 -91 
Q 1303 -91 875 529 
Q 447 1150 447 2328 
Q 447 3434 972 4092 
Q 1497 4750 2381 4750 
Q 2619 4750 2861 4703 
Q 3103 4656 3366 4563 
z
" transform="scale(0.015625)"/>
       </defs>
       <use xlink:href="#DejaVuSans-30"/>
       <use xlink:href="#DejaVuSans-2e" x="63.623047"/>
       <use xlink:href="#DejaVuSans-36" x="95.410156"/>
       <use xlink:href="#DejaVuSans-32" x="159.033203"/>
      </g>
     </g>
    </g>
    <g id="ytick_2">
     <g id="line2d_7">
      <g>
       <use xlink:href="#mf1f2e4e8fe" x="57.6" y="203.907728" style="stroke: #000000; stroke-width: 0.8"/>
      </g>
     </g>
     <g id="text_8">
      <!-- 0.63 -->
      <g transform="translate(28.334375 207.706947) scale(0.1 -0.1)">
       <defs>
        <path id="DejaVuSans-33" d="M 2597 2516 
Q 3050 2419 3304 2112 
Q 3559 1806 3559 1356 
Q 3559 666 3084 287 
Q 2609 -91 1734 -91 
Q 1441 -91 1130 -33 
Q 819 25 488 141 
L 488 750 
Q 750 597 1062 519 
Q 1375 441 1716 441 
Q 2309 441 2620 675 
Q 2931 909 2931 1356 
Q 2931 1769 2642 2001 
Q 2353 2234 1838 2234 
L 1294 2234 
L 1294 2753 
L 1863 2753 
Q 2328 2753 2575 2939 
Q 2822 3125 2822 3475 
Q 2822 3834 2567 4026 
Q 2313 4219 1838 4219 
Q 1578 4219 1281 4162 
Q 984 4106 628 3988 
L 628 4550 
Q 988 4650 1302 4700 
Q 1616 4750 1894 4750 
Q 2613 4750 3031 4423 
Q 3450 4097 3450 3541 
Q 3450 3153 3228 2886 
Q 3006 2619 2597 2516 
z
" transform="scale(0.015625)"/>
       </defs>
       <use xlink:href="#DejaVuSans-30"/>
       <use xlink:href="#DejaVuSans-2e" x="63.623047"/>
       <use xlink:href="#DejaVuSans-36" x="95.410156"/>
       <use xlink:href="#DejaVuSans-33" x="159.033203"/>
      </g>
     </g>
    </g>
    <g id="ytick_3">
     <g id="line2d_8">
      <g>
       <use xlink:href="#mf1f2e4e8fe" x="57.6" y="149.772126" style="stroke: #000000; stroke-width: 0.8"/>
      </g>
     </g>
     <g id="text_9">
      <!-- 0.64 -->
      <g transform="translate(28.334375 153.571345) scale(0.1 -0.1)">
       <defs>
        <path id="DejaVuSans-34" d="M 2419 4116 
L 825 1625 
L 2419 1625 
L 2419 4116 
z
M 2253 4666 
L 3047 4666 
L 3047 1625 
L 3713 1625 
L 3713 1100 
L 3047 1100 
L 3047 0 
L 2419 0 
L 2419 1100 
L 313 1100 
L 313 1709 
L 2253 4666 
z
" transform="scale(0.015625)"/>
       </defs>
       <use xlink:href="#DejaVuSans-30"/>
       <use xlink:href="#DejaVuSans-2e" x="63.623047"/>
       <use xlink:href="#DejaVuSans-36" x="95.410156"/>
       <use xlink:href="#DejaVuSans-34" x="159.033203"/>
      </g>
     </g>
    </g>
    <g id="ytick_4">
     <g id="line2d_9">
      <g>
       <use xlink:href="#mf1f2e4e8fe" x="57.6" y="95.636524" style="stroke: #000000; stroke-width: 0.8"/>
      </g>
     </g>
     <g id="text_10">
      <!-- 0.65 -->
      <g transform="translate(28.334375 99.435743) scale(0.1 -0.1)">
       <use xlink:href="#DejaVuSans-30"/>
       <use xlink:href="#DejaVuSans-2e" x="63.623047"/>
       <use xlink:href="#DejaVuSans-36" x="95.410156"/>
       <use xlink:href="#DejaVuSans-35" x="159.033203"/>
      </g>
     </g>
    </g>
    <g id="ytick_5">
     <g id="line2d_10">
      <g>
       <use xlink:href="#mf1f2e4e8fe" x="57.6" y="41.500922" style="stroke: #000000; stroke-width: 0.8"/>
      </g>
     </g>
     <g id="text_11">
      <!-- 0.66 -->
      <g transform="translate(28.334375 45.300141) scale(0.1 -0.1)">
       <use xlink:href="#DejaVuSans-30"/>
       <use xlink:href="#DejaVuSans-2e" x="63.623047"/>
       <use xlink:href="#DejaVuSans-36" x="95.410156"/>
       <use xlink:href="#DejaVuSans-36" x="159.033203"/>
      </g>
     </g>
    </g>
    <g id="text_12">
     <!-- score -->
     <g transform="translate(22.254688 187.960813) rotate(-90) scale(0.1 -0.1)">
      <defs>
       <path id="DejaVuSans-63" d="M 3122 3366 
L 3122 2828 
Q 2878 2963 2633 3030 
Q 2388 3097 2138 3097 
Q 1578 3097 1268 2742 
Q 959 2388 959 1747 
Q 959 1106 1268 751 
Q 1578 397 2138 397 
Q 2388 397 2633 464 
Q 2878 531 3122 666 
L 3122 134 
Q 2881 22 2623 -34 
Q 2366 -91 2075 -91 
Q 1284 -91 818 406 
Q 353 903 353 1747 
Q 353 2603 823 3093 
Q 1294 3584 2113 3584 
Q 2378 3584 2631 3529 
Q 2884 3475 3122 3366 
z
" transform="scale(0.015625)"/>
       <path id="DejaVuSans-6f" d="M 1959 3097 
Q 1497 3097 1228 2736 
Q 959 2375 959 1747 
Q 959 1119 1226 758 
Q 1494 397 1959 397 
Q 2419 397 2687 759 
Q 2956 1122 2956 1747 
Q 2956 2369 2687 2733 
Q 2419 3097 1959 3097 
z
M 1959 3584 
Q 2709 3584 3137 3096 
Q 3566 2609 3566 1747 
Q 3566 888 3137 398 
Q 2709 -91 1959 -91 
Q 1206 -91 779 398 
Q 353 888 353 1747 
Q 353 2609 779 3096 
Q 1206 3584 1959 3584 
z
" transform="scale(0.015625)"/>
       <path id="DejaVuSans-65" d="M 3597 1894 
L 3597 1613 
L 953 1613 
Q 991 1019 1311 708 
Q 1631 397 2203 397 
Q 2534 397 2845 478 
Q 3156 559 3463 722 
L 3463 178 
Q 3153 47 2828 -22 
Q 2503 -91 2169 -91 
Q 1331 -91 842 396 
Q 353 884 353 1716 
Q 353 2575 817 3079 
Q 1281 3584 2069 3584 
Q 2775 3584 3186 3129 
Q 3597 2675 3597 1894 
z
M 3022 2063 
Q 3016 2534 2758 2815 
Q 2500 3097 2075 3097 
Q 1594 3097 1305 2825 
Q 1016 2553 972 2059 
L 3022 2063 
z
" transform="scale(0.015625)"/>
      </defs>
      <use xlink:href="#DejaVuSans-73"/>
      <use xlink:href="#DejaVuSans-63" x="52.099609"/>
      <use xlink:href="#DejaVuSans-6f" x="107.080078"/>
      <use xlink:href="#DejaVuSans-72" x="168.261719"/>
      <use xlink:href="#DejaVuSans-65" x="207.125"/>
     </g>
    </g>
   </g>
   <g id="line2d_11">
    <path d="M 73.832727 130.952951 
L 77.112066 130.596932 
L 80.391405 130.240913 
L 83.670744 129.884895 
L 86.950083 129.528876 
L 90.229421 129.172857 
L 93.50876 128.816838 
L 96.788099 128.460819 
L 100.067438 128.1048 
L 103.346777 127.748782 
L 106.626116 127.392763 
L 109.905455 127.036744 
L 113.184793 126.680725 
L 116.464132 126.324706 
L 119.743471 125.968687 
L 123.02281 125.612669 
L 126.302149 125.25665 
L 129.581488 124.900631 
L 132.860826 124.544612 
L 136.140165 124.188593 
L 139.419504 123.832574 
L 142.698843 123.476556 
L 145.978182 123.120537 
L 149.257521 122.764518 
L 152.53686 122.408499 
L 155.816198 122.05248 
L 159.095537 121.696461 
L 162.374876 121.340443 
L 165.654215 120.984424 
L 168.933554 120.628405 
L 172.212893 120.272386 
L 175.492231 119.916367 
L 178.77157 119.560348 
L 182.050909 119.20433 
L 185.330248 118.848311 
L 188.609587 118.492292 
L 191.888926 118.136273 
L 195.168264 117.780254 
L 198.447603 117.424235 
L 201.726942 117.068217 
L 205.006281 116.712198 
L 208.28562 116.356179 
L 211.564959 116.00016 
L 214.844298 115.644141 
L 218.123636 115.288123 
L 221.402975 114.932104 
L 224.682314 114.576085 
L 227.961653 114.220066 
L 231.240992 113.864047 
L 234.520331 113.508028 
L 237.799669 113.15201 
L 241.079008 112.795991 
L 244.358347 112.439972 
L 247.637686 112.083953 
L 250.917025 111.727934 
L 254.196364 111.371915 
L 257.475702 111.015897 
L 260.755041 110.659878 
L 264.03438 110.303859 
L 267.313719 109.94784 
L 270.593058 109.591821 
L 273.872397 109.235802 
L 277.151736 108.879784 
L 280.431074 108.523765 
L 283.710413 108.167746 
L 286.989752 107.811727 
L 290.269091 107.455708 
L 293.54843 107.099689 
L 296.827769 106.743671 
L 300.107107 106.387652 
L 303.386446 106.031633 
L 306.665785 105.675614 
L 309.945124 105.319595 
L 313.224463 104.963576 
L 316.503802 104.607558 
L 319.78314 104.251539 
L 323.062479 103.89552 
L 326.341818 103.539501 
L 329.621157 103.183482 
L 332.900496 102.827463 
L 336.179835 102.471445 
L 339.459174 102.115426 
L 342.738512 101.759407 
L 346.017851 101.403388 
L 349.29719 101.047369 
L 352.576529 100.69135 
L 355.855868 100.335332 
L 359.135207 99.979313 
L 362.414545 99.623294 
L 365.693884 99.267275 
L 368.973223 98.911256 
L 372.252562 98.555237 
L 375.531901 98.199219 
L 378.81124 97.8432 
L 382.090579 97.487181 
L 385.369917 97.131162 
L 388.649256 96.775143 
L 391.928595 96.419124 
L 395.207934 96.063106 
L 398.487273 95.707087 
" clip-path="url(#p9fb8796f38)" style="fill: none; stroke: #1f77b4; stroke-width: 2.25; stroke-linecap: square"/>
   </g>
   <g id="patch_3">
    <path d="M 57.6 307.584 
L 57.6 41.472 
" style="fill: none; stroke: #000000; stroke-width: 0.8; stroke-linejoin: miter; stroke-linecap: square"/>
   </g>
   <g id="patch_4">
    <path d="M 414.72 307.584 
L 414.72 41.472 
" style="fill: none; stroke: #000000; stroke-width: 0.8; stroke-linejoin: miter; stroke-linecap: square"/>
   </g>
   <g id="patch_5">
    <path d="M 57.6 307.584 
L 414.72 307.584 
" style="fill: none; stroke: #000000; stroke-width: 0.8; stroke-linejoin: miter; stroke-linecap: square"/>
   </g>
   <g id="patch_6">
    <path d="M 57.6 41.472 
L 414.72 41.472 
" style="fill: none; stroke: #000000; stroke-width: 0.8; stroke-linejoin: miter; stroke-linecap: square"/>
   </g>
   <g id="text_13">
    <!-- Ranks x f-score -->
    <g transform="translate(190.615313 35.472) scale(0.12 -0.12)">
     <defs>
      <path id="DejaVuSans-52" d="M 2841 2188 
Q 3044 2119 3236 1894 
Q 3428 1669 3622 1275 
L 4263 0 
L 3584 0 
L 2988 1197 
Q 2756 1666 2539 1819 
Q 2322 1972 1947 1972 
L 1259 1972 
L 1259 0 
L 628 0 
L 628 4666 
L 2053 4666 
Q 2853 4666 3247 4331 
Q 3641 3997 3641 3322 
Q 3641 2881 3436 2590 
Q 3231 2300 2841 2188 
z
M 1259 4147 
L 1259 2491 
L 2053 2491 
Q 2509 2491 2742 2702 
Q 2975 2913 2975 3322 
Q 2975 3731 2742 3939 
Q 2509 4147 2053 4147 
L 1259 4147 
z
" transform="scale(0.015625)"/>
      <path id="DejaVuSans-20" transform="scale(0.015625)"/>
      <path id="DejaVuSans-78" d="M 3513 3500 
L 2247 1797 
L 3578 0 
L 2900 0 
L 1881 1375 
L 863 0 
L 184 0 
L 1544 1831 
L 300 3500 
L 978 3500 
L 1906 2253 
L 2834 3500 
L 3513 3500 
z
" transform="scale(0.015625)"/>
      <path id="DejaVuSans-66" d="M 2375 4863 
L 2375 4384 
L 1825 4384 
Q 1516 4384 1395 4259 
Q 1275 4134 1275 3809 
L 1275 3500 
L 2222 3500 
L 2222 3053 
L 1275 3053 
L 1275 0 
L 697 0 
L 697 3053 
L 147 3053 
L 147 3500 
L 697 3500 
L 697 3744 
Q 697 4328 969 4595 
Q 1241 4863 1831 4863 
L 2375 4863 
z
" transform="scale(0.015625)"/>
      <path id="DejaVuSans-2d" d="M 313 2009 
L 1997 2009 
L 1997 1497 
L 313 1497 
L 313 2009 
z
" transform="scale(0.015625)"/>
     </defs>
     <use xlink:href="#DejaVuSans-52"/>
     <use xlink:href="#DejaVuSans-61" x="67.232422"/>
     <use xlink:href="#DejaVuSans-6e" x="128.511719"/>
     <use xlink:href="#DejaVuSans-6b" x="191.890625"/>
     <use xlink:href="#DejaVuSans-73" x="249.800781"/>
     <use xlink:href="#DejaVuSans-20" x="301.900391"/>
     <use xlink:href="#DejaVuSans-78" x="333.6875"/>
     <use xlink:href="#DejaVuSans-20" x="392.867188"/>
     <use xlink:href="#DejaVuSans-66" x="424.654297"/>
     <use xlink:href="#DejaVuSans-2d" x="454.359375"/>
     <use xlink:href="#DejaVuSans-73" x="490.443359"/>
     <use xlink:href="#DejaVuSans-63" x="542.542969"/>
     <use xlink:href="#DejaVuSans-6f" x="597.523438"/>
     <use xlink:href="#DejaVuSans-72" x="658.705078"/>
     <use xlink:href="#DejaVuSans-65" x="697.568359"/>
    </g>
   </g>
  </g>
 </g>
 <defs>
  <clipPath id="p9fb8796f38">
   <rect x="57.6" y="41.472" width="357.12" height="266.112"/>
  </clipPath>
 </defs>
</svg>
