<?xml version="1.0" encoding="utf-8" standalone="no"?>
<!DOCTYPE svg PUBLIC "-//W3C//DTD SVG 1.1//EN"
  "http://www.w3.org/Graphics/SVG/1.1/DTD/svg11.dtd">
<svg xmlns:xlink="http://www.w3.org/1999/xlink" width="1440pt" height="720pt" viewBox="0 0 1440 720" xmlns="http://www.w3.org/2000/svg" version="1.1">
 <metadata>
  <rdf:RDF xmlns:dc="http://purl.org/dc/elements/1.1/" xmlns:cc="http://creativecommons.org/ns#" xmlns:rdf="http://www.w3.org/1999/02/22-rdf-syntax-ns#">
   <cc:Work>
    <dc:type rdf:resource="http://purl.org/dc/dcmitype/StillImage"/>
    <dc:date>2024-01-29T23:26:42.109181</dc:date>
    <dc:format>image/svg+xml</dc:format>
    <dc:creator>
     <cc:Agent>
      <dc:title>Matplotlib v3.8.0, https://matplotlib.org/</dc:title>
     </cc:Agent>
    </dc:creator>
   </cc:Work>
  </rdf:RDF>
 </metadata>
 <defs>
  <style type="text/css">*{stroke-linejoin: round; stroke-linecap: butt}</style>
 </defs>
 <g id="figure_1">
  <g id="patch_1">
   <path d="M 0 720 
L 1440 720 
L 1440 0 
L 0 0 
z
" style="fill: #ffffff"/>
  </g>
  <g id="axes_1">
   <g id="patch_2">
    <path d="M 52.55046 119.379477 
C 31.245681 144.769524 20.888612 177.617949 23.777333 210.636177 
C 26.666054 243.654404 42.569844 274.205302 67.959891 295.510081 
L 148.320477 199.740064 
z
" style="fill: #db5f57"/>
   </g>
   <g id="patch_3">
    <path d="M 67.959891 295.510081 
C 83.07266 308.1912 100.974667 317.116811 120.197351 321.554717 
C 139.420034 325.992623 159.422983 325.818059 178.565286 321.045346 
C 197.707589 316.272633 215.451096 307.035947 230.340247 294.093005 
C 245.229397 281.150062 256.84561 264.864731 264.235967 246.572951 
L 148.320477 199.740064 
z
" style="fill: #db578c"/>
   </g>
   <g id="patch_4">
    <path d="M 264.235967 246.572951 
C 274.627506 220.852982 276.168913 192.391696 268.61589 165.699886 
C 261.062867 139.008075 244.836695 115.574508 222.509038 99.113141 
L 148.320477 199.740064 
z
" style="fill: #63db57"/>
   </g>
   <g id="patch_5">
    <path d="M 222.509038 99.113141 
C 203.415866 85.036442 180.704917 76.680441 157.041346 75.025724 
C 133.377776 73.371007 109.724918 78.484938 88.858463 89.76739 
L 148.320477 199.740064 
z
" style="fill: #db9c57"/>
   </g>
   <g id="patch_6">
    <path d="M 88.858463 89.76739 
C 84.250424 92.258948 79.803537 95.037672 75.544108 98.087124 
C 71.28468 101.136575 67.221125 104.450731 63.37748 108.009985 
L 148.320477 199.740064 
z
" style="fill: #7357db"/>
   </g>
   <g id="patch_7">
    <path d="M 63.37748 108.009985 
C 62.416866 108.899524 61.470283 109.804098 60.538083 110.723372 
C 59.605884 111.642646 58.688181 112.576506 57.785317 113.524608 
L 148.320477 199.740064 
z
" style="fill: #57dbc5"/>
   </g>
   <g id="patch_8">
    <path d="M 57.785317 113.524608 
C 56.882452 114.472709 55.994536 115.434935 55.121898 116.410928 
C 54.249259 117.386921 53.392005 118.376562 52.550454 119.379484 
L 148.320477 199.740064 
z
" style="fill: #dbd957"/>
   </g>
   <g id="patch_9">
    <path d="M 148.320477 287.253279 
C 171.529253 287.253279 193.790582 278.032334 210.201665 261.621251 
C 226.612748 245.210169 235.833692 222.94884 235.833692 199.740064 
C 235.833692 176.531288 226.612748 154.269959 210.201665 137.858876 
C 193.790582 121.447793 171.529253 112.226848 148.320477 112.226848 
C 125.111701 112.226848 102.850372 121.447793 86.439289 137.858876 
C 70.028206 154.269959 60.807262 176.531288 60.807262 199.740064 
C 60.807262 222.94884 70.028206 245.210169 86.439289 261.621251 
C 102.850372 278.032334 125.111701 287.253279 148.320477 287.253279 
z
" clip-path="url(#p0c5e9fa084)" style="fill: #ffffff"/>
   </g>
   <g id="matplotlib.axis_1"/>
   <g id="matplotlib.axis_2"/>
   <g id="text_1">
    <!-- BIKES -->
    <g transform="translate(130.898438 56.88) scale(0.12 -0.12)">
     <defs>
      <path id="DejaVuSans-42" d="M 1259 2228 
L 1259 519 
L 2272 519 
Q 2781 519 3026 730 
Q 3272 941 3272 1375 
Q 3272 1813 3026 2020 
Q 2781 2228 2272 2228 
L 1259 2228 
z
M 1259 4147 
L 1259 2741 
L 2194 2741 
Q 2656 2741 2882 2914 
Q 3109 3088 3109 3444 
Q 3109 3797 2882 3972 
Q 2656 4147 2194 4147 
L 1259 4147 
z
M 628 4666 
L 2241 4666 
Q 2963 4666 3353 4366 
Q 3744 4066 3744 3513 
Q 3744 3084 3544 2831 
Q 3344 2578 2956 2516 
Q 3422 2416 3680 2098 
Q 3938 1781 3938 1306 
Q 3938 681 3513 340 
Q 3088 0 2303 0 
L 628 0 
L 628 4666 
z
" transform="scale(0.015625)"/>
      <path id="DejaVuSans-49" d="M 628 4666 
L 1259 4666 
L 1259 0 
L 628 0 
L 628 4666 
z
" transform="scale(0.015625)"/>
      <path id="DejaVuSans-4b" d="M 628 4666 
L 1259 4666 
L 1259 2694 
L 3353 4666 
L 4166 4666 
L 1850 2491 
L 4331 0 
L 3500 0 
L 1259 2247 
L 1259 0 
L 628 0 
L 628 4666 
z
" transform="scale(0.015625)"/>
      <path id="DejaVuSans-45" d="M 628 4666 
L 3578 4666 
L 3578 4134 
L 1259 4134 
L 1259 2753 
L 3481 2753 
L 3481 2222 
L 1259 2222 
L 1259 531 
L 3634 531 
L 3634 0 
L 628 0 
L 628 4666 
z
" transform="scale(0.015625)"/>
      <path id="DejaVuSans-53" d="M 3425 4513 
L 3425 3897 
Q 3066 4069 2747 4153 
Q 2428 4238 2131 4238 
Q 1616 4238 1336 4038 
Q 1056 3838 1056 3469 
Q 1056 3159 1242 3001 
Q 1428 2844 1947 2747 
L 2328 2669 
Q 3034 2534 3370 2195 
Q 3706 1856 3706 1288 
Q 3706 609 3251 259 
Q 2797 -91 1919 -91 
Q 1588 -91 1214 -16 
Q 841 59 441 206 
L 441 856 
Q 825 641 1194 531 
Q 1563 422 1919 422 
Q 2459 422 2753 634 
Q 3047 847 3047 1241 
Q 3047 1584 2836 1778 
Q 2625 1972 2144 2069 
L 1759 2144 
Q 1053 2284 737 2584 
Q 422 2884 422 3419 
Q 422 4038 858 4394 
Q 1294 4750 2059 4750 
Q 2388 4750 2728 4690 
Q 3069 4631 3425 4513 
z
" transform="scale(0.015625)"/>
     </defs>
     <use xlink:href="#DejaVuSans-42"/>
     <use xlink:href="#DejaVuSans-49" x="68.603516"/>
     <use xlink:href="#DejaVuSans-4b" x="98.095703"/>
     <use xlink:href="#DejaVuSans-45" x="163.671875"/>
     <use xlink:href="#DejaVuSans-53" x="226.855469"/>
    </g>
   </g>
  </g>
  <g id="axes_2">
   <g id="patch_10">
    <path d="M 338.390341 119.379805 
C 323.999858 136.529714 314.476804 157.23432 310.820325 179.32132 
C 307.163846 201.40832 309.506454 224.077274 317.602367 244.949782 
C 325.69828 265.822291 339.254098 284.141927 356.847562 297.986617 
C 374.441025 311.831307 395.434541 320.699315 417.625495 323.66022 
L 434.159971 199.740066 
z
" style="fill: #db5f57"/>
   </g>
   <g id="patch_11">
    <path d="M 417.625495 323.66022 
C 439.156495 326.533068 461.069039 323.74544 481.194922 315.573166 
C 501.320804 307.400891 518.973575 294.122709 532.406526 277.052471 
C 545.839477 259.982233 554.59444 239.702166 557.805127 218.218947 
C 561.015814 196.735729 558.572715 174.782101 550.717571 154.530338 
L 434.159971 199.740066 
z
" style="fill: #db9c57"/>
   </g>
   <g id="patch_12">
    <path d="M 550.717571 154.530338 
C 542.621657 133.65783 529.065837 115.338196 511.472372 101.493507 
C 493.878907 87.648818 472.88539 78.780813 450.694436 75.81991 
L 434.159971 199.740066 
z
" style="fill: #63db57"/>
   </g>
   <g id="patch_13">
    <path d="M 450.694436 75.81991 
C 446.800649 75.300368 442.884538 74.964639 438.959138 74.813841 
C 435.033739 74.663043 431.103413 74.697343 427.181244 74.916627 
L 434.159971 199.740066 
z
" style="fill: #7357db"/>
   </g>
   <g id="patch_14">
    <path d="M 427.181244 74.916627 
C 411.449171 75.796188 396.024266 79.642051 381.720743 86.251208 
C 367.41722 92.860365 354.491262 102.114444 343.625175 113.524961 
L 434.159971 199.740066 
z
" style="fill: #db578c"/>
   </g>
   <g id="patch_15">
    <path d="M 343.625175 113.524961 
C 342.722314 114.473059 341.834402 115.43528 340.961767 116.41127 
C 340.089132 117.387259 339.231882 118.376896 338.390334 119.379814 
L 434.159971 199.740066 
z
" style="fill: #57b5db"/>
   </g>
   <g id="patch_16">
    <path d="M 434.159971 287.252927 
C 457.368653 287.252927 479.629892 278.03202 496.040909 261.621003 
C 512.451925 245.209987 521.672832 222.948748 521.672832 199.740066 
C 521.672832 176.531384 512.451925 154.270145 496.040909 137.859128 
C 479.629892 121.448112 457.368653 112.227205 434.159971 112.227205 
C 410.951289 112.227205 388.69005 121.448112 372.279034 137.859128 
C 355.868017 154.270145 346.64711 176.531384 346.64711 199.740066 
C 346.64711 222.948748 355.868017 245.209987 372.279034 261.621003 
C 388.69005 278.03202 410.951289 287.252927 434.159971 287.252927 
z
" clip-path="url(#paa176fe2f8)" style="fill: #ffffff"/>
   </g>
   <g id="matplotlib.axis_3"/>
   <g id="matplotlib.axis_4"/>
   <g id="text_2">
    <!-- SPORTS -->
    <g transform="translate(410.802188 56.88) scale(0.12 -0.12)">
     <defs>
      <path id="DejaVuSans-50" d="M 1259 4147 
L 1259 2394 
L 2053 2394 
Q 2494 2394 2734 2622 
Q 2975 2850 2975 3272 
Q 2975 3691 2734 3919 
Q 2494 4147 2053 4147 
L 1259 4147 
z
M 628 4666 
L 2053 4666 
Q 2838 4666 3239 4311 
Q 3641 3956 3641 3272 
Q 3641 2581 3239 2228 
Q 2838 1875 2053 1875 
L 1259 1875 
L 1259 0 
L 628 0 
L 628 4666 
z
" transform="scale(0.015625)"/>
      <path id="DejaVuSans-4f" d="M 2522 4238 
Q 1834 4238 1429 3725 
Q 1025 3213 1025 2328 
Q 1025 1447 1429 934 
Q 1834 422 2522 422 
Q 3209 422 3611 934 
Q 4013 1447 4013 2328 
Q 4013 3213 3611 3725 
Q 3209 4238 2522 4238 
z
M 2522 4750 
Q 3503 4750 4090 4092 
Q 4678 3434 4678 2328 
Q 4678 1225 4090 567 
Q 3503 -91 2522 -91 
Q 1538 -91 948 565 
Q 359 1222 359 2328 
Q 359 3434 948 4092 
Q 1538 4750 2522 4750 
z
" transform="scale(0.015625)"/>
      <path id="DejaVuSans-52" d="M 2841 2188 
Q 3044 2119 3236 1894 
Q 3428 1669 3622 1275 
L 4263 0 
L 3584 0 
L 2988 1197 
Q 2756 1666 2539 1819 
Q 2322 1972 1947 1972 
L 1259 1972 
L 1259 0 
L 628 0 
L 628 4666 
L 2053 4666 
Q 2853 4666 3247 4331 
Q 3641 3997 3641 3322 
Q 3641 2881 3436 2590 
Q 3231 2300 2841 2188 
z
M 1259 4147 
L 1259 2491 
L 2053 2491 
Q 2509 2491 2742 2702 
Q 2975 2913 2975 3322 
Q 2975 3731 2742 3939 
Q 2509 4147 2053 4147 
L 1259 4147 
z
" transform="scale(0.015625)"/>
      <path id="DejaVuSans-54" d="M -19 4666 
L 3928 4666 
L 3928 4134 
L 2272 4134 
L 2272 0 
L 1638 0 
L 1638 4134 
L -19 4134 
L -19 4666 
z
" transform="scale(0.015625)"/>
     </defs>
     <use xlink:href="#DejaVuSans-53"/>
     <use xlink:href="#DejaVuSans-50" x="63.476562"/>
     <use xlink:href="#DejaVuSans-4f" x="123.779297"/>
     <use xlink:href="#DejaVuSans-52" x="202.490234"/>
     <use xlink:href="#DejaVuSans-54" x="264.722656"/>
     <use xlink:href="#DejaVuSans-53" x="325.806641"/>
    </g>
   </g>
  </g>
  <g id="axes_3">
   <g id="patch_17">
    <path d="M 624.230512 119.379956 
C 604.667373 142.694398 594.275543 172.368807 595.019133 202.794564 
C 595.762723 233.220321 607.591735 262.351664 628.270424 284.682616 
C 648.949114 307.013568 677.08709 321.042645 707.366128 324.118276 
C 737.645165 327.193907 768.029367 319.109295 792.77596 301.392473 
L 719.999998 199.740096 
z
" style="fill: #db5f57"/>
   </g>
   <g id="patch_18">
    <path d="M 792.77596 301.392473 
C 808.816981 289.908228 821.914153 274.788438 830.993069 257.273429 
C 840.071986 239.758421 844.877409 220.340597 845.015135 200.612869 
L 719.999998 199.740096 
z
" style="fill: #db9c57"/>
   </g>
   <g id="patch_19">
    <path d="M 845.015135 200.612869 
C 845.162135 179.556753 839.987104 158.800845 829.97206 140.278412 
C 819.957016 121.755979 805.422867 106.060528 787.723367 94.653981 
L 719.999998 199.740096 
z
" style="fill: #63db57"/>
   </g>
   <g id="patch_20">
    <path d="M 787.723367 94.653981 
C 771.140493 83.967049 752.261077 77.355573 732.633862 75.361915 
C 713.006647 73.368257 693.183417 76.048465 674.790338 83.182672 
L 719.999998 199.740096 
z
" style="fill: #db578c"/>
   </g>
   <g id="patch_21">
    <path d="M 674.790338 83.182672 
C 672.348965 84.129618 669.937945 85.153036 667.560848 86.251409 
C 665.183751 87.349782 662.84175 88.522569 660.538311 89.768034 
L 719.999998 199.740096 
z
" style="fill: #57b5db"/>
   </g>
   <g id="patch_22">
    <path d="M 660.538311 89.768034 
C 657.082798 91.636424 653.717266 93.666643 650.452919 95.851933 
C 647.188573 98.037223 644.029038 100.375157 640.984832 102.857951 
L 719.999998 199.740096 
z
" style="fill: #dbd957"/>
   </g>
   <g id="patch_23">
    <path d="M 640.984832 102.857951 
C 638.955571 104.512976 636.978808 106.23135 635.057471 108.010528 
C 633.136133 109.789707 631.271169 111.628812 629.465338 113.525121 
L 719.999998 199.740096 
z
" style="fill: #a0db57"/>
   </g>
   <g id="patch_24">
    <path d="M 629.465338 113.525121 
C 628.562479 114.473217 627.674568 115.435437 626.801934 116.411425 
C 625.9293 117.387413 625.072051 118.377048 624.230505 119.379965 
L 719.999998 199.740096 
z
" style="fill: #57db87"/>
   </g>
   <g id="patch_25">
    <path d="M 719.999998 287.252825 
C 743.208645 287.252825 765.46985 278.031931 781.880842 261.62094 
C 798.291833 245.209948 807.512727 222.948743 807.512727 199.740096 
C 807.512727 176.531449 798.291833 154.270243 781.880842 137.859252 
C 765.46985 121.44826 743.208645 112.227367 719.999998 112.227367 
C 696.791351 112.227367 674.530145 121.44826 658.119154 137.859252 
C 641.708162 154.270243 632.487269 176.531449 632.487269 199.740096 
C 632.487269 222.948743 641.708162 245.209948 658.119154 261.62094 
C 674.530145 278.031931 696.791351 287.252825 719.999998 287.252825 
z
" clip-path="url(#p61ea3f5dad)" style="fill: #ffffff"/>
   </g>
   <g id="matplotlib.axis_5"/>
   <g id="matplotlib.axis_6"/>
   <g id="text_3">
    <!-- ANIME -->
    <g transform="translate(700.66875 56.88) scale(0.12 -0.12)">
     <defs>
      <path id="DejaVuSans-41" d="M 2188 4044 
L 1331 1722 
L 3047 1722 
L 2188 4044 
z
M 1831 4666 
L 2547 4666 
L 4325 0 
L 3669 0 
L 3244 1197 
L 1141 1197 
L 716 0 
L 50 0 
L 1831 4666 
z
" transform="scale(0.015625)"/>
      <path id="DejaVuSans-4e" d="M 628 4666 
L 1478 4666 
L 3547 763 
L 3547 4666 
L 4159 4666 
L 4159 0 
L 3309 0 
L 1241 3903 
L 1241 0 
L 628 0 
L 628 4666 
z
" transform="scale(0.015625)"/>
      <path id="DejaVuSans-4d" d="M 628 4666 
L 1569 4666 
L 2759 1491 
L 3956 4666 
L 4897 4666 
L 4897 0 
L 4281 0 
L 4281 4097 
L 3078 897 
L 2444 897 
L 1241 4097 
L 1241 0 
L 628 0 
L 628 4666 
z
" transform="scale(0.015625)"/>
     </defs>
     <use xlink:href="#DejaVuSans-41"/>
     <use xlink:href="#DejaVuSans-4e" x="68.408203"/>
     <use xlink:href="#DejaVuSans-49" x="143.212891"/>
     <use xlink:href="#DejaVuSans-4d" x="172.705078"/>
     <use xlink:href="#DejaVuSans-45" x="258.984375"/>
    </g>
   </g>
  </g>
  <g id="axes_4">
   <g id="patch_26">
    <path d="M 910.070506 119.379831 
C 892.239753 140.629695 881.978822 167.22152 880.913954 194.9408 
C 879.849086 222.660081 888.039676 249.960742 904.187607 272.515936 
L 1005.84 199.739978 
z
" style="fill: #db5f57"/>
   </g>
   <g id="patch_27">
    <path d="M 904.187607 272.515936 
C 914.129311 286.402362 926.811854 298.105477 941.450863 306.901482 
C 956.089872 315.697487 972.377203 321.40123 989.305536 323.659954 
C 1006.233869 325.918677 1023.446871 324.684835 1039.879974 320.034737 
C 1056.313077 315.384639 1071.620372 307.416167 1084.855152 296.622146 
L 1005.84 199.739978 
z
" style="fill: #db9c57"/>
   </g>
   <g id="patch_28">
    <path d="M 1084.855152 296.622146 
C 1100.143422 284.153341 1112.265373 268.241008 1120.226601 250.190491 
C 1128.187829 232.139975 1131.764519 212.458732 1130.663262 192.761282 
L 1005.84 199.739978 
z
" style="fill: #63db57"/>
   </g>
   <g id="patch_29">
    <path d="M 1130.663262 192.761282 
C 1129.599031 173.726107 1124.194557 155.184191 1114.86453 138.558275 
C 1105.534503 121.93236 1092.523821 107.658848 1076.830809 96.832961 
C 1061.137796 86.007075 1043.174368 78.912976 1024.318878 76.095002 
C 1005.463388 73.277028 986.210762 74.809147 968.038276 80.573797 
L 1005.84 199.739978 
z
" style="fill: #db578c"/>
   </g>
   <g id="patch_30">
    <path d="M 968.038276 80.573797 
C 966.790345 80.969664 965.548709 81.385109 964.313828 81.819979 
C 963.078948 82.254849 961.850974 82.70909 960.630362 83.182534 
L 1005.84 199.739978 
z
" style="fill: #57b5db"/>
   </g>
   <g id="patch_31">
    <path d="M 960.630362 83.182534 
C 955.74641 85.076894 950.986348 87.27635 946.378333 89.767894 
C 941.770318 92.259438 937.323455 95.038145 933.064049 98.08758 
L 1005.84 199.739978 
z
" style="fill: #7357db"/>
   </g>
   <g id="patch_32">
    <path d="M 933.064049 98.08758 
C 930.934871 99.611921 928.854112 101.202781 926.824849 102.857807 
C 924.795587 104.512832 922.818824 106.231206 920.897486 108.010384 
L 1005.84 199.739978 
z
" style="fill: #57dbc5"/>
   </g>
   <g id="patch_33">
    <path d="M 920.897486 108.010384 
C 919.936876 108.899918 918.990299 109.804487 918.058104 110.723756 
C 917.125909 111.643024 916.208212 112.57688 915.305352 113.524976 
L 1005.84 199.739978 
z
" style="fill: #b057db"/>
   </g>
   <g id="patch_34">
    <path d="M 915.305352 113.524976 
C 914.402492 114.473072 913.514581 115.435292 912.641947 116.41128 
C 911.769313 117.387267 910.912064 118.376903 910.070517 119.379819 
L 1005.84 199.739978 
z
" style="fill: #a0db57"/>
   </g>
   <g id="patch_35">
    <path d="M 1005.84 287.252714 
C 1029.048648 287.252714 1051.309856 278.03182 1067.720849 261.620827 
C 1084.131842 245.209834 1093.352736 222.948626 1093.352736 199.739978 
C 1093.352736 176.531329 1084.131842 154.270121 1067.720849 137.859128 
C 1051.309856 121.448135 1029.048648 112.227241 1005.84 112.227241 
C 982.631351 112.227241 960.370143 121.448135 943.95915 137.859128 
C 927.548157 154.270121 918.327263 176.531329 918.327263 199.739978 
C 918.327263 222.948626 927.548157 245.209834 943.95915 261.620827 
C 960.370143 278.03182 982.631351 287.252714 1005.84 287.252714 
z
" clip-path="url(#p646e5d3b27)" style="fill: #ffffff"/>
   </g>
   <g id="matplotlib.axis_7"/>
   <g id="matplotlib.axis_8"/>
   <g id="text_4">
    <!-- AUTO-MOTO -->
    <g transform="translate(968.339063 56.88) scale(0.12 -0.12)">
     <defs>
      <path id="DejaVuSans-55" d="M 556 4666 
L 1191 4666 
L 1191 1831 
Q 1191 1081 1462 751 
Q 1734 422 2344 422 
Q 2950 422 3222 751 
Q 3494 1081 3494 1831 
L 3494 4666 
L 4128 4666 
L 4128 1753 
Q 4128 841 3676 375 
Q 3225 -91 2344 -91 
Q 1459 -91 1007 375 
Q 556 841 556 1753 
L 556 4666 
z
" transform="scale(0.015625)"/>
      <path id="DejaVuSans-2d" d="M 313 2009 
L 1997 2009 
L 1997 1497 
L 313 1497 
L 313 2009 
z
" transform="scale(0.015625)"/>
     </defs>
     <use xlink:href="#DejaVuSans-41"/>
     <use xlink:href="#DejaVuSans-55" x="68.408203"/>
     <use xlink:href="#DejaVuSans-54" x="141.601562"/>
     <use xlink:href="#DejaVuSans-4f" x="202.685547"/>
     <use xlink:href="#DejaVuSans-2d" x="284.146484"/>
     <use xlink:href="#DejaVuSans-4d" x="320.230469"/>
     <use xlink:href="#DejaVuSans-4f" x="406.509766"/>
     <use xlink:href="#DejaVuSans-54" x="485.220703"/>
     <use xlink:href="#DejaVuSans-4f" x="546.304688"/>
    </g>
   </g>
  </g>
  <g id="axes_5">
   <g id="patch_36">
    <path d="M 1195.910345 119.379852 
C 1182.802538 135.001128 1173.713694 153.594821 1169.439125 173.533902 
C 1165.164557 193.472982 1165.832692 214.15839 1171.385066 233.780062 
C 1176.937439 253.401734 1187.207233 271.370146 1201.295796 286.112984 
C 1215.384358 300.855822 1232.868405 311.930145 1252.218005 318.3669 
L 1291.679903 199.740053 
z
" style="fill: #db5f57"/>
   </g>
   <g id="patch_37">
    <path d="M 1252.218005 318.3669 
C 1270.937644 324.594094 1290.868151 326.302741 1310.374558 323.352674 
C 1329.880966 320.402606 1348.414887 312.87676 1364.45592 301.392507 
C 1380.496954 289.908254 1393.594135 274.788452 1402.673059 257.27343 
C 1411.751982 239.758409 1416.557409 220.34057 1416.695135 200.612827 
L 1291.679903 199.740053 
z
" style="fill: #db578c"/>
   </g>
   <g id="patch_38">
    <path d="M 1416.695135 200.612827 
C 1416.907606 170.178703 1405.999458 140.690155 1386.032387 117.720673 
C 1366.065317 94.75119 1338.381867 79.845192 1308.214355 75.81999 
L 1291.679903 199.740053 
z
" style="fill: #db9c57"/>
   </g>
   <g id="patch_39">
    <path d="M 1308.214355 75.81999 
C 1297.81921 74.432983 1287.290726 74.35948 1276.877229 75.601216 
C 1266.463732 76.842951 1256.24774 79.390085 1246.470209 83.182541 
L 1291.679903 199.740053 
z
" style="fill: #63db57"/>
   </g>
   <g id="patch_40">
    <path d="M 1246.470209 83.182541 
C 1242.80777 84.603108 1239.214319 86.195506 1235.701821 87.954435 
C 1232.189322 89.713364 1228.761678 91.636868 1225.430298 93.718546 
L 1291.679903 199.740053 
z
" style="fill: #57b5db"/>
   </g>
   <g id="patch_41">
    <path d="M 1225.430298 93.718546 
C 1222.098918 95.800224 1218.867503 98.037762 1215.746811 100.423712 
C 1212.626119 102.809662 1209.619616 105.341372 1206.737312 108.010416 
L 1291.679903 199.740053 
z
" style="fill: #7357db"/>
   </g>
   <g id="patch_42">
    <path d="M 1206.737312 108.010416 
C 1205.776701 108.899951 1204.830123 109.804521 1203.897928 110.723791 
C 1202.965733 111.64306 1202.048035 112.576916 1201.145175 113.525013 
L 1291.679903 199.740053 
z
" style="fill: #db57c9"/>
   </g>
   <g id="patch_43">
    <path d="M 1201.145175 113.525013 
C 1200.242315 114.47311 1199.354403 115.435331 1198.481769 116.41132 
C 1197.609134 117.387308 1196.751885 118.376944 1195.910337 119.379861 
L 1291.679903 199.740053 
z
" style="fill: #57dbc5"/>
   </g>
   <g id="patch_44">
    <path d="M 1291.679903 287.252848 
C 1314.888568 287.252848 1337.14979 278.031948 1353.560794 261.620944 
C 1369.971798 245.20994 1379.192698 222.948718 1379.192698 199.740053 
C 1379.192698 176.531388 1369.971798 154.270166 1353.560794 137.859162 
C 1337.14979 121.448158 1314.888568 112.227258 1291.679903 112.227258 
C 1268.471238 112.227258 1246.210016 121.448158 1229.799012 137.859162 
C 1213.388008 154.270166 1204.167108 176.531388 1204.167108 199.740053 
C 1204.167108 222.948718 1213.388008 245.20994 1229.799012 261.620944 
C 1246.210016 278.031948 1268.471238 287.252848 1291.679903 287.252848 
z
" clip-path="url(#p5950acffbe)" style="fill: #ffffff"/>
   </g>
   <g id="matplotlib.axis_9"/>
   <g id="matplotlib.axis_10"/>
   <g id="text_5">
    <!-- NATURE -->
    <g transform="translate(1267.535625 56.88) scale(0.12 -0.12)">
     <use xlink:href="#DejaVuSans-4e"/>
     <use xlink:href="#DejaVuSans-41" x="74.804688"/>
     <use xlink:href="#DejaVuSans-54" x="135.462891"/>
     <use xlink:href="#DejaVuSans-55" x="196.546875"/>
     <use xlink:href="#DejaVuSans-52" x="269.740234"/>
     <use xlink:href="#DejaVuSans-45" x="339.222656"/>
    </g>
   </g>
  </g>
  <g id="axes_6">
   <g id="patch_45">
    <path d="M 52.550413 419.980199 
C 40.295718 434.584776 31.542588 451.800885 26.962659 470.307517 
C 22.382731 488.81415 22.096219 508.125536 26.125109 526.759892 
C 30.153999 545.394248 38.392538 562.862453 50.208576 577.824152 
C 62.024613 592.785852 77.107996 604.848326 94.301361 613.086007 
L 148.32 500.340425 
z
" style="fill: #db5f57"/>
   </g>
   <g id="patch_46">
    <path d="M 94.301361 613.086007 
C 119.317973 625.071961 147.626184 628.397413 174.739462 622.535317 
C 201.852739 616.673221 226.258807 601.950542 244.08958 580.700659 
L 148.32 500.340425 
z
" style="fill: #db578c"/>
   </g>
   <g id="patch_47">
    <path d="M 244.08958 580.700659 
C 256.344276 566.096084 265.097407 548.879975 269.677338 530.373343 
C 274.257268 511.866711 274.543782 492.555325 270.514894 473.920969 
C 266.486005 455.286612 258.247467 437.818407 246.431432 422.856706 
C 234.615396 407.895006 219.532014 395.832531 202.33865 387.594848 
L 148.32 500.340425 
z
" style="fill: #db9c57"/>
   </g>
   <g id="patch_48">
    <path d="M 202.33865 387.594848 
C 185.742959 379.643522 167.594543 375.453627 149.192803 375.325154 
C 130.791063 375.196681 112.585916 379.13277 95.880823 386.851604 
L 148.32 500.340425 
z
" style="fill: #63db57"/>
   </g>
   <g id="patch_49">
    <path d="M 95.880823 386.851604 
C 92.314807 388.499334 88.828433 390.314225 85.433308 392.290234 
C 82.038183 394.266243 78.738079 396.401176 75.543981 398.687925 
L 148.32 500.340425 
z
" style="fill: #57b5db"/>
   </g>
   <g id="patch_50">
    <path d="M 75.543981 398.687925 
C 74.479456 399.450049 73.426969 400.228849 72.386909 401.024034 
C 71.346849 401.81922 70.319344 402.630695 69.304774 403.458157 
L 148.32 500.340425 
z
" style="fill: #57dbc5"/>
   </g>
   <g id="patch_51">
    <path d="M 69.304774 403.458157 
C 68.290205 404.28562 67.288696 405.128968 66.300618 405.987891 
C 65.31254 406.846813 64.338016 407.721204 63.377405 408.610739 
L 148.32 500.340425 
z
" style="fill: #dbd957"/>
   </g>
   <g id="patch_52">
    <path d="M 63.377405 408.610739 
C 62.416794 409.500274 61.470216 410.404844 60.53802 411.324113 
C 59.605824 412.243383 58.688126 413.177239 57.785265 414.125336 
L 148.32 500.340425 
z
" style="fill: #7357db"/>
   </g>
   <g id="patch_53">
    <path d="M 57.785265 414.125336 
C 56.882405 415.073433 55.994492 416.035654 55.121858 417.011643 
C 54.249223 417.987631 53.391973 418.977268 52.550425 419.980185 
L 148.32 500.340425 
z
" style="fill: #57db87"/>
   </g>
   <g id="patch_54">
    <path d="M 148.32 587.853247 
C 171.528672 587.853247 193.789901 578.632344 210.20091 562.221335 
C 226.611919 545.810325 235.832822 523.549096 235.832822 500.340425 
C 235.832822 477.131753 226.611919 454.870524 210.20091 438.459515 
C 193.789901 422.048506 171.528672 412.827603 148.32 412.827603 
C 125.111328 412.827603 102.850099 422.048506 86.43909 438.459515 
C 70.028081 454.870524 60.807178 477.131753 60.807178 500.340425 
C 60.807178 523.549096 70.028081 545.810325 86.43909 562.221335 
C 102.850099 578.632344 125.111328 587.853247 148.32 587.853247 
z
" clip-path="url(#p1c75b3057a)" style="fill: #ffffff"/>
   </g>
   <g id="matplotlib.axis_11"/>
   <g id="matplotlib.axis_12"/>
   <g id="text_6">
    <!-- METAL-DETECTING -->
    <g transform="translate(92.015625 357.48) scale(0.12 -0.12)">
     <defs>
      <path id="DejaVuSans-4c" d="M 628 4666 
L 1259 4666 
L 1259 531 
L 3531 531 
L 3531 0 
L 628 0 
L 628 4666 
z
" transform="scale(0.015625)"/>
      <path id="DejaVuSans-44" d="M 1259 4147 
L 1259 519 
L 2022 519 
Q 2988 519 3436 956 
Q 3884 1394 3884 2338 
Q 3884 3275 3436 3711 
Q 2988 4147 2022 4147 
L 1259 4147 
z
M 628 4666 
L 1925 4666 
Q 3281 4666 3915 4102 
Q 4550 3538 4550 2338 
Q 4550 1131 3912 565 
Q 3275 0 1925 0 
L 628 0 
L 628 4666 
z
" transform="scale(0.015625)"/>
      <path id="DejaVuSans-43" d="M 4122 4306 
L 4122 3641 
Q 3803 3938 3442 4084 
Q 3081 4231 2675 4231 
Q 1875 4231 1450 3742 
Q 1025 3253 1025 2328 
Q 1025 1406 1450 917 
Q 1875 428 2675 428 
Q 3081 428 3442 575 
Q 3803 722 4122 1019 
L 4122 359 
Q 3791 134 3420 21 
Q 3050 -91 2638 -91 
Q 1578 -91 968 557 
Q 359 1206 359 2328 
Q 359 3453 968 4101 
Q 1578 4750 2638 4750 
Q 3056 4750 3426 4639 
Q 3797 4528 4122 4306 
z
" transform="scale(0.015625)"/>
      <path id="DejaVuSans-47" d="M 3809 666 
L 3809 1919 
L 2778 1919 
L 2778 2438 
L 4434 2438 
L 4434 434 
Q 4069 175 3628 42 
Q 3188 -91 2688 -91 
Q 1594 -91 976 548 
Q 359 1188 359 2328 
Q 359 3472 976 4111 
Q 1594 4750 2688 4750 
Q 3144 4750 3555 4637 
Q 3966 4525 4313 4306 
L 4313 3634 
Q 3963 3931 3569 4081 
Q 3175 4231 2741 4231 
Q 1884 4231 1454 3753 
Q 1025 3275 1025 2328 
Q 1025 1384 1454 906 
Q 1884 428 2741 428 
Q 3075 428 3337 486 
Q 3600 544 3809 666 
z
" transform="scale(0.015625)"/>
     </defs>
     <use xlink:href="#DejaVuSans-4d"/>
     <use xlink:href="#DejaVuSans-45" x="86.279297"/>
     <use xlink:href="#DejaVuSans-54" x="149.462891"/>
     <use xlink:href="#DejaVuSans-41" x="202.796875"/>
     <use xlink:href="#DejaVuSans-4c" x="271.205078"/>
     <use xlink:href="#DejaVuSans-2d" x="325.167969"/>
     <use xlink:href="#DejaVuSans-44" x="361.251953"/>
     <use xlink:href="#DejaVuSans-45" x="438.253906"/>
     <use xlink:href="#DejaVuSans-54" x="501.4375"/>
     <use xlink:href="#DejaVuSans-45" x="562.521484"/>
     <use xlink:href="#DejaVuSans-43" x="625.705078"/>
     <use xlink:href="#DejaVuSans-54" x="695.529297"/>
     <use xlink:href="#DejaVuSans-49" x="756.613281"/>
     <use xlink:href="#DejaVuSans-4e" x="786.105469"/>
     <use xlink:href="#DejaVuSans-47" x="860.910156"/>
    </g>
   </g>
  </g>
  <g id="axes_7">
   <g id="patch_55">
    <path d="M 338.390356 419.979838 
C 325.282544 435.60112 316.193696 454.194819 311.919126 474.133907 
C 307.644556 494.072995 308.312692 514.758411 313.865067 534.38009 
C 319.417443 554.001769 329.687241 571.970188 343.775808 586.713031 
C 357.864376 601.455875 375.348429 612.530201 394.698037 618.966959 
L 434.159949 500.340068 
z
" style="fill: #db5f57"/>
   </g>
   <g id="patch_56">
    <path d="M 394.698037 618.966959 
C 414.67819 625.613471 436.017428 627.105655 456.728151 623.304526 
C 477.438874 619.503397 496.857457 610.530753 513.175193 597.222331 
L 434.159949 500.340068 
z
" style="fill: #63db57"/>
   </g>
   <g id="patch_57">
    <path d="M 513.175193 597.222331 
C 529.49293 583.91391 542.18696 566.696148 550.074921 547.17276 
C 557.962882 527.649371 560.792025 506.445936 558.298835 485.537406 
C 555.805644 464.628876 548.070008 444.685214 535.812448 427.564034 
C 523.554887 410.442853 507.168166 396.69276 488.178592 387.594479 
L 434.159949 500.340068 
z
" style="fill: #db578c"/>
   </g>
   <g id="patch_58">
    <path d="M 488.178592 387.594479 
C 467.988719 377.921111 445.566307 373.846267 423.26389 375.797475 
C 400.961473 377.748683 379.587297 385.655229 361.383915 398.68757 
L 434.159949 500.340068 
z
" style="fill: #db9c57"/>
   </g>
   <g id="patch_59">
    <path d="M 361.383915 398.68757 
C 360.31939 399.449694 359.266903 400.228494 358.226843 401.02368 
C 357.186783 401.818866 356.159278 402.63034 355.144708 403.457803 
L 434.159949 500.340068 
z
" style="fill: #b057db"/>
   </g>
   <g id="patch_60">
    <path d="M 355.144708 403.457803 
C 352.100499 405.940599 349.175002 408.565498 346.377954 411.323761 
C 343.580907 414.082023 340.915418 416.970586 338.39036 419.979833 
L 434.159949 500.340068 
z
" style="fill: #7357db"/>
   </g>
   <g id="patch_61">
    <path d="M 434.159949 587.852896 
C 457.368622 587.852896 479.629853 578.631993 496.040863 562.220982 
C 512.451873 545.809972 521.672777 523.548742 521.672777 500.340068 
C 521.672777 477.131395 512.451873 454.870165 496.040863 438.459154 
C 479.629853 422.048144 457.368622 412.827241 434.159949 412.827241 
C 410.951276 412.827241 388.690046 422.048144 372.279035 438.459154 
C 355.868025 454.870165 346.647122 477.131395 346.647122 500.340068 
C 346.647122 523.548742 355.868025 545.809972 372.279035 562.220982 
C 388.690046 578.631993 410.951276 587.852896 434.159949 587.852896 
z
" clip-path="url(#p66ae9e5c6f)" style="fill: #ffffff"/>
   </g>
   <g id="matplotlib.axis_13"/>
   <g id="matplotlib.axis_14"/>
   <g id="text_7">
    <!-- MEDICINE-AESTHETICS -->
    <g transform="translate(365.42625 357.48) scale(0.12 -0.12)">
     <defs>
      <path id="DejaVuSans-48" d="M 628 4666 
L 1259 4666 
L 1259 2753 
L 3553 2753 
L 3553 4666 
L 4184 4666 
L 4184 0 
L 3553 0 
L 3553 2222 
L 1259 2222 
L 1259 0 
L 628 0 
L 628 4666 
z
" transform="scale(0.015625)"/>
     </defs>
     <use xlink:href="#DejaVuSans-4d"/>
     <use xlink:href="#DejaVuSans-45" x="86.279297"/>
     <use xlink:href="#DejaVuSans-44" x="149.462891"/>
     <use xlink:href="#DejaVuSans-49" x="226.464844"/>
     <use xlink:href="#DejaVuSans-43" x="255.957031"/>
     <use xlink:href="#DejaVuSans-49" x="325.78125"/>
     <use xlink:href="#DejaVuSans-4e" x="355.273438"/>
     <use xlink:href="#DejaVuSans-45" x="430.078125"/>
     <use xlink:href="#DejaVuSans-2d" x="493.261719"/>
     <use xlink:href="#DejaVuSans-41" x="527.095703"/>
     <use xlink:href="#DejaVuSans-45" x="595.503906"/>
     <use xlink:href="#DejaVuSans-53" x="658.6875"/>
     <use xlink:href="#DejaVuSans-54" x="722.164062"/>
     <use xlink:href="#DejaVuSans-48" x="783.248047"/>
     <use xlink:href="#DejaVuSans-45" x="858.443359"/>
     <use xlink:href="#DejaVuSans-54" x="921.626953"/>
     <use xlink:href="#DejaVuSans-49" x="982.710938"/>
     <use xlink:href="#DejaVuSans-43" x="1012.203125"/>
     <use xlink:href="#DejaVuSans-53" x="1082.027344"/>
    </g>
   </g>
  </g>
  <g id="axes_8">
   <g id="patch_62">
    <path d="M 624.23053 419.980115 
C 605.534673 442.26097 595.187919 470.382624 594.984865 499.467505 
C 594.781811 528.552387 604.734916 556.815763 623.117861 579.355481 
C 641.500806 601.895199 667.18556 617.328156 695.71722 622.977577 
C 724.248879 628.626998 753.87666 624.146218 779.461758 610.312408 
L 720.000058 500.340291 
z
" style="fill: #db5f57"/>
   </g>
   <g id="patch_63">
    <path d="M 779.461758 610.312408 
C 796.815657 600.92919 811.704573 587.57013 822.907118 571.331116 
C 834.109663 555.092102 841.310898 536.429666 843.92008 516.874749 
L 720.000058 500.340291 
z
" style="fill: #63db57"/>
   </g>
   <g id="patch_64">
    <path d="M 843.92008 516.874749 
C 846.704955 496.003082 844.172136 474.762227 836.557538 455.130622 
C 828.94294 435.499017 816.490554 418.105709 800.360233 404.570763 
L 720.000058 500.340291 
z
" style="fill: #db578c"/>
   </g>
   <g id="patch_65">
    <path d="M 800.360233 404.570763 
C 798.354276 402.887565 796.295931 401.267807 794.188243 399.713885 
C 792.080555 398.159964 789.924565 396.672646 787.723465 395.254134 
L 720.000058 500.340291 
z
" style="fill: #57dbc5"/>
   </g>
   <g id="patch_66">
    <path d="M 787.723465 395.254134 
C 783.320179 392.416409 778.742884 389.858246 774.018658 387.594776 
C 769.294432 385.331306 764.432608 383.367002 759.461946 381.713482 
L 720.000058 500.340291 
z
" style="fill: #7357db"/>
   </g>
   <g id="patch_67">
    <path d="M 759.461946 381.713482 
C 738.218896 374.64686 715.462594 373.414422 693.580604 378.145476 
C 671.698614 382.87653 651.483948 393.399619 635.057502 408.610675 
L 720.000058 500.340291 
z
" style="fill: #db9c57"/>
   </g>
   <g id="patch_68">
    <path d="M 635.057502 408.610675 
C 634.096892 409.500209 633.150314 410.404779 632.218119 411.324048 
C 631.285924 412.243317 630.368226 413.177173 629.465366 414.125269 
L 720.000058 500.340291 
z
" style="fill: #57db87"/>
   </g>
   <g id="patch_69">
    <path d="M 629.465366 414.125269 
C 628.562506 415.073366 627.674595 416.035586 626.801961 417.011575 
C 625.929326 417.987563 625.072077 418.977198 624.23053 419.980115 
L 720.000058 500.340291 
z
" style="fill: #dbd957"/>
   </g>
   <g id="patch_70">
    <path d="M 720.000058 587.853059 
C 743.208715 587.853059 765.469931 578.632161 781.88093 562.221162 
C 798.291929 545.810163 807.512826 523.548948 807.512826 500.340291 
C 807.512826 477.131633 798.291929 454.870418 781.88093 438.459419 
C 765.469931 422.04842 743.208715 412.827523 720.000058 412.827523 
C 696.791401 412.827523 674.530185 422.04842 658.119186 438.459419 
C 641.708187 454.870418 632.48729 477.131633 632.48729 500.340291 
C 632.48729 523.548948 641.708187 545.810163 658.119186 562.221162 
C 674.530185 578.632161 696.791401 587.853059 720.000058 587.853059 
z
" clip-path="url(#p9151d816fd)" style="fill: #ffffff"/>
   </g>
   <g id="matplotlib.axis_15"/>
   <g id="matplotlib.axis_16"/>
   <g id="text_8">
    <!-- CELEBRITIES -->
    <g transform="translate(681.794063 357.48) scale(0.12 -0.12)">
     <use xlink:href="#DejaVuSans-43"/>
     <use xlink:href="#DejaVuSans-45" x="69.824219"/>
     <use xlink:href="#DejaVuSans-4c" x="133.007812"/>
     <use xlink:href="#DejaVuSans-45" x="188.720703"/>
     <use xlink:href="#DejaVuSans-42" x="251.904297"/>
     <use xlink:href="#DejaVuSans-52" x="320.507812"/>
     <use xlink:href="#DejaVuSans-49" x="389.990234"/>
     <use xlink:href="#DejaVuSans-54" x="419.482422"/>
     <use xlink:href="#DejaVuSans-49" x="480.566406"/>
     <use xlink:href="#DejaVuSans-45" x="510.058594"/>
     <use xlink:href="#DejaVuSans-53" x="573.242188"/>
    </g>
   </g>
  </g>
  <g id="axes_9">
   <g id="patch_71">
    <path d="M 910.070486 419.979804 
C 893.102712 440.20121 882.967672 465.286315 881.126299 491.619183 
C 879.284925 517.952052 885.830161 544.203555 899.81853 566.589625 
L 1005.840059 500.340018 
z
" style="fill: #db5f57"/>
   </g>
   <g id="patch_72">
    <path d="M 899.81853 566.589625 
C 909.921398 582.757592 923.590023 596.402381 939.775598 606.477014 
C 955.961174 616.551648 974.238853 622.791681 993.206172 624.718312 
C 1012.173491 626.644942 1031.332587 624.207597 1049.213362 617.593298 
C 1067.094137 610.978999 1083.227251 600.361359 1096.374791 586.555083 
L 1005.840059 500.340018 
z
" style="fill: #db9c57"/>
   </g>
   <g id="patch_73">
    <path d="M 1096.374791 586.555083 
C 1115.504666 566.466737 1127.415075 540.571653 1130.218353 512.973911 
C 1133.021631 485.376168 1126.561421 457.615064 1111.861595 434.090421 
L 1005.840059 500.340018 
z
" style="fill: #db578c"/>
   </g>
   <g id="patch_74">
    <path d="M 1111.861595 434.090421 
C 1109.779917 430.75904 1107.542379 427.527624 1105.15643 424.406931 
C 1102.77048 421.286238 1100.238769 418.279735 1097.569726 415.397429 
L 1005.840059 500.340018 
z
" style="fill: #dbd957"/>
   </g>
   <g id="patch_75">
    <path d="M 1097.569726 415.397429 
C 1085.066522 401.895195 1069.734956 391.318654 1052.672747 384.425073 
C 1035.610538 377.531492 1017.234852 374.489415 998.861359 375.516651 
L 1005.840059 500.340018 
z
" style="fill: #63db57"/>
   </g>
   <g id="patch_76">
    <path d="M 998.861359 375.516651 
C 989.702119 376.028732 980.627004 377.547384 971.800055 380.045158 
C 962.973106 382.542932 954.447833 386.004686 946.378338 390.367845 
L 1005.840059 500.340018 
z
" style="fill: #7357db"/>
   </g>
   <g id="patch_77">
    <path d="M 946.378338 390.367845 
C 945.226688 390.99054 944.084891 391.631286 942.953369 392.289848 
C 941.821847 392.948409 940.70074 393.624704 939.590462 394.318482 
L 1005.840059 500.340018 
z
" style="fill: #57dbc5"/>
   </g>
   <g id="patch_78">
    <path d="M 939.590462 394.318482 
C 936.259081 396.40016 933.027666 398.637698 929.906973 401.023647 
C 926.78628 403.409597 923.779776 405.941308 920.897471 408.610351 
L 1005.840059 500.340018 
z
" style="fill: #b057db"/>
   </g>
   <g id="patch_79">
    <path d="M 920.897471 408.610351 
C 919.93686 409.499886 918.990282 410.404456 918.058086 411.323726 
C 917.125891 412.242995 916.208193 413.176851 915.305332 414.124948 
L 1005.840059 500.340018 
z
" style="fill: #57b5db"/>
   </g>
   <g id="patch_80">
    <path d="M 915.305332 414.124948 
C 914.402471 415.073045 913.514559 416.035266 912.641925 417.011255 
C 911.76929 417.987243 910.91204 418.976879 910.070493 419.979796 
L 1005.840059 500.340018 
z
" style="fill: #5778db"/>
   </g>
   <g id="patch_81">
    <path d="M 1005.840059 587.852827 
C 1029.048728 587.852827 1051.309954 578.631925 1067.72096 562.220919 
C 1084.131967 545.809912 1093.352869 523.548686 1093.352869 500.340018 
C 1093.352869 477.131349 1084.131967 454.870124 1067.72096 438.459117 
C 1051.309954 422.04811 1029.048728 412.827209 1005.840059 412.827209 
C 982.631391 412.827209 960.370165 422.04811 943.959159 438.459117 
C 927.548152 454.870124 918.32725 477.131349 918.32725 500.340018 
C 918.32725 523.548686 927.548152 545.809912 943.959159 562.220919 
C 960.370165 578.631925 982.631391 587.852827 1005.840059 587.852827 
z
" clip-path="url(#p0de989ed02)" style="fill: #ffffff"/>
   </g>
   <g id="matplotlib.axis_17"/>
   <g id="matplotlib.axis_18"/>
   <g id="text_9">
    <!-- SMOKE -->
    <g transform="translate(984.405 357.48) scale(0.12 -0.12)">
     <use xlink:href="#DejaVuSans-53"/>
     <use xlink:href="#DejaVuSans-4d" x="63.476562"/>
     <use xlink:href="#DejaVuSans-4f" x="149.755859"/>
     <use xlink:href="#DejaVuSans-4b" x="228.466797"/>
     <use xlink:href="#DejaVuSans-45" x="294.042969"/>
    </g>
   </g>
  </g>
  <g id="axes_10">
   <g id="patch_82">
    <path d="M 1195.910348 419.979768 
C 1174.605651 445.369717 1164.248622 478.218017 1167.137331 511.236119 
C 1170.026041 544.25422 1185.929771 574.805002 1211.31972 596.109699 
C 1236.70967 617.414396 1269.55797 627.771426 1302.576072 624.882716 
C 1335.594173 621.994006 1366.144955 606.090276 1387.449652 580.700327 
L 1291.68 500.340047 
z
" style="fill: #db5f57"/>
   </g>
   <g id="patch_83">
    <path d="M 1387.449652 580.700327 
C 1401.840138 563.550413 1411.363195 542.845802 1415.019675 520.758797 
C 1418.676155 498.671792 1416.333546 476.002833 1408.237631 455.13032 
L 1291.68 500.340047 
z
" style="fill: #db578c"/>
   </g>
   <g id="patch_84">
    <path d="M 1408.237631 455.13032 
C 1403.96963 444.126758 1398.164874 433.782805 1390.996444 424.406888 
C 1383.828014 415.030971 1375.367873 406.717214 1365.868277 399.713509 
L 1291.68 500.340047 
z
" style="fill: #63db57"/>
   </g>
   <g id="patch_85">
    <path d="M 1365.868277 399.713509 
C 1349.989136 388.006397 1331.56208 380.222505 1312.098744 377.000371 
C 1292.635408 373.778238 1272.682968 375.208448 1253.878191 381.173676 
L 1291.68 500.340047 
z
" style="fill: #db9c57"/>
   </g>
   <g id="patch_86">
    <path d="M 1253.878191 381.173676 
C 1245.134048 383.947482 1236.721711 387.675318 1228.793242 392.289797 
C 1220.864774 396.904277 1213.468235 402.377428 1206.737327 408.610318 
L 1291.68 500.340047 
z
" style="fill: #7357db"/>
   </g>
   <g id="patch_87">
    <path d="M 1206.737327 408.610318 
C 1205.776716 409.499854 1204.830137 410.404425 1203.897941 411.323695 
C 1202.965745 412.242966 1202.048046 413.176823 1201.145185 414.12492 
L 1291.68 500.340047 
z
" style="fill: #dbd957"/>
   </g>
   <g id="patch_88">
    <path d="M 1201.145185 414.12492 
C 1200.242324 415.073018 1199.354411 416.03524 1198.481776 417.01123 
C 1197.609141 417.987219 1196.751891 418.976856 1195.910342 419.979774 
L 1291.68 500.340047 
z
" style="fill: #57db87"/>
   </g>
   <g id="patch_89">
    <path d="M 1291.68 587.852928 
C 1314.888687 587.852928 1337.149931 578.632019 1353.560952 562.220999 
C 1369.971972 545.809979 1379.192881 523.548734 1379.192881 500.340047 
C 1379.192881 477.13136 1369.971972 454.870116 1353.560952 438.459095 
C 1337.149931 422.048075 1314.888687 412.827166 1291.68 412.827166 
C 1268.471313 412.827166 1246.210069 422.048075 1229.799048 438.459095 
C 1213.388028 454.870116 1204.167119 477.13136 1204.167119 500.340047 
C 1204.167119 523.548734 1213.388028 545.809979 1229.799048 562.220999 
C 1246.210069 578.632019 1268.471313 587.852928 1291.68 587.852928 
z
" clip-path="url(#p98acadaee7)" style="fill: #ffffff"/>
   </g>
   <g id="matplotlib.axis_19"/>
   <g id="matplotlib.axis_20"/>
   <g id="text_10">
    <!-- ENTERTAINMENT -->
    <g transform="translate(1241.525625 357.48) scale(0.12 -0.12)">
     <use xlink:href="#DejaVuSans-45"/>
     <use xlink:href="#DejaVuSans-4e" x="63.183594"/>
     <use xlink:href="#DejaVuSans-54" x="137.988281"/>
     <use xlink:href="#DejaVuSans-45" x="199.072266"/>
     <use xlink:href="#DejaVuSans-52" x="262.255859"/>
     <use xlink:href="#DejaVuSans-54" x="324.488281"/>
     <use xlink:href="#DejaVuSans-41" x="377.822266"/>
     <use xlink:href="#DejaVuSans-49" x="446.230469"/>
     <use xlink:href="#DejaVuSans-4e" x="475.722656"/>
     <use xlink:href="#DejaVuSans-4d" x="550.527344"/>
     <use xlink:href="#DejaVuSans-45" x="636.806641"/>
     <use xlink:href="#DejaVuSans-4e" x="699.990234"/>
     <use xlink:href="#DejaVuSans-54" x="774.794922"/>
    </g>
   </g>
  </g>
  <g id="legend_1">
   <g id="patch_90">
    <path d="M 528.661719 715 
L 911.338281 715 
Q 913.338281 715 913.338281 713 
L 913.338281 655.2875 
Q 913.338281 653.2875 911.338281 653.2875 
L 528.661719 653.2875 
Q 526.661719 653.2875 526.661719 655.2875 
L 526.661719 713 
Q 526.661719 715 528.661719 715 
z
" style="fill: #ffffff; opacity: 0.8; stroke: #cccccc; stroke-linejoin: miter"/>
   </g>
   <g id="text_11">
    <!-- Categories -->
    <g transform="translate(693.048437 664.885937) scale(0.1 -0.1)">
     <defs>
      <path id="DejaVuSans-61" d="M 2194 1759 
Q 1497 1759 1228 1600 
Q 959 1441 959 1056 
Q 959 750 1161 570 
Q 1363 391 1709 391 
Q 2188 391 2477 730 
Q 2766 1069 2766 1631 
L 2766 1759 
L 2194 1759 
z
M 3341 1997 
L 3341 0 
L 2766 0 
L 2766 531 
Q 2569 213 2275 61 
Q 1981 -91 1556 -91 
Q 1019 -91 701 211 
Q 384 513 384 1019 
Q 384 1609 779 1909 
Q 1175 2209 1959 2209 
L 2766 2209 
L 2766 2266 
Q 2766 2663 2505 2880 
Q 2244 3097 1772 3097 
Q 1472 3097 1187 3025 
Q 903 2953 641 2809 
L 641 3341 
Q 956 3463 1253 3523 
Q 1550 3584 1831 3584 
Q 2591 3584 2966 3190 
Q 3341 2797 3341 1997 
z
" transform="scale(0.015625)"/>
      <path id="DejaVuSans-74" d="M 1172 4494 
L 1172 3500 
L 2356 3500 
L 2356 3053 
L 1172 3053 
L 1172 1153 
Q 1172 725 1289 603 
Q 1406 481 1766 481 
L 2356 481 
L 2356 0 
L 1766 0 
Q 1100 0 847 248 
Q 594 497 594 1153 
L 594 3053 
L 172 3053 
L 172 3500 
L 594 3500 
L 594 4494 
L 1172 4494 
z
" transform="scale(0.015625)"/>
      <path id="DejaVuSans-65" d="M 3597 1894 
L 3597 1613 
L 953 1613 
Q 991 1019 1311 708 
Q 1631 397 2203 397 
Q 2534 397 2845 478 
Q 3156 559 3463 722 
L 3463 178 
Q 3153 47 2828 -22 
Q 2503 -91 2169 -91 
Q 1331 -91 842 396 
Q 353 884 353 1716 
Q 353 2575 817 3079 
Q 1281 3584 2069 3584 
Q 2775 3584 3186 3129 
Q 3597 2675 3597 1894 
z
M 3022 2063 
Q 3016 2534 2758 2815 
Q 2500 3097 2075 3097 
Q 1594 3097 1305 2825 
Q 1016 2553 972 2059 
L 3022 2063 
z
" transform="scale(0.015625)"/>
      <path id="DejaVuSans-67" d="M 2906 1791 
Q 2906 2416 2648 2759 
Q 2391 3103 1925 3103 
Q 1463 3103 1205 2759 
Q 947 2416 947 1791 
Q 947 1169 1205 825 
Q 1463 481 1925 481 
Q 2391 481 2648 825 
Q 2906 1169 2906 1791 
z
M 3481 434 
Q 3481 -459 3084 -895 
Q 2688 -1331 1869 -1331 
Q 1566 -1331 1297 -1286 
Q 1028 -1241 775 -1147 
L 775 -588 
Q 1028 -725 1275 -790 
Q 1522 -856 1778 -856 
Q 2344 -856 2625 -561 
Q 2906 -266 2906 331 
L 2906 616 
Q 2728 306 2450 153 
Q 2172 0 1784 0 
Q 1141 0 747 490 
Q 353 981 353 1791 
Q 353 2603 747 3093 
Q 1141 3584 1784 3584 
Q 2172 3584 2450 3431 
Q 2728 3278 2906 2969 
L 2906 3500 
L 3481 3500 
L 3481 434 
z
" transform="scale(0.015625)"/>
      <path id="DejaVuSans-6f" d="M 1959 3097 
Q 1497 3097 1228 2736 
Q 959 2375 959 1747 
Q 959 1119 1226 758 
Q 1494 397 1959 397 
Q 2419 397 2687 759 
Q 2956 1122 2956 1747 
Q 2956 2369 2687 2733 
Q 2419 3097 1959 3097 
z
M 1959 3584 
Q 2709 3584 3137 3096 
Q 3566 2609 3566 1747 
Q 3566 888 3137 398 
Q 2709 -91 1959 -91 
Q 1206 -91 779 398 
Q 353 888 353 1747 
Q 353 2609 779 3096 
Q 1206 3584 1959 3584 
z
" transform="scale(0.015625)"/>
      <path id="DejaVuSans-72" d="M 2631 2963 
Q 2534 3019 2420 3045 
Q 2306 3072 2169 3072 
Q 1681 3072 1420 2755 
Q 1159 2438 1159 1844 
L 1159 0 
L 581 0 
L 581 3500 
L 1159 3500 
L 1159 2956 
Q 1341 3275 1631 3429 
Q 1922 3584 2338 3584 
Q 2397 3584 2469 3576 
Q 2541 3569 2628 3553 
L 2631 2963 
z
" transform="scale(0.015625)"/>
      <path id="DejaVuSans-69" d="M 603 3500 
L 1178 3500 
L 1178 0 
L 603 0 
L 603 3500 
z
M 603 4863 
L 1178 4863 
L 1178 4134 
L 603 4134 
L 603 4863 
z
" transform="scale(0.015625)"/>
      <path id="DejaVuSans-73" d="M 2834 3397 
L 2834 2853 
Q 2591 2978 2328 3040 
Q 2066 3103 1784 3103 
Q 1356 3103 1142 2972 
Q 928 2841 928 2578 
Q 928 2378 1081 2264 
Q 1234 2150 1697 2047 
L 1894 2003 
Q 2506 1872 2764 1633 
Q 3022 1394 3022 966 
Q 3022 478 2636 193 
Q 2250 -91 1575 -91 
Q 1294 -91 989 -36 
Q 684 19 347 128 
L 347 722 
Q 666 556 975 473 
Q 1284 391 1588 391 
Q 1994 391 2212 530 
Q 2431 669 2431 922 
Q 2431 1156 2273 1281 
Q 2116 1406 1581 1522 
L 1381 1569 
Q 847 1681 609 1914 
Q 372 2147 372 2553 
Q 372 3047 722 3315 
Q 1072 3584 1716 3584 
Q 2034 3584 2315 3537 
Q 2597 3491 2834 3397 
z
" transform="scale(0.015625)"/>
     </defs>
     <use xlink:href="#DejaVuSans-43"/>
     <use xlink:href="#DejaVuSans-61" x="69.824219"/>
     <use xlink:href="#DejaVuSans-74" x="131.103516"/>
     <use xlink:href="#DejaVuSans-65" x="170.3125"/>
     <use xlink:href="#DejaVuSans-67" x="231.835938"/>
     <use xlink:href="#DejaVuSans-6f" x="295.3125"/>
     <use xlink:href="#DejaVuSans-72" x="356.494141"/>
     <use xlink:href="#DejaVuSans-69" x="397.607422"/>
     <use xlink:href="#DejaVuSans-65" x="425.390625"/>
     <use xlink:href="#DejaVuSans-73" x="486.914062"/>
    </g>
   </g>
   <g id="patch_91">
    <path d="M 530.661719 679.564062 
L 550.661719 679.564062 
L 550.661719 672.564062 
L 530.661719 672.564062 
z
" style="fill: #db5f57; stroke: #db5f57; stroke-linejoin: miter"/>
   </g>
   <g id="text_12">
    <!-- UNKNOW -->
    <g transform="translate(558.661719 679.564062) scale(0.1 -0.1)">
     <defs>
      <path id="DejaVuSans-57" d="M 213 4666 
L 850 4666 
L 1831 722 
L 2809 4666 
L 3519 4666 
L 4500 722 
L 5478 4666 
L 6119 4666 
L 4947 0 
L 4153 0 
L 3169 4050 
L 2175 0 
L 1381 0 
L 213 4666 
z
" transform="scale(0.015625)"/>
     </defs>
     <use xlink:href="#DejaVuSans-55"/>
     <use xlink:href="#DejaVuSans-4e" x="73.193359"/>
     <use xlink:href="#DejaVuSans-4b" x="147.998047"/>
     <use xlink:href="#DejaVuSans-4e" x="213.574219"/>
     <use xlink:href="#DejaVuSans-4f" x="288.378906"/>
     <use xlink:href="#DejaVuSans-57" x="367.089844"/>
    </g>
   </g>
   <g id="patch_92">
    <path d="M 530.661719 694.242188 
L 550.661719 694.242188 
L 550.661719 687.242188 
L 530.661719 687.242188 
z
" style="fill: #db9c57; stroke: #db9c57; stroke-linejoin: miter"/>
   </g>
   <g id="text_13">
    <!-- NOUN -->
    <g transform="translate(558.661719 694.242188) scale(0.1 -0.1)">
     <use xlink:href="#DejaVuSans-4e"/>
     <use xlink:href="#DejaVuSans-4f" x="74.804688"/>
     <use xlink:href="#DejaVuSans-55" x="153.515625"/>
     <use xlink:href="#DejaVuSans-4e" x="226.708984"/>
    </g>
   </g>
   <g id="patch_93">
    <path d="M 530.661719 708.920313 
L 550.661719 708.920313 
L 550.661719 701.920313 
L 530.661719 701.920313 
z
" style="fill: #dbd957; stroke: #dbd957; stroke-linejoin: miter"/>
   </g>
   <g id="text_14">
    <!-- INTJ -->
    <g transform="translate(558.661719 708.920313) scale(0.1 -0.1)">
     <defs>
      <path id="DejaVuSans-4a" d="M 628 4666 
L 1259 4666 
L 1259 325 
Q 1259 -519 939 -900 
Q 619 -1281 -91 -1281 
L -331 -1281 
L -331 -750 
L -134 -750 
Q 284 -750 456 -515 
Q 628 -281 628 325 
L 628 4666 
z
" transform="scale(0.015625)"/>
     </defs>
     <use xlink:href="#DejaVuSans-49"/>
     <use xlink:href="#DejaVuSans-4e" x="29.492188"/>
     <use xlink:href="#DejaVuSans-54" x="104.296875"/>
     <use xlink:href="#DejaVuSans-4a" x="165.380859"/>
    </g>
   </g>
   <g id="patch_94">
    <path d="M 625.260156 679.564062 
L 645.260156 679.564062 
L 645.260156 672.564062 
L 625.260156 672.564062 
z
" style="fill: #a0db57; stroke: #a0db57; stroke-linejoin: miter"/>
   </g>
   <g id="text_15">
    <!-- DET -->
    <g transform="translate(653.260156 679.564062) scale(0.1 -0.1)">
     <use xlink:href="#DejaVuSans-44"/>
     <use xlink:href="#DejaVuSans-45" x="77.001953"/>
     <use xlink:href="#DejaVuSans-54" x="140.185547"/>
    </g>
   </g>
   <g id="patch_95">
    <path d="M 625.260156 694.242188 
L 645.260156 694.242188 
L 645.260156 687.242188 
L 625.260156 687.242188 
z
" style="fill: #63db57; stroke: #63db57; stroke-linejoin: miter"/>
   </g>
   <g id="text_16">
    <!-- ADJ -->
    <g transform="translate(653.260156 694.242188) scale(0.1 -0.1)">
     <use xlink:href="#DejaVuSans-41"/>
     <use xlink:href="#DejaVuSans-44" x="68.408203"/>
     <use xlink:href="#DejaVuSans-4a" x="145.410156"/>
    </g>
   </g>
   <g id="patch_96">
    <path d="M 625.260156 708.920313 
L 645.260156 708.920313 
L 645.260156 701.920313 
L 625.260156 701.920313 
z
" style="fill: #57db87; stroke: #57db87; stroke-linejoin: miter"/>
   </g>
   <g id="text_17">
    <!-- CCONJ -->
    <g transform="translate(653.260156 708.920313) scale(0.1 -0.1)">
     <use xlink:href="#DejaVuSans-43"/>
     <use xlink:href="#DejaVuSans-43" x="69.824219"/>
     <use xlink:href="#DejaVuSans-4f" x="139.648438"/>
     <use xlink:href="#DejaVuSans-4e" x="218.359375"/>
     <use xlink:href="#DejaVuSans-4a" x="293.164062"/>
    </g>
   </g>
   <g id="patch_97">
    <path d="M 705.528906 679.564062 
L 725.528906 679.564062 
L 725.528906 672.564062 
L 705.528906 672.564062 
z
" style="fill: #57dbc5; stroke: #57dbc5; stroke-linejoin: miter"/>
   </g>
   <g id="text_18">
    <!-- PRON -->
    <g transform="translate(733.528906 679.564062) scale(0.1 -0.1)">
     <use xlink:href="#DejaVuSans-50"/>
     <use xlink:href="#DejaVuSans-52" x="60.302734"/>
     <use xlink:href="#DejaVuSans-4f" x="129.785156"/>
     <use xlink:href="#DejaVuSans-4e" x="208.496094"/>
    </g>
   </g>
   <g id="patch_98">
    <path d="M 705.528906 694.242188 
L 725.528906 694.242188 
L 725.528906 687.242188 
L 705.528906 687.242188 
z
" style="fill: #57b5db; stroke: #57b5db; stroke-linejoin: miter"/>
   </g>
   <g id="text_19">
    <!-- AUX -->
    <g transform="translate(733.528906 694.242188) scale(0.1 -0.1)">
     <defs>
      <path id="DejaVuSans-58" d="M 403 4666 
L 1081 4666 
L 2241 2931 
L 3406 4666 
L 4084 4666 
L 2584 2425 
L 4184 0 
L 3506 0 
L 2194 1984 
L 872 0 
L 191 0 
L 1856 2491 
L 403 4666 
z
" transform="scale(0.015625)"/>
     </defs>
     <use xlink:href="#DejaVuSans-41"/>
     <use xlink:href="#DejaVuSans-55" x="68.408203"/>
     <use xlink:href="#DejaVuSans-58" x="141.601562"/>
    </g>
   </g>
   <g id="patch_99">
    <path d="M 705.528906 708.920313 
L 725.528906 708.920313 
L 725.528906 701.920313 
L 705.528906 701.920313 
z
" style="fill: #5778db; stroke: #5778db; stroke-linejoin: miter"/>
   </g>
   <g id="text_20">
    <!-- SCONJ -->
    <g transform="translate(733.528906 708.920313) scale(0.1 -0.1)">
     <use xlink:href="#DejaVuSans-53"/>
     <use xlink:href="#DejaVuSans-43" x="63.476562"/>
     <use xlink:href="#DejaVuSans-4f" x="133.300781"/>
     <use xlink:href="#DejaVuSans-4e" x="212.011719"/>
     <use xlink:href="#DejaVuSans-4a" x="286.816406"/>
    </g>
   </g>
   <g id="patch_100">
    <path d="M 785.163281 679.564062 
L 805.163281 679.564062 
L 805.163281 672.564062 
L 785.163281 672.564062 
z
" style="fill: #7357db; stroke: #7357db; stroke-linejoin: miter"/>
   </g>
   <g id="text_21">
    <!-- ADV -->
    <g transform="translate(813.163281 679.564062) scale(0.1 -0.1)">
     <defs>
      <path id="DejaVuSans-56" d="M 1831 0 
L 50 4666 
L 709 4666 
L 2188 738 
L 3669 4666 
L 4325 4666 
L 2547 0 
L 1831 0 
z
" transform="scale(0.015625)"/>
     </defs>
     <use xlink:href="#DejaVuSans-41"/>
     <use xlink:href="#DejaVuSans-44" x="68.408203"/>
     <use xlink:href="#DejaVuSans-56" x="143.660156"/>
    </g>
   </g>
   <g id="patch_101">
    <path d="M 785.163281 694.242188 
L 805.163281 694.242188 
L 805.163281 687.242188 
L 785.163281 687.242188 
z
" style="fill: #b057db; stroke: #b057db; stroke-linejoin: miter"/>
   </g>
   <g id="text_22">
    <!-- ADP -->
    <g transform="translate(813.163281 694.242188) scale(0.1 -0.1)">
     <use xlink:href="#DejaVuSans-41"/>
     <use xlink:href="#DejaVuSans-44" x="68.408203"/>
     <use xlink:href="#DejaVuSans-50" x="145.410156"/>
    </g>
   </g>
   <g id="patch_102">
    <path d="M 854.369531 679.564062 
L 874.369531 679.564062 
L 874.369531 672.564062 
L 854.369531 672.564062 
z
" style="fill: #db57c9; stroke: #db57c9; stroke-linejoin: miter"/>
   </g>
   <g id="text_23">
    <!-- NUM -->
    <g transform="translate(882.369531 679.564062) scale(0.1 -0.1)">
     <use xlink:href="#DejaVuSans-4e"/>
     <use xlink:href="#DejaVuSans-55" x="74.804688"/>
     <use xlink:href="#DejaVuSans-4d" x="147.998047"/>
    </g>
   </g>
   <g id="patch_103">
    <path d="M 854.369531 694.242188 
L 874.369531 694.242188 
L 874.369531 687.242188 
L 854.369531 687.242188 
z
" style="fill: #db578c; stroke: #db578c; stroke-linejoin: miter"/>
   </g>
   <g id="text_24">
    <!-- VERB -->
    <g transform="translate(882.369531 694.242188) scale(0.1 -0.1)">
     <use xlink:href="#DejaVuSans-56"/>
     <use xlink:href="#DejaVuSans-45" x="68.408203"/>
     <use xlink:href="#DejaVuSans-52" x="131.591797"/>
     <use xlink:href="#DejaVuSans-42" x="201.074219"/>
    </g>
   </g>
  </g>
 </g>
 <defs>
  <clipPath id="p0c5e9fa084">
   <rect x="10.8" y="62.88" width="275.04" height="273.72"/>
  </clipPath>
  <clipPath id="paa176fe2f8">
   <rect x="296.64" y="62.88" width="275.04" height="273.72"/>
  </clipPath>
  <clipPath id="p61ea3f5dad">
   <rect x="582.48" y="62.88" width="275.04" height="273.72"/>
  </clipPath>
  <clipPath id="p646e5d3b27">
   <rect x="868.32" y="62.88" width="275.04" height="273.72"/>
  </clipPath>
  <clipPath id="p5950acffbe">
   <rect x="1154.16" y="62.88" width="275.04" height="273.72"/>
  </clipPath>
  <clipPath id="p1c75b3057a">
   <rect x="10.8" y="363.48" width="275.04" height="273.72"/>
  </clipPath>
  <clipPath id="p66ae9e5c6f">
   <rect x="296.64" y="363.48" width="275.04" height="273.72"/>
  </clipPath>
  <clipPath id="p9151d816fd">
   <rect x="582.48" y="363.48" width="275.04" height="273.72"/>
  </clipPath>
  <clipPath id="p0de989ed02">
   <rect x="868.32" y="363.48" width="275.04" height="273.72"/>
  </clipPath>
  <clipPath id="p98acadaee7">
   <rect x="1154.16" y="363.48" width="275.04" height="273.72"/>
  </clipPath>
 </defs>
</svg>
