<?xml version="1.0" encoding="utf-8" standalone="no"?>
<!DOCTYPE svg PUBLIC "-//W3C//DTD SVG 1.1//EN"
  "http://www.w3.org/Graphics/SVG/1.1/DTD/svg11.dtd">
<svg xmlns:xlink="http://www.w3.org/1999/xlink" width="460.8pt" height="345.6pt" viewBox="0 0 460.8 345.6" xmlns="http://www.w3.org/2000/svg" version="1.1">
 <metadata>
  <rdf:RDF xmlns:dc="http://purl.org/dc/elements/1.1/" xmlns:cc="http://creativecommons.org/ns#" xmlns:rdf="http://www.w3.org/1999/02/22-rdf-syntax-ns#">
   <cc:Work>
    <dc:type rdf:resource="http://purl.org/dc/dcmitype/StillImage"/>
    <dc:date>2024-01-09T11:08:44.982103</dc:date>
    <dc:format>image/svg+xml</dc:format>
    <dc:creator>
     <cc:Agent>
      <dc:title>Matplotlib v3.8.0, https://matplotlib.org/</dc:title>
     </cc:Agent>
    </dc:creator>
   </cc:Work>
  </rdf:RDF>
 </metadata>
 <defs>
  <style type="text/css">*{stroke-linejoin: round; stroke-linecap: butt}</style>
 </defs>
 <g id="figure_1">
  <g id="patch_1">
   <path d="M 0 345.6 
L 460.8 345.6 
L 460.8 0 
L 0 0 
z
" style="fill: #ffffff"/>
  </g>
  <g id="axes_1">
   <g id="patch_2">
    <path d="M 57.6 307.584 
L 414.72 307.584 
L 414.72 41.472 
L 57.6 41.472 
z
" style="fill: #ffffff"/>
   </g>
   <g id="PathCollection_1">
    <defs>
     <path id="m2819bec27e" d="M 0 3 
C 0.795609 3 1.55874 2.683901 2.12132 2.12132 
C 2.683901 1.55874 3 0.795609 3 0 
C 3 -0.795609 2.683901 -1.55874 2.12132 -2.12132 
C 1.55874 -2.683901 0.795609 -3 0 -3 
C -0.795609 -3 -1.55874 -2.683901 -2.12132 -2.12132 
C -2.683901 -1.55874 -3 -0.795609 -3 0 
C -3 0.795609 -2.683901 1.55874 -2.12132 2.12132 
C -1.55874 2.683901 -0.795609 3 0 3 
z
" style="stroke: #ffffff; stroke-width: 0.48"/>
    </defs>
    <g clip-path="url(#pbf6cc9edea)">
     <use xlink:href="#m2819bec27e" x="73.832727" y="66.312544" style="fill: #1f77b4; stroke: #ffffff; stroke-width: 0.48"/>
     <use xlink:href="#m2819bec27e" x="109.905455" y="58.062742" style="fill: #1f77b4; stroke: #ffffff; stroke-width: 0.48"/>
     <use xlink:href="#m2819bec27e" x="145.978182" y="118.814153" style="fill: #1f77b4; stroke: #ffffff; stroke-width: 0.48"/>
     <use xlink:href="#m2819bec27e" x="182.050909" y="295.488" style="fill: #1f77b4; stroke: #ffffff; stroke-width: 0.48"/>
     <use xlink:href="#m2819bec27e" x="218.123636" y="91.904284" style="fill: #1f77b4; stroke: #ffffff; stroke-width: 0.48"/>
     <use xlink:href="#m2819bec27e" x="254.196364" y="133.488643" style="fill: #1f77b4; stroke: #ffffff; stroke-width: 0.48"/>
     <use xlink:href="#m2819bec27e" x="290.269091" y="115.627044" style="fill: #1f77b4; stroke: #ffffff; stroke-width: 0.48"/>
     <use xlink:href="#m2819bec27e" x="326.341818" y="111.227911" style="fill: #1f77b4; stroke: #ffffff; stroke-width: 0.48"/>
     <use xlink:href="#m2819bec27e" x="362.414545" y="145.1632" style="fill: #1f77b4; stroke: #ffffff; stroke-width: 0.48"/>
     <use xlink:href="#m2819bec27e" x="398.487273" y="152.25912" style="fill: #1f77b4; stroke: #ffffff; stroke-width: 0.48"/>
    </g>
   </g>
   <g id="PathCollection_2">
    <defs>
     <path id="mc920969dcc" d="M 0 3 
C 0.795609 3 1.55874 2.683901 2.12132 2.12132 
C 2.683901 1.55874 3 0.795609 3 0 
C 3 -0.795609 2.683901 -1.55874 2.12132 -2.12132 
C 1.55874 -2.683901 0.795609 -3 0 -3 
C -0.795609 -3 -1.55874 -2.683901 -2.12132 -2.12132 
C -2.683901 -1.55874 -3 -0.795609 -3 0 
C -3 0.795609 -2.683901 1.55874 -2.12132 2.12132 
C -1.55874 2.683901 -0.795609 3 0 3 
z
" style="stroke: #1f77b4; stroke-opacity: 0.8"/>
    </defs>
    <g clip-path="url(#pbf6cc9edea)">
     <use xlink:href="#mc920969dcc" x="73.832727" y="66.312544" style="fill: #1f77b4; fill-opacity: 0.8; stroke: #1f77b4; stroke-opacity: 0.8"/>
     <use xlink:href="#mc920969dcc" x="109.905455" y="58.062742" style="fill: #1f77b4; fill-opacity: 0.8; stroke: #1f77b4; stroke-opacity: 0.8"/>
     <use xlink:href="#mc920969dcc" x="145.978182" y="118.814153" style="fill: #1f77b4; fill-opacity: 0.8; stroke: #1f77b4; stroke-opacity: 0.8"/>
     <use xlink:href="#mc920969dcc" x="182.050909" y="295.488" style="fill: #1f77b4; fill-opacity: 0.8; stroke: #1f77b4; stroke-opacity: 0.8"/>
     <use xlink:href="#mc920969dcc" x="218.123636" y="91.904284" style="fill: #1f77b4; fill-opacity: 0.8; stroke: #1f77b4; stroke-opacity: 0.8"/>
     <use xlink:href="#mc920969dcc" x="254.196364" y="133.488643" style="fill: #1f77b4; fill-opacity: 0.8; stroke: #1f77b4; stroke-opacity: 0.8"/>
     <use xlink:href="#mc920969dcc" x="290.269091" y="115.627044" style="fill: #1f77b4; fill-opacity: 0.8; stroke: #1f77b4; stroke-opacity: 0.8"/>
     <use xlink:href="#mc920969dcc" x="326.341818" y="111.227911" style="fill: #1f77b4; fill-opacity: 0.8; stroke: #1f77b4; stroke-opacity: 0.8"/>
     <use xlink:href="#mc920969dcc" x="362.414545" y="145.1632" style="fill: #1f77b4; fill-opacity: 0.8; stroke: #1f77b4; stroke-opacity: 0.8"/>
     <use xlink:href="#mc920969dcc" x="398.487273" y="152.25912" style="fill: #1f77b4; fill-opacity: 0.8; stroke: #1f77b4; stroke-opacity: 0.8"/>
    </g>
   </g>
   <g id="PolyCollection_1">
    <path d="M 73.832727 53.568 
L 73.832727 230.019948 
L 77.112066 228.783642 
L 80.391405 227.547337 
L 83.670744 226.311031 
L 86.950083 225.074726 
L 90.229421 223.83842 
L 93.50876 222.602115 
L 96.788099 221.365809 
L 100.067438 220.129504 
L 103.346777 218.893198 
L 106.626116 217.656893 
L 109.905455 216.420587 
L 113.184793 215.184282 
L 116.464132 213.947976 
L 119.743471 212.711671 
L 123.02281 211.475366 
L 126.302149 210.23906 
L 129.581488 208.977265 
L 132.860826 207.768744 
L 136.140165 206.886667 
L 139.419504 205.995257 
L 142.698843 205.08561 
L 145.978182 203.744532 
L 149.257521 202.602384 
L 152.53686 201.76329 
L 155.816198 200.924196 
L 159.095537 200.085102 
L 162.374876 199.246009 
L 165.654215 198.406915 
L 168.933554 197.567821 
L 172.212893 196.728727 
L 175.492231 195.889634 
L 178.77157 194.596403 
L 182.050909 192.703964 
L 185.330248 191.073258 
L 188.609587 190.092416 
L 191.888926 189.117321 
L 195.168264 188.160305 
L 198.447603 187.838768 
L 201.726942 187.08609 
L 205.006281 185.829988 
L 208.28562 185.075554 
L 211.564959 184.32112 
L 214.844298 183.56354 
L 218.123636 182.783958 
L 221.402975 182.608201 
L 224.682314 181.865618 
L 227.961653 181.10239 
L 231.240992 179.949759 
L 234.520331 179.937085 
L 237.799669 179.043836 
L 241.079008 178.147055 
L 244.358347 177.400266 
L 247.637686 176.843059 
L 250.917025 176.313367 
L 254.196364 175.774099 
L 257.475702 175.277865 
L 260.755041 175.264484 
L 264.03438 174.205791 
L 267.313719 173.634797 
L 270.593058 172.812741 
L 273.872397 172.727762 
L 277.151736 172.834241 
L 280.431074 172.908859 
L 283.710413 173.02256 
L 286.989752 172.987551 
L 290.269091 171.832843 
L 293.54843 172.046506 
L 296.827769 172.501827 
L 300.107107 173.141471 
L 303.386446 173.815913 
L 306.665785 174.304548 
L 309.945124 174.323109 
L 313.224463 174.778429 
L 316.503802 175.361743 
L 319.78314 176.032347 
L 323.062479 176.702951 
L 326.341818 177.261863 
L 329.621157 177.052465 
L 332.900496 177.884368 
L 336.179835 178.325751 
L 339.459174 178.931028 
L 342.738512 179.730677 
L 346.017851 180.23388 
L 349.29719 180.737082 
L 352.576529 181.240284 
L 355.855868 181.743487 
L 359.135207 182.231782 
L 362.414545 182.715486 
L 365.693884 183.58502 
L 368.973223 183.86044 
L 372.252562 184.626675 
L 375.531901 185.527109 
L 378.81124 186.427542 
L 382.090579 187.327976 
L 385.369917 188.220068 
L 388.649256 189.108575 
L 391.928595 189.94869 
L 395.207934 190.724733 
L 398.487273 191.705938 
L 398.487273 108.714579 
L 398.487273 108.714579 
L 395.207934 109.5596 
L 391.928595 110.287982 
L 388.649256 111.304231 
L 385.369917 111.71729 
L 382.090579 112.425167 
L 378.81124 113.142588 
L 375.531901 113.86001 
L 372.252562 114.577431 
L 368.973223 115.294853 
L 365.693884 116.012274 
L 362.414545 117.455708 
L 359.135207 118.732181 
L 355.855868 118.653239 
L 352.576529 119.920878 
L 349.29719 120.315382 
L 346.017851 121.71258 
L 342.738512 121.547157 
L 339.459174 122.262577 
L 336.179835 122.574395 
L 332.900496 122.258076 
L 329.621157 122.02768 
L 326.341818 121.467789 
L 323.062479 121.090546 
L 319.78314 120.538207 
L 316.503802 119.865598 
L 313.224463 119.443927 
L 309.945124 118.831174 
L 306.665785 118.202569 
L 303.386446 117.637142 
L 300.107107 116.956941 
L 296.827769 116.333923 
L 293.54843 115.489529 
L 290.269091 114.89636 
L 286.989752 114.013122 
L 283.710413 113.178978 
L 280.431074 112.308388 
L 277.151736 111.56237 
L 273.872397 110.681961 
L 270.593058 109.747257 
L 267.313719 108.82053 
L 264.03438 107.947909 
L 260.755041 107.075751 
L 257.475702 106.273103 
L 254.196364 105.454356 
L 250.917025 104.68964 
L 247.637686 103.881844 
L 244.358347 103.021845 
L 241.079008 102.178306 
L 237.799669 101.322174 
L 234.520331 100.317618 
L 231.240992 99.31474 
L 227.961653 98.408863 
L 224.682314 97.658845 
L 221.402975 96.671622 
L 218.123636 95.743884 
L 214.844298 94.782401 
L 211.564959 93.823678 
L 208.28562 92.917131 
L 205.006281 92.074006 
L 201.726942 91.267571 
L 198.447603 90.389696 
L 195.168264 89.458614 
L 191.888926 88.451252 
L 188.609587 87.569675 
L 185.330248 86.61876 
L 182.050909 85.634484 
L 178.77157 84.694848 
L 175.492231 83.666603 
L 172.212893 82.699484 
L 168.933554 81.810193 
L 165.654215 80.891355 
L 162.374876 79.925335 
L 159.095537 78.874064 
L 155.816198 77.824438 
L 152.53686 76.747604 
L 149.257521 75.758798 
L 145.978182 74.844342 
L 142.698843 73.930915 
L 139.419504 73.018764 
L 136.140165 72.101823 
L 132.860826 71.181863 
L 129.581488 70.261904 
L 126.302149 69.341944 
L 123.02281 68.421984 
L 119.743471 67.44685 
L 116.464132 66.438144 
L 113.184793 65.429437 
L 109.905455 64.387772 
L 106.626116 63.182073 
L 103.346777 62.256652 
L 100.067438 61.385079 
L 96.788099 60.392537 
L 93.50876 59.378494 
L 90.229421 58.368492 
L 86.950083 57.359786 
L 83.670744 56.379513 
L 80.391405 55.441819 
L 77.112066 54.50491 
L 73.832727 53.568 
z
" clip-path="url(#pbf6cc9edea)" style="fill: #1f77b4; fill-opacity: 0.15"/>
   </g>
   <g id="matplotlib.axis_1">
    <g id="xtick_1">
     <g id="line2d_1">
      <defs>
       <path id="m60989bb605" d="M 0 0 
L 0 3.5 
" style="stroke: #000000; stroke-width: 0.8"/>
      </defs>
      <g>
       <use xlink:href="#m60989bb605" x="73.832727" y="307.584" style="stroke: #000000; stroke-width: 0.8"/>
      </g>
     </g>
     <g id="text_1">
      <!-- 0 -->
      <g transform="translate(70.651477 322.182437) scale(0.1 -0.1)">
       <defs>
        <path id="DejaVuSans-30" d="M 2034 4250 
Q 1547 4250 1301 3770 
Q 1056 3291 1056 2328 
Q 1056 1369 1301 889 
Q 1547 409 2034 409 
Q 2525 409 2770 889 
Q 3016 1369 3016 2328 
Q 3016 3291 2770 3770 
Q 2525 4250 2034 4250 
z
M 2034 4750 
Q 2819 4750 3233 4129 
Q 3647 3509 3647 2328 
Q 3647 1150 3233 529 
Q 2819 -91 2034 -91 
Q 1250 -91 836 529 
Q 422 1150 422 2328 
Q 422 3509 836 4129 
Q 1250 4750 2034 4750 
z
" transform="scale(0.015625)"/>
       </defs>
       <use xlink:href="#DejaVuSans-30"/>
      </g>
     </g>
    </g>
    <g id="xtick_2">
     <g id="line2d_2">
      <g>
       <use xlink:href="#m60989bb605" x="145.978182" y="307.584" style="stroke: #000000; stroke-width: 0.8"/>
      </g>
     </g>
     <g id="text_2">
      <!-- 2 -->
      <g transform="translate(142.796932 322.182437) scale(0.1 -0.1)">
       <defs>
        <path id="DejaVuSans-32" d="M 1228 531 
L 3431 531 
L 3431 0 
L 469 0 
L 469 531 
Q 828 903 1448 1529 
Q 2069 2156 2228 2338 
Q 2531 2678 2651 2914 
Q 2772 3150 2772 3378 
Q 2772 3750 2511 3984 
Q 2250 4219 1831 4219 
Q 1534 4219 1204 4116 
Q 875 4013 500 3803 
L 500 4441 
Q 881 4594 1212 4672 
Q 1544 4750 1819 4750 
Q 2544 4750 2975 4387 
Q 3406 4025 3406 3419 
Q 3406 3131 3298 2873 
Q 3191 2616 2906 2266 
Q 2828 2175 2409 1742 
Q 1991 1309 1228 531 
z
" transform="scale(0.015625)"/>
       </defs>
       <use xlink:href="#DejaVuSans-32"/>
      </g>
     </g>
    </g>
    <g id="xtick_3">
     <g id="line2d_3">
      <g>
       <use xlink:href="#m60989bb605" x="218.123636" y="307.584" style="stroke: #000000; stroke-width: 0.8"/>
      </g>
     </g>
     <g id="text_3">
      <!-- 4 -->
      <g transform="translate(214.942386 322.182437) scale(0.1 -0.1)">
       <defs>
        <path id="DejaVuSans-34" d="M 2419 4116 
L 825 1625 
L 2419 1625 
L 2419 4116 
z
M 2253 4666 
L 3047 4666 
L 3047 1625 
L 3713 1625 
L 3713 1100 
L 3047 1100 
L 3047 0 
L 2419 0 
L 2419 1100 
L 313 1100 
L 313 1709 
L 2253 4666 
z
" transform="scale(0.015625)"/>
       </defs>
       <use xlink:href="#DejaVuSans-34"/>
      </g>
     </g>
    </g>
    <g id="xtick_4">
     <g id="line2d_4">
      <g>
       <use xlink:href="#m60989bb605" x="290.269091" y="307.584" style="stroke: #000000; stroke-width: 0.8"/>
      </g>
     </g>
     <g id="text_4">
      <!-- 6 -->
      <g transform="translate(287.087841 322.182437) scale(0.1 -0.1)">
       <defs>
        <path id="DejaVuSans-36" d="M 2113 2584 
Q 1688 2584 1439 2293 
Q 1191 2003 1191 1497 
Q 1191 994 1439 701 
Q 1688 409 2113 409 
Q 2538 409 2786 701 
Q 3034 994 3034 1497 
Q 3034 2003 2786 2293 
Q 2538 2584 2113 2584 
z
M 3366 4563 
L 3366 3988 
Q 3128 4100 2886 4159 
Q 2644 4219 2406 4219 
Q 1781 4219 1451 3797 
Q 1122 3375 1075 2522 
Q 1259 2794 1537 2939 
Q 1816 3084 2150 3084 
Q 2853 3084 3261 2657 
Q 3669 2231 3669 1497 
Q 3669 778 3244 343 
Q 2819 -91 2113 -91 
Q 1303 -91 875 529 
Q 447 1150 447 2328 
Q 447 3434 972 4092 
Q 1497 4750 2381 4750 
Q 2619 4750 2861 4703 
Q 3103 4656 3366 4563 
z
" transform="scale(0.015625)"/>
       </defs>
       <use xlink:href="#DejaVuSans-36"/>
      </g>
     </g>
    </g>
    <g id="xtick_5">
     <g id="line2d_5">
      <g>
       <use xlink:href="#m60989bb605" x="362.414545" y="307.584" style="stroke: #000000; stroke-width: 0.8"/>
      </g>
     </g>
     <g id="text_5">
      <!-- 8 -->
      <g transform="translate(359.233295 322.182437) scale(0.1 -0.1)">
       <defs>
        <path id="DejaVuSans-38" d="M 2034 2216 
Q 1584 2216 1326 1975 
Q 1069 1734 1069 1313 
Q 1069 891 1326 650 
Q 1584 409 2034 409 
Q 2484 409 2743 651 
Q 3003 894 3003 1313 
Q 3003 1734 2745 1975 
Q 2488 2216 2034 2216 
z
M 1403 2484 
Q 997 2584 770 2862 
Q 544 3141 544 3541 
Q 544 4100 942 4425 
Q 1341 4750 2034 4750 
Q 2731 4750 3128 4425 
Q 3525 4100 3525 3541 
Q 3525 3141 3298 2862 
Q 3072 2584 2669 2484 
Q 3125 2378 3379 2068 
Q 3634 1759 3634 1313 
Q 3634 634 3220 271 
Q 2806 -91 2034 -91 
Q 1263 -91 848 271 
Q 434 634 434 1313 
Q 434 1759 690 2068 
Q 947 2378 1403 2484 
z
M 1172 3481 
Q 1172 3119 1398 2916 
Q 1625 2713 2034 2713 
Q 2441 2713 2670 2916 
Q 2900 3119 2900 3481 
Q 2900 3844 2670 4047 
Q 2441 4250 2034 4250 
Q 1625 4250 1398 4047 
Q 1172 3844 1172 3481 
z
" transform="scale(0.015625)"/>
       </defs>
       <use xlink:href="#DejaVuSans-38"/>
      </g>
     </g>
    </g>
    <g id="text_6">
     <!-- ranks -->
     <g transform="translate(222.371719 335.860562) scale(0.1 -0.1)">
      <defs>
       <path id="DejaVuSans-72" d="M 2631 2963 
Q 2534 3019 2420 3045 
Q 2306 3072 2169 3072 
Q 1681 3072 1420 2755 
Q 1159 2438 1159 1844 
L 1159 0 
L 581 0 
L 581 3500 
L 1159 3500 
L 1159 2956 
Q 1341 3275 1631 3429 
Q 1922 3584 2338 3584 
Q 2397 3584 2469 3576 
Q 2541 3569 2628 3553 
L 2631 2963 
z
" transform="scale(0.015625)"/>
       <path id="DejaVuSans-61" d="M 2194 1759 
Q 1497 1759 1228 1600 
Q 959 1441 959 1056 
Q 959 750 1161 570 
Q 1363 391 1709 391 
Q 2188 391 2477 730 
Q 2766 1069 2766 1631 
L 2766 1759 
L 2194 1759 
z
M 3341 1997 
L 3341 0 
L 2766 0 
L 2766 531 
Q 2569 213 2275 61 
Q 1981 -91 1556 -91 
Q 1019 -91 701 211 
Q 384 513 384 1019 
Q 384 1609 779 1909 
Q 1175 2209 1959 2209 
L 2766 2209 
L 2766 2266 
Q 2766 2663 2505 2880 
Q 2244 3097 1772 3097 
Q 1472 3097 1187 3025 
Q 903 2953 641 2809 
L 641 3341 
Q 956 3463 1253 3523 
Q 1550 3584 1831 3584 
Q 2591 3584 2966 3190 
Q 3341 2797 3341 1997 
z
" transform="scale(0.015625)"/>
       <path id="DejaVuSans-6e" d="M 3513 2113 
L 3513 0 
L 2938 0 
L 2938 2094 
Q 2938 2591 2744 2837 
Q 2550 3084 2163 3084 
Q 1697 3084 1428 2787 
Q 1159 2491 1159 1978 
L 1159 0 
L 581 0 
L 581 3500 
L 1159 3500 
L 1159 2956 
Q 1366 3272 1645 3428 
Q 1925 3584 2291 3584 
Q 2894 3584 3203 3211 
Q 3513 2838 3513 2113 
z
" transform="scale(0.015625)"/>
       <path id="DejaVuSans-6b" d="M 581 4863 
L 1159 4863 
L 1159 1991 
L 2875 3500 
L 3609 3500 
L 1753 1863 
L 3688 0 
L 2938 0 
L 1159 1709 
L 1159 0 
L 581 0 
L 581 4863 
z
" transform="scale(0.015625)"/>
       <path id="DejaVuSans-73" d="M 2834 3397 
L 2834 2853 
Q 2591 2978 2328 3040 
Q 2066 3103 1784 3103 
Q 1356 3103 1142 2972 
Q 928 2841 928 2578 
Q 928 2378 1081 2264 
Q 1234 2150 1697 2047 
L 1894 2003 
Q 2506 1872 2764 1633 
Q 3022 1394 3022 966 
Q 3022 478 2636 193 
Q 2250 -91 1575 -91 
Q 1294 -91 989 -36 
Q 684 19 347 128 
L 347 722 
Q 666 556 975 473 
Q 1284 391 1588 391 
Q 1994 391 2212 530 
Q 2431 669 2431 922 
Q 2431 1156 2273 1281 
Q 2116 1406 1581 1522 
L 1381 1569 
Q 847 1681 609 1914 
Q 372 2147 372 2553 
Q 372 3047 722 3315 
Q 1072 3584 1716 3584 
Q 2034 3584 2315 3537 
Q 2597 3491 2834 3397 
z
" transform="scale(0.015625)"/>
      </defs>
      <use xlink:href="#DejaVuSans-72"/>
      <use xlink:href="#DejaVuSans-61" x="41.113281"/>
      <use xlink:href="#DejaVuSans-6e" x="102.392578"/>
      <use xlink:href="#DejaVuSans-6b" x="165.771484"/>
      <use xlink:href="#DejaVuSans-73" x="223.681641"/>
     </g>
    </g>
   </g>
   <g id="matplotlib.axis_2">
    <g id="ytick_1">
     <g id="line2d_6">
      <defs>
       <path id="m687844888e" d="M 0 0 
L -3.5 0 
" style="stroke: #000000; stroke-width: 0.8"/>
      </defs>
      <g>
       <use xlink:href="#m687844888e" x="57.6" y="257.967253" style="stroke: #000000; stroke-width: 0.8"/>
      </g>
     </g>
     <g id="text_7">
      <!-- 0.62 -->
      <g transform="translate(28.334375 261.766472) scale(0.1 -0.1)">
       <defs>
        <path id="DejaVuSans-2e" d="M 684 794 
L 1344 794 
L 1344 0 
L 684 0 
L 684 794 
z
" transform="scale(0.015625)"/>
       </defs>
       <use xlink:href="#DejaVuSans-30"/>
       <use xlink:href="#DejaVuSans-2e" x="63.623047"/>
       <use xlink:href="#DejaVuSans-36" x="95.410156"/>
       <use xlink:href="#DejaVuSans-32" x="159.033203"/>
      </g>
     </g>
    </g>
    <g id="ytick_2">
     <g id="line2d_7">
      <g>
       <use xlink:href="#m687844888e" x="57.6" y="203.721664" style="stroke: #000000; stroke-width: 0.8"/>
      </g>
     </g>
     <g id="text_8">
      <!-- 0.63 -->
      <g transform="translate(28.334375 207.520883) scale(0.1 -0.1)">
       <defs>
        <path id="DejaVuSans-33" d="M 2597 2516 
Q 3050 2419 3304 2112 
Q 3559 1806 3559 1356 
Q 3559 666 3084 287 
Q 2609 -91 1734 -91 
Q 1441 -91 1130 -33 
Q 819 25 488 141 
L 488 750 
Q 750 597 1062 519 
Q 1375 441 1716 441 
Q 2309 441 2620 675 
Q 2931 909 2931 1356 
Q 2931 1769 2642 2001 
Q 2353 2234 1838 2234 
L 1294 2234 
L 1294 2753 
L 1863 2753 
Q 2328 2753 2575 2939 
Q 2822 3125 2822 3475 
Q 2822 3834 2567 4026 
Q 2313 4219 1838 4219 
Q 1578 4219 1281 4162 
Q 984 4106 628 3988 
L 628 4550 
Q 988 4650 1302 4700 
Q 1616 4750 1894 4750 
Q 2613 4750 3031 4423 
Q 3450 4097 3450 3541 
Q 3450 3153 3228 2886 
Q 3006 2619 2597 2516 
z
" transform="scale(0.015625)"/>
       </defs>
       <use xlink:href="#DejaVuSans-30"/>
       <use xlink:href="#DejaVuSans-2e" x="63.623047"/>
       <use xlink:href="#DejaVuSans-36" x="95.410156"/>
       <use xlink:href="#DejaVuSans-33" x="159.033203"/>
      </g>
     </g>
    </g>
    <g id="ytick_3">
     <g id="line2d_8">
      <g>
       <use xlink:href="#m687844888e" x="57.6" y="149.476075" style="stroke: #000000; stroke-width: 0.8"/>
      </g>
     </g>
     <g id="text_9">
      <!-- 0.64 -->
      <g transform="translate(28.334375 153.275293) scale(0.1 -0.1)">
       <use xlink:href="#DejaVuSans-30"/>
       <use xlink:href="#DejaVuSans-2e" x="63.623047"/>
       <use xlink:href="#DejaVuSans-36" x="95.410156"/>
       <use xlink:href="#DejaVuSans-34" x="159.033203"/>
      </g>
     </g>
    </g>
    <g id="ytick_4">
     <g id="line2d_9">
      <g>
       <use xlink:href="#m687844888e" x="57.6" y="95.230485" style="stroke: #000000; stroke-width: 0.8"/>
      </g>
     </g>
     <g id="text_10">
      <!-- 0.65 -->
      <g transform="translate(28.334375 99.029704) scale(0.1 -0.1)">
       <defs>
        <path id="DejaVuSans-35" d="M 691 4666 
L 3169 4666 
L 3169 4134 
L 1269 4134 
L 1269 2991 
Q 1406 3038 1543 3061 
Q 1681 3084 1819 3084 
Q 2600 3084 3056 2656 
Q 3513 2228 3513 1497 
Q 3513 744 3044 326 
Q 2575 -91 1722 -91 
Q 1428 -91 1123 -41 
Q 819 9 494 109 
L 494 744 
Q 775 591 1075 516 
Q 1375 441 1709 441 
Q 2250 441 2565 725 
Q 2881 1009 2881 1497 
Q 2881 1984 2565 2268 
Q 2250 2553 1709 2553 
Q 1456 2553 1204 2497 
Q 953 2441 691 2322 
L 691 4666 
z
" transform="scale(0.015625)"/>
       </defs>
       <use xlink:href="#DejaVuSans-30"/>
       <use xlink:href="#DejaVuSans-2e" x="63.623047"/>
       <use xlink:href="#DejaVuSans-36" x="95.410156"/>
       <use xlink:href="#DejaVuSans-35" x="159.033203"/>
      </g>
     </g>
    </g>
    <g id="text_11">
     <!-- score -->
     <g transform="translate(22.254688 187.960813) rotate(-90) scale(0.1 -0.1)">
      <defs>
       <path id="DejaVuSans-63" d="M 3122 3366 
L 3122 2828 
Q 2878 2963 2633 3030 
Q 2388 3097 2138 3097 
Q 1578 3097 1268 2742 
Q 959 2388 959 1747 
Q 959 1106 1268 751 
Q 1578 397 2138 397 
Q 2388 397 2633 464 
Q 2878 531 3122 666 
L 3122 134 
Q 2881 22 2623 -34 
Q 2366 -91 2075 -91 
Q 1284 -91 818 406 
Q 353 903 353 1747 
Q 353 2603 823 3093 
Q 1294 3584 2113 3584 
Q 2378 3584 2631 3529 
Q 2884 3475 3122 3366 
z
" transform="scale(0.015625)"/>
       <path id="DejaVuSans-6f" d="M 1959 3097 
Q 1497 3097 1228 2736 
Q 959 2375 959 1747 
Q 959 1119 1226 758 
Q 1494 397 1959 397 
Q 2419 397 2687 759 
Q 2956 1122 2956 1747 
Q 2956 2369 2687 2733 
Q 2419 3097 1959 3097 
z
M 1959 3584 
Q 2709 3584 3137 3096 
Q 3566 2609 3566 1747 
Q 3566 888 3137 398 
Q 2709 -91 1959 -91 
Q 1206 -91 779 398 
Q 353 888 353 1747 
Q 353 2609 779 3096 
Q 1206 3584 1959 3584 
z
" transform="scale(0.015625)"/>
       <path id="DejaVuSans-65" d="M 3597 1894 
L 3597 1613 
L 953 1613 
Q 991 1019 1311 708 
Q 1631 397 2203 397 
Q 2534 397 2845 478 
Q 3156 559 3463 722 
L 3463 178 
Q 3153 47 2828 -22 
Q 2503 -91 2169 -91 
Q 1331 -91 842 396 
Q 353 884 353 1716 
Q 353 2575 817 3079 
Q 1281 3584 2069 3584 
Q 2775 3584 3186 3129 
Q 3597 2675 3597 1894 
z
M 3022 2063 
Q 3016 2534 2758 2815 
Q 2500 3097 2075 3097 
Q 1594 3097 1305 2825 
Q 1016 2553 972 2059 
L 3022 2063 
z
" transform="scale(0.015625)"/>
      </defs>
      <use xlink:href="#DejaVuSans-73"/>
      <use xlink:href="#DejaVuSans-63" x="52.099609"/>
      <use xlink:href="#DejaVuSans-6f" x="107.080078"/>
      <use xlink:href="#DejaVuSans-72" x="168.261719"/>
      <use xlink:href="#DejaVuSans-65" x="207.125"/>
     </g>
    </g>
   </g>
   <g id="line2d_10">
    <path d="M 73.832727 105.726782 
L 77.112066 106.19361 
L 80.391405 106.660438 
L 83.670744 107.127266 
L 86.950083 107.594094 
L 90.229421 108.060922 
L 93.50876 108.52775 
L 96.788099 108.994578 
L 100.067438 109.461406 
L 103.346777 109.928233 
L 106.626116 110.395061 
L 109.905455 110.861889 
L 113.184793 111.328717 
L 116.464132 111.795545 
L 119.743471 112.262373 
L 123.02281 112.729201 
L 126.302149 113.196029 
L 129.581488 113.662857 
L 132.860826 114.129685 
L 136.140165 114.596513 
L 139.419504 115.063341 
L 142.698843 115.530168 
L 145.978182 115.996996 
L 149.257521 116.463824 
L 152.53686 116.930652 
L 155.816198 117.39748 
L 159.095537 117.864308 
L 162.374876 118.331136 
L 165.654215 118.797964 
L 168.933554 119.264792 
L 172.212893 119.73162 
L 175.492231 120.198448 
L 178.77157 120.665275 
L 182.050909 121.132103 
L 185.330248 121.598931 
L 188.609587 122.065759 
L 191.888926 122.532587 
L 195.168264 122.999415 
L 198.447603 123.466243 
L 201.726942 123.933071 
L 205.006281 124.399899 
L 208.28562 124.866727 
L 211.564959 125.333555 
L 214.844298 125.800383 
L 218.123636 126.26721 
L 221.402975 126.734038 
L 224.682314 127.200866 
L 227.961653 127.667694 
L 231.240992 128.134522 
L 234.520331 128.60135 
L 237.799669 129.068178 
L 241.079008 129.535006 
L 244.358347 130.001834 
L 247.637686 130.468662 
L 250.917025 130.93549 
L 254.196364 131.402318 
L 257.475702 131.869145 
L 260.755041 132.335973 
L 264.03438 132.802801 
L 267.313719 133.269629 
L 270.593058 133.736457 
L 273.872397 134.203285 
L 277.151736 134.670113 
L 280.431074 135.136941 
L 283.710413 135.603769 
L 286.989752 136.070597 
L 290.269091 136.537425 
L 293.54843 137.004253 
L 296.827769 137.47108 
L 300.107107 137.937908 
L 303.386446 138.404736 
L 306.665785 138.871564 
L 309.945124 139.338392 
L 313.224463 139.80522 
L 316.503802 140.272048 
L 319.78314 140.738876 
L 323.062479 141.205704 
L 326.341818 141.672532 
L 329.621157 142.13936 
L 332.900496 142.606188 
L 336.179835 143.073015 
L 339.459174 143.539843 
L 342.738512 144.006671 
L 346.017851 144.473499 
L 349.29719 144.940327 
L 352.576529 145.407155 
L 355.855868 145.873983 
L 359.135207 146.340811 
L 362.414545 146.807639 
L 365.693884 147.274467 
L 368.973223 147.741295 
L 372.252562 148.208123 
L 375.531901 148.67495 
L 378.81124 149.141778 
L 382.090579 149.608606 
L 385.369917 150.075434 
L 388.649256 150.542262 
L 391.928595 151.00909 
L 395.207934 151.475918 
L 398.487273 151.942746 
" clip-path="url(#pbf6cc9edea)" style="fill: none; stroke: #1f77b4; stroke-width: 2.25; stroke-linecap: square"/>
   </g>
   <g id="patch_3">
    <path d="M 57.6 307.584 
L 57.6 41.472 
" style="fill: none; stroke: #000000; stroke-width: 0.8; stroke-linejoin: miter; stroke-linecap: square"/>
   </g>
   <g id="patch_4">
    <path d="M 414.72 307.584 
L 414.72 41.472 
" style="fill: none; stroke: #000000; stroke-width: 0.8; stroke-linejoin: miter; stroke-linecap: square"/>
   </g>
   <g id="patch_5">
    <path d="M 57.6 307.584 
L 414.72 307.584 
" style="fill: none; stroke: #000000; stroke-width: 0.8; stroke-linejoin: miter; stroke-linecap: square"/>
   </g>
   <g id="patch_6">
    <path d="M 57.6 41.472 
L 414.72 41.472 
" style="fill: none; stroke: #000000; stroke-width: 0.8; stroke-linejoin: miter; stroke-linecap: square"/>
   </g>
   <g id="text_12">
    <!-- Ranks x f-score -->
    <g transform="translate(190.615313 35.472) scale(0.12 -0.12)">
     <defs>
      <path id="DejaVuSans-52" d="M 2841 2188 
Q 3044 2119 3236 1894 
Q 3428 1669 3622 1275 
L 4263 0 
L 3584 0 
L 2988 1197 
Q 2756 1666 2539 1819 
Q 2322 1972 1947 1972 
L 1259 1972 
L 1259 0 
L 628 0 
L 628 4666 
L 2053 4666 
Q 2853 4666 3247 4331 
Q 3641 3997 3641 3322 
Q 3641 2881 3436 2590 
Q 3231 2300 2841 2188 
z
M 1259 4147 
L 1259 2491 
L 2053 2491 
Q 2509 2491 2742 2702 
Q 2975 2913 2975 3322 
Q 2975 3731 2742 3939 
Q 2509 4147 2053 4147 
L 1259 4147 
z
" transform="scale(0.015625)"/>
      <path id="DejaVuSans-20" transform="scale(0.015625)"/>
      <path id="DejaVuSans-78" d="M 3513 3500 
L 2247 1797 
L 3578 0 
L 2900 0 
L 1881 1375 
L 863 0 
L 184 0 
L 1544 1831 
L 300 3500 
L 978 3500 
L 1906 2253 
L 2834 3500 
L 3513 3500 
z
" transform="scale(0.015625)"/>
      <path id="DejaVuSans-66" d="M 2375 4863 
L 2375 4384 
L 1825 4384 
Q 1516 4384 1395 4259 
Q 1275 4134 1275 3809 
L 1275 3500 
L 2222 3500 
L 2222 3053 
L 1275 3053 
L 1275 0 
L 697 0 
L 697 3053 
L 147 3053 
L 147 3500 
L 697 3500 
L 697 3744 
Q 697 4328 969 4595 
Q 1241 4863 1831 4863 
L 2375 4863 
z
" transform="scale(0.015625)"/>
      <path id="DejaVuSans-2d" d="M 313 2009 
L 1997 2009 
L 1997 1497 
L 313 1497 
L 313 2009 
z
" transform="scale(0.015625)"/>
     </defs>
     <use xlink:href="#DejaVuSans-52"/>
     <use xlink:href="#DejaVuSans-61" x="67.232422"/>
     <use xlink:href="#DejaVuSans-6e" x="128.511719"/>
     <use xlink:href="#DejaVuSans-6b" x="191.890625"/>
     <use xlink:href="#DejaVuSans-73" x="249.800781"/>
     <use xlink:href="#DejaVuSans-20" x="301.900391"/>
     <use xlink:href="#DejaVuSans-78" x="333.6875"/>
     <use xlink:href="#DejaVuSans-20" x="392.867188"/>
     <use xlink:href="#DejaVuSans-66" x="424.654297"/>
     <use xlink:href="#DejaVuSans-2d" x="454.359375"/>
     <use xlink:href="#DejaVuSans-73" x="490.443359"/>
     <use xlink:href="#DejaVuSans-63" x="542.542969"/>
     <use xlink:href="#DejaVuSans-6f" x="597.523438"/>
     <use xlink:href="#DejaVuSans-72" x="658.705078"/>
     <use xlink:href="#DejaVuSans-65" x="697.568359"/>
    </g>
   </g>
  </g>
 </g>
 <defs>
  <clipPath id="pbf6cc9edea">
   <rect x="57.6" y="41.472" width="357.12" height="266.112"/>
  </clipPath>
 </defs>
</svg>
