<?xml version="1.0" encoding="utf-8" standalone="no"?>
<!DOCTYPE svg PUBLIC "-//W3C//DTD SVG 1.1//EN"
  "http://www.w3.org/Graphics/SVG/1.1/DTD/svg11.dtd">
<svg xmlns:xlink="http://www.w3.org/1999/xlink" width="460.8pt" height="345.6pt" viewBox="0 0 460.8 345.6" xmlns="http://www.w3.org/2000/svg" version="1.1">
 <metadata>
  <rdf:RDF xmlns:dc="http://purl.org/dc/elements/1.1/" xmlns:cc="http://creativecommons.org/ns#" xmlns:rdf="http://www.w3.org/1999/02/22-rdf-syntax-ns#">
   <cc:Work>
    <dc:type rdf:resource="http://purl.org/dc/dcmitype/StillImage"/>
    <dc:date>2024-01-10T00:13:38.532524</dc:date>
    <dc:format>image/svg+xml</dc:format>
    <dc:creator>
     <cc:Agent>
      <dc:title>Matplotlib v3.8.0, https://matplotlib.org/</dc:title>
     </cc:Agent>
    </dc:creator>
   </cc:Work>
  </rdf:RDF>
 </metadata>
 <defs>
  <style type="text/css">*{stroke-linejoin: round; stroke-linecap: butt}</style>
 </defs>
 <g id="figure_1">
  <g id="patch_1">
   <path d="M 0 345.6 
L 460.8 345.6 
L 460.8 0 
L 0 0 
z
" style="fill: #ffffff"/>
  </g>
  <g id="axes_1">
   <g id="patch_2">
    <path d="M 57.6 307.584 
L 414.72 307.584 
L 414.72 41.472 
L 57.6 41.472 
z
" style="fill: #ffffff"/>
   </g>
   <g id="PathCollection_1">
    <defs>
     <path id="md44d83aad6" d="M 0 3 
C 0.795609 3 1.55874 2.683901 2.12132 2.12132 
C 2.683901 1.55874 3 0.795609 3 0 
C 3 -0.795609 2.683901 -1.55874 2.12132 -2.12132 
C 1.55874 -2.683901 0.795609 -3 0 -3 
C -0.795609 -3 -1.55874 -2.683901 -2.12132 -2.12132 
C -2.683901 -1.55874 -3 -0.795609 -3 0 
C -3 0.795609 -2.683901 1.55874 -2.12132 2.12132 
C -1.55874 2.683901 -0.795609 3 0 3 
z
" style="stroke: #ffffff; stroke-width: 0.48"/>
    </defs>
    <g clip-path="url(#p1fde4c0c17)">
     <use xlink:href="#md44d83aad6" x="73.832727" y="69.328275" style="fill: #1f77b4; stroke: #ffffff; stroke-width: 0.48"/>
     <use xlink:href="#md44d83aad6" x="109.905455" y="153.736642" style="fill: #1f77b4; stroke: #ffffff; stroke-width: 0.48"/>
     <use xlink:href="#md44d83aad6" x="145.978182" y="187.236595" style="fill: #1f77b4; stroke: #ffffff; stroke-width: 0.48"/>
     <use xlink:href="#md44d83aad6" x="182.050909" y="87.060528" style="fill: #1f77b4; stroke: #ffffff; stroke-width: 0.48"/>
     <use xlink:href="#md44d83aad6" x="218.123636" y="295.488" style="fill: #1f77b4; stroke: #ffffff; stroke-width: 0.48"/>
     <use xlink:href="#md44d83aad6" x="254.196364" y="190.560795" style="fill: #1f77b4; stroke: #ffffff; stroke-width: 0.48"/>
     <use xlink:href="#md44d83aad6" x="290.269091" y="157.12547" style="fill: #1f77b4; stroke: #ffffff; stroke-width: 0.48"/>
     <use xlink:href="#md44d83aad6" x="326.341818" y="129.050779" style="fill: #1f77b4; stroke: #ffffff; stroke-width: 0.48"/>
     <use xlink:href="#md44d83aad6" x="362.414545" y="136.176694" style="fill: #1f77b4; stroke: #ffffff; stroke-width: 0.48"/>
     <use xlink:href="#md44d83aad6" x="398.487273" y="53.568" style="fill: #1f77b4; stroke: #ffffff; stroke-width: 0.48"/>
    </g>
   </g>
   <g id="PathCollection_2">
    <defs>
     <path id="mb88c8a0f99" d="M 0 3 
C 0.795609 3 1.55874 2.683901 2.12132 2.12132 
C 2.683901 1.55874 3 0.795609 3 0 
C 3 -0.795609 2.683901 -1.55874 2.12132 -2.12132 
C 1.55874 -2.683901 0.795609 -3 0 -3 
C -0.795609 -3 -1.55874 -2.683901 -2.12132 -2.12132 
C -2.683901 -1.55874 -3 -0.795609 -3 0 
C -3 0.795609 -2.683901 1.55874 -2.12132 2.12132 
C -1.55874 2.683901 -0.795609 3 0 3 
z
" style="stroke: #1f77b4; stroke-opacity: 0.8"/>
    </defs>
    <g clip-path="url(#p1fde4c0c17)">
     <use xlink:href="#mb88c8a0f99" x="73.832727" y="69.328275" style="fill: #1f77b4; fill-opacity: 0.8; stroke: #1f77b4; stroke-opacity: 0.8"/>
     <use xlink:href="#mb88c8a0f99" x="109.905455" y="153.736642" style="fill: #1f77b4; fill-opacity: 0.8; stroke: #1f77b4; stroke-opacity: 0.8"/>
     <use xlink:href="#mb88c8a0f99" x="145.978182" y="187.236595" style="fill: #1f77b4; fill-opacity: 0.8; stroke: #1f77b4; stroke-opacity: 0.8"/>
     <use xlink:href="#mb88c8a0f99" x="182.050909" y="87.060528" style="fill: #1f77b4; fill-opacity: 0.8; stroke: #1f77b4; stroke-opacity: 0.8"/>
     <use xlink:href="#mb88c8a0f99" x="218.123636" y="295.488" style="fill: #1f77b4; fill-opacity: 0.8; stroke: #1f77b4; stroke-opacity: 0.8"/>
     <use xlink:href="#mb88c8a0f99" x="254.196364" y="190.560795" style="fill: #1f77b4; fill-opacity: 0.8; stroke: #1f77b4; stroke-opacity: 0.8"/>
     <use xlink:href="#mb88c8a0f99" x="290.269091" y="157.12547" style="fill: #1f77b4; fill-opacity: 0.8; stroke: #1f77b4; stroke-opacity: 0.8"/>
     <use xlink:href="#mb88c8a0f99" x="326.341818" y="129.050779" style="fill: #1f77b4; fill-opacity: 0.8; stroke: #1f77b4; stroke-opacity: 0.8"/>
     <use xlink:href="#mb88c8a0f99" x="362.414545" y="136.176694" style="fill: #1f77b4; fill-opacity: 0.8; stroke: #1f77b4; stroke-opacity: 0.8"/>
     <use xlink:href="#mb88c8a0f99" x="398.487273" y="53.568" style="fill: #1f77b4; fill-opacity: 0.8; stroke: #1f77b4; stroke-opacity: 0.8"/>
    </g>
   </g>
   <g id="PolyCollection_1">
    <path d="M 73.832727 91.701529 
L 73.832727 279.297488 
L 77.112066 277.623142 
L 80.391405 275.969653 
L 83.670744 274.316165 
L 86.950083 272.662676 
L 90.229421 271.009188 
L 93.50876 269.355699 
L 96.788099 267.702211 
L 100.067438 266.048722 
L 103.346777 264.395234 
L 106.626116 262.741745 
L 109.905455 261.088257 
L 113.184793 259.434769 
L 116.464132 257.78128 
L 119.743471 256.127792 
L 123.02281 254.474303 
L 126.302149 252.820815 
L 129.581488 251.167326 
L 132.860826 249.513838 
L 136.140165 247.860349 
L 139.419504 246.206861 
L 142.698843 244.553373 
L 145.978182 242.899884 
L 149.257521 241.246396 
L 152.53686 239.592907 
L 155.816198 237.939419 
L 159.095537 236.28593 
L 162.374876 234.632442 
L 165.654215 232.978953 
L 168.933554 231.325465 
L 172.212893 229.670533 
L 175.492231 228.007963 
L 178.77157 227.351665 
L 182.050909 225.573356 
L 185.330248 223.362734 
L 188.609587 223.009945 
L 191.888926 221.191389 
L 195.168264 221.853949 
L 198.447603 219.824436 
L 201.726942 217.794922 
L 205.006281 215.765408 
L 208.28562 213.916868 
L 211.564959 212.821751 
L 214.844298 211.425568 
L 218.123636 209.977971 
L 221.402975 209.200036 
L 224.682314 208.091506 
L 227.961653 208.877708 
L 231.240992 209.153425 
L 234.520331 209.184581 
L 237.799669 207.98013 
L 241.079008 207.399179 
L 244.358347 208.732191 
L 247.637686 210.066723 
L 250.917025 211.479035 
L 254.196364 212.152424 
L 257.475702 208.908667 
L 260.755041 209.309026 
L 264.03438 208.782573 
L 267.313719 208.453715 
L 270.593058 210.392718 
L 273.872397 212.33172 
L 277.151736 214.270723 
L 280.431074 215.61353 
L 283.710413 215.952383 
L 286.989752 216.283526 
L 290.269091 216.61467 
L 293.54843 216.945813 
L 296.827769 217.994991 
L 300.107107 219.184134 
L 303.386446 220.373278 
L 306.665785 221.833538 
L 309.945124 223.441779 
L 313.224463 225.050021 
L 316.503802 226.658262 
L 319.78314 228.264475 
L 323.062479 229.862638 
L 326.341818 231.460802 
L 329.621157 232.806935 
L 332.900496 234.409522 
L 336.179835 236.006673 
L 339.459174 237.269918 
L 342.738512 238.446416 
L 346.017851 239.622914 
L 349.29719 240.799412 
L 352.576529 241.97591 
L 355.855868 243.152408 
L 359.135207 244.319844 
L 362.414545 245.477863 
L 365.693884 246.635883 
L 368.973223 247.793903 
L 372.252562 248.951923 
L 375.531901 250.109943 
L 378.81124 251.267963 
L 382.090579 252.425982 
L 385.369917 253.584002 
L 388.649256 254.62714 
L 391.928595 255.497725 
L 395.207934 256.36831 
L 398.487273 257.238895 
L 398.487273 80.99001 
L 398.487273 80.99001 
L 395.207934 82.881605 
L 391.928595 84.387676 
L 388.649256 85.779498 
L 385.369917 87.02288 
L 382.090579 87.945342 
L 378.81124 88.764914 
L 375.531901 89.517274 
L 372.252562 90.201036 
L 368.973223 90.992711 
L 365.693884 91.801189 
L 362.414545 92.374058 
L 359.135207 92.756681 
L 355.855868 93.237403 
L 352.576529 93.719817 
L 349.29719 94.202231 
L 346.017851 94.946904 
L 342.738512 96.122457 
L 339.459174 96.659299 
L 336.179835 97.414869 
L 332.900496 97.715409 
L 329.621157 98.074797 
L 326.341818 98.760122 
L 323.062479 99.28951 
L 319.78314 99.667912 
L 316.503802 100.348285 
L 313.224463 100.755866 
L 309.945124 101.084735 
L 306.665785 101.770474 
L 303.386446 102.445713 
L 300.107107 102.806555 
L 296.827769 103.161826 
L 293.54843 103.487409 
L 290.269091 104.029119 
L 286.989752 104.037697 
L 283.710413 104.285761 
L 280.431074 104.4104 
L 277.151736 104.528335 
L 273.872397 104.638458 
L 270.593058 104.902084 
L 267.313719 104.869332 
L 264.03438 104.990573 
L 260.755041 105.266754 
L 257.475702 105.706473 
L 254.196364 105.974529 
L 250.917025 105.97724 
L 247.637686 106.2958 
L 244.358347 106.629642 
L 241.079008 107.088162 
L 237.799669 108.086622 
L 234.520331 108.117918 
L 231.240992 108.035002 
L 227.961653 108.045647 
L 224.682314 108.241817 
L 221.402975 108.117458 
L 218.123636 107.980805 
L 214.844298 107.85292 
L 211.564959 107.725036 
L 208.28562 107.381813 
L 205.006281 107.201882 
L 201.726942 107.195245 
L 198.447603 107.097336 
L 195.168264 107.003146 
L 191.888926 106.957731 
L 188.609587 107.126051 
L 185.330248 106.727382 
L 182.050909 106.633012 
L 178.77157 106.440977 
L 175.492231 106.283648 
L 172.212893 106.039736 
L 168.933554 105.783934 
L 165.654215 105.53171 
L 162.374876 105.259066 
L 159.095537 104.997907 
L 155.816198 104.741128 
L 152.53686 104.49736 
L 149.257521 103.903398 
L 145.978182 103.805332 
L 142.698843 102.852725 
L 139.419504 102.766847 
L 136.140165 102.807653 
L 132.860826 102.679113 
L 129.581488 102.769929 
L 126.302149 102.525858 
L 123.02281 102.206 
L 119.743471 101.661172 
L 116.464132 101.086899 
L 113.184793 100.117709 
L 109.905455 99.838518 
L 106.626116 99.214967 
L 103.346777 98.380322 
L 100.067438 97.555717 
L 96.788099 96.552821 
L 93.50876 95.543894 
L 90.229421 94.75022 
L 86.950083 93.696182 
L 83.670744 93.005941 
L 80.391405 92.624936 
L 77.112066 92.060673 
L 73.832727 91.701529 
z
" clip-path="url(#p1fde4c0c17)" style="fill: #1f77b4; fill-opacity: 0.15"/>
   </g>
   <g id="matplotlib.axis_1">
    <g id="xtick_1">
     <g id="line2d_1">
      <defs>
       <path id="m5359ee29d0" d="M 0 0 
L 0 3.5 
" style="stroke: #000000; stroke-width: 0.8"/>
      </defs>
      <g>
       <use xlink:href="#m5359ee29d0" x="73.832727" y="307.584" style="stroke: #000000; stroke-width: 0.8"/>
      </g>
     </g>
     <g id="text_1">
      <!-- 0 -->
      <g transform="translate(70.651477 322.182437) scale(0.1 -0.1)">
       <defs>
        <path id="DejaVuSans-30" d="M 2034 4250 
Q 1547 4250 1301 3770 
Q 1056 3291 1056 2328 
Q 1056 1369 1301 889 
Q 1547 409 2034 409 
Q 2525 409 2770 889 
Q 3016 1369 3016 2328 
Q 3016 3291 2770 3770 
Q 2525 4250 2034 4250 
z
M 2034 4750 
Q 2819 4750 3233 4129 
Q 3647 3509 3647 2328 
Q 3647 1150 3233 529 
Q 2819 -91 2034 -91 
Q 1250 -91 836 529 
Q 422 1150 422 2328 
Q 422 3509 836 4129 
Q 1250 4750 2034 4750 
z
" transform="scale(0.015625)"/>
       </defs>
       <use xlink:href="#DejaVuSans-30"/>
      </g>
     </g>
    </g>
    <g id="xtick_2">
     <g id="line2d_2">
      <g>
       <use xlink:href="#m5359ee29d0" x="145.978182" y="307.584" style="stroke: #000000; stroke-width: 0.8"/>
      </g>
     </g>
     <g id="text_2">
      <!-- 2 -->
      <g transform="translate(142.796932 322.182437) scale(0.1 -0.1)">
       <defs>
        <path id="DejaVuSans-32" d="M 1228 531 
L 3431 531 
L 3431 0 
L 469 0 
L 469 531 
Q 828 903 1448 1529 
Q 2069 2156 2228 2338 
Q 2531 2678 2651 2914 
Q 2772 3150 2772 3378 
Q 2772 3750 2511 3984 
Q 2250 4219 1831 4219 
Q 1534 4219 1204 4116 
Q 875 4013 500 3803 
L 500 4441 
Q 881 4594 1212 4672 
Q 1544 4750 1819 4750 
Q 2544 4750 2975 4387 
Q 3406 4025 3406 3419 
Q 3406 3131 3298 2873 
Q 3191 2616 2906 2266 
Q 2828 2175 2409 1742 
Q 1991 1309 1228 531 
z
" transform="scale(0.015625)"/>
       </defs>
       <use xlink:href="#DejaVuSans-32"/>
      </g>
     </g>
    </g>
    <g id="xtick_3">
     <g id="line2d_3">
      <g>
       <use xlink:href="#m5359ee29d0" x="218.123636" y="307.584" style="stroke: #000000; stroke-width: 0.8"/>
      </g>
     </g>
     <g id="text_3">
      <!-- 4 -->
      <g transform="translate(214.942386 322.182437) scale(0.1 -0.1)">
       <defs>
        <path id="DejaVuSans-34" d="M 2419 4116 
L 825 1625 
L 2419 1625 
L 2419 4116 
z
M 2253 4666 
L 3047 4666 
L 3047 1625 
L 3713 1625 
L 3713 1100 
L 3047 1100 
L 3047 0 
L 2419 0 
L 2419 1100 
L 313 1100 
L 313 1709 
L 2253 4666 
z
" transform="scale(0.015625)"/>
       </defs>
       <use xlink:href="#DejaVuSans-34"/>
      </g>
     </g>
    </g>
    <g id="xtick_4">
     <g id="line2d_4">
      <g>
       <use xlink:href="#m5359ee29d0" x="290.269091" y="307.584" style="stroke: #000000; stroke-width: 0.8"/>
      </g>
     </g>
     <g id="text_4">
      <!-- 6 -->
      <g transform="translate(287.087841 322.182437) scale(0.1 -0.1)">
       <defs>
        <path id="DejaVuSans-36" d="M 2113 2584 
Q 1688 2584 1439 2293 
Q 1191 2003 1191 1497 
Q 1191 994 1439 701 
Q 1688 409 2113 409 
Q 2538 409 2786 701 
Q 3034 994 3034 1497 
Q 3034 2003 2786 2293 
Q 2538 2584 2113 2584 
z
M 3366 4563 
L 3366 3988 
Q 3128 4100 2886 4159 
Q 2644 4219 2406 4219 
Q 1781 4219 1451 3797 
Q 1122 3375 1075 2522 
Q 1259 2794 1537 2939 
Q 1816 3084 2150 3084 
Q 2853 3084 3261 2657 
Q 3669 2231 3669 1497 
Q 3669 778 3244 343 
Q 2819 -91 2113 -91 
Q 1303 -91 875 529 
Q 447 1150 447 2328 
Q 447 3434 972 4092 
Q 1497 4750 2381 4750 
Q 2619 4750 2861 4703 
Q 3103 4656 3366 4563 
z
" transform="scale(0.015625)"/>
       </defs>
       <use xlink:href="#DejaVuSans-36"/>
      </g>
     </g>
    </g>
    <g id="xtick_5">
     <g id="line2d_5">
      <g>
       <use xlink:href="#m5359ee29d0" x="362.414545" y="307.584" style="stroke: #000000; stroke-width: 0.8"/>
      </g>
     </g>
     <g id="text_5">
      <!-- 8 -->
      <g transform="translate(359.233295 322.182437) scale(0.1 -0.1)">
       <defs>
        <path id="DejaVuSans-38" d="M 2034 2216 
Q 1584 2216 1326 1975 
Q 1069 1734 1069 1313 
Q 1069 891 1326 650 
Q 1584 409 2034 409 
Q 2484 409 2743 651 
Q 3003 894 3003 1313 
Q 3003 1734 2745 1975 
Q 2488 2216 2034 2216 
z
M 1403 2484 
Q 997 2584 770 2862 
Q 544 3141 544 3541 
Q 544 4100 942 4425 
Q 1341 4750 2034 4750 
Q 2731 4750 3128 4425 
Q 3525 4100 3525 3541 
Q 3525 3141 3298 2862 
Q 3072 2584 2669 2484 
Q 3125 2378 3379 2068 
Q 3634 1759 3634 1313 
Q 3634 634 3220 271 
Q 2806 -91 2034 -91 
Q 1263 -91 848 271 
Q 434 634 434 1313 
Q 434 1759 690 2068 
Q 947 2378 1403 2484 
z
M 1172 3481 
Q 1172 3119 1398 2916 
Q 1625 2713 2034 2713 
Q 2441 2713 2670 2916 
Q 2900 3119 2900 3481 
Q 2900 3844 2670 4047 
Q 2441 4250 2034 4250 
Q 1625 4250 1398 4047 
Q 1172 3844 1172 3481 
z
" transform="scale(0.015625)"/>
       </defs>
       <use xlink:href="#DejaVuSans-38"/>
      </g>
     </g>
    </g>
    <g id="text_6">
     <!-- ranks -->
     <g transform="translate(222.371719 335.860562) scale(0.1 -0.1)">
      <defs>
       <path id="DejaVuSans-72" d="M 2631 2963 
Q 2534 3019 2420 3045 
Q 2306 3072 2169 3072 
Q 1681 3072 1420 2755 
Q 1159 2438 1159 1844 
L 1159 0 
L 581 0 
L 581 3500 
L 1159 3500 
L 1159 2956 
Q 1341 3275 1631 3429 
Q 1922 3584 2338 3584 
Q 2397 3584 2469 3576 
Q 2541 3569 2628 3553 
L 2631 2963 
z
" transform="scale(0.015625)"/>
       <path id="DejaVuSans-61" d="M 2194 1759 
Q 1497 1759 1228 1600 
Q 959 1441 959 1056 
Q 959 750 1161 570 
Q 1363 391 1709 391 
Q 2188 391 2477 730 
Q 2766 1069 2766 1631 
L 2766 1759 
L 2194 1759 
z
M 3341 1997 
L 3341 0 
L 2766 0 
L 2766 531 
Q 2569 213 2275 61 
Q 1981 -91 1556 -91 
Q 1019 -91 701 211 
Q 384 513 384 1019 
Q 384 1609 779 1909 
Q 1175 2209 1959 2209 
L 2766 2209 
L 2766 2266 
Q 2766 2663 2505 2880 
Q 2244 3097 1772 3097 
Q 1472 3097 1187 3025 
Q 903 2953 641 2809 
L 641 3341 
Q 956 3463 1253 3523 
Q 1550 3584 1831 3584 
Q 2591 3584 2966 3190 
Q 3341 2797 3341 1997 
z
" transform="scale(0.015625)"/>
       <path id="DejaVuSans-6e" d="M 3513 2113 
L 3513 0 
L 2938 0 
L 2938 2094 
Q 2938 2591 2744 2837 
Q 2550 3084 2163 3084 
Q 1697 3084 1428 2787 
Q 1159 2491 1159 1978 
L 1159 0 
L 581 0 
L 581 3500 
L 1159 3500 
L 1159 2956 
Q 1366 3272 1645 3428 
Q 1925 3584 2291 3584 
Q 2894 3584 3203 3211 
Q 3513 2838 3513 2113 
z
" transform="scale(0.015625)"/>
       <path id="DejaVuSans-6b" d="M 581 4863 
L 1159 4863 
L 1159 1991 
L 2875 3500 
L 3609 3500 
L 1753 1863 
L 3688 0 
L 2938 0 
L 1159 1709 
L 1159 0 
L 581 0 
L 581 4863 
z
" transform="scale(0.015625)"/>
       <path id="DejaVuSans-73" d="M 2834 3397 
L 2834 2853 
Q 2591 2978 2328 3040 
Q 2066 3103 1784 3103 
Q 1356 3103 1142 2972 
Q 928 2841 928 2578 
Q 928 2378 1081 2264 
Q 1234 2150 1697 2047 
L 1894 2003 
Q 2506 1872 2764 1633 
Q 3022 1394 3022 966 
Q 3022 478 2636 193 
Q 2250 -91 1575 -91 
Q 1294 -91 989 -36 
Q 684 19 347 128 
L 347 722 
Q 666 556 975 473 
Q 1284 391 1588 391 
Q 1994 391 2212 530 
Q 2431 669 2431 922 
Q 2431 1156 2273 1281 
Q 2116 1406 1581 1522 
L 1381 1569 
Q 847 1681 609 1914 
Q 372 2147 372 2553 
Q 372 3047 722 3315 
Q 1072 3584 1716 3584 
Q 2034 3584 2315 3537 
Q 2597 3491 2834 3397 
z
" transform="scale(0.015625)"/>
      </defs>
      <use xlink:href="#DejaVuSans-72"/>
      <use xlink:href="#DejaVuSans-61" x="41.113281"/>
      <use xlink:href="#DejaVuSans-6e" x="102.392578"/>
      <use xlink:href="#DejaVuSans-6b" x="165.771484"/>
      <use xlink:href="#DejaVuSans-73" x="223.681641"/>
     </g>
    </g>
   </g>
   <g id="matplotlib.axis_2">
    <g id="ytick_1">
     <g id="line2d_6">
      <defs>
       <path id="mf34a2b96d2" d="M 0 0 
L -3.5 0 
" style="stroke: #000000; stroke-width: 0.8"/>
      </defs>
      <g>
       <use xlink:href="#mf34a2b96d2" x="57.6" y="284.477787" style="stroke: #000000; stroke-width: 0.8"/>
      </g>
     </g>
     <g id="text_7">
      <!-- 0.644 -->
      <g transform="translate(21.971875 288.277006) scale(0.1 -0.1)">
       <defs>
        <path id="DejaVuSans-2e" d="M 684 794 
L 1344 794 
L 1344 0 
L 684 0 
L 684 794 
z
" transform="scale(0.015625)"/>
       </defs>
       <use xlink:href="#DejaVuSans-30"/>
       <use xlink:href="#DejaVuSans-2e" x="63.623047"/>
       <use xlink:href="#DejaVuSans-36" x="95.410156"/>
       <use xlink:href="#DejaVuSans-34" x="159.033203"/>
       <use xlink:href="#DejaVuSans-34" x="222.65625"/>
      </g>
     </g>
    </g>
    <g id="ytick_2">
     <g id="line2d_7">
      <g>
       <use xlink:href="#mf34a2b96d2" x="57.6" y="234.30328" style="stroke: #000000; stroke-width: 0.8"/>
      </g>
     </g>
     <g id="text_8">
      <!-- 0.646 -->
      <g transform="translate(21.971875 238.102498) scale(0.1 -0.1)">
       <use xlink:href="#DejaVuSans-30"/>
       <use xlink:href="#DejaVuSans-2e" x="63.623047"/>
       <use xlink:href="#DejaVuSans-36" x="95.410156"/>
       <use xlink:href="#DejaVuSans-34" x="159.033203"/>
       <use xlink:href="#DejaVuSans-36" x="222.65625"/>
      </g>
     </g>
    </g>
    <g id="ytick_3">
     <g id="line2d_8">
      <g>
       <use xlink:href="#mf34a2b96d2" x="57.6" y="184.128772" style="stroke: #000000; stroke-width: 0.8"/>
      </g>
     </g>
     <g id="text_9">
      <!-- 0.648 -->
      <g transform="translate(21.971875 187.927991) scale(0.1 -0.1)">
       <use xlink:href="#DejaVuSans-30"/>
       <use xlink:href="#DejaVuSans-2e" x="63.623047"/>
       <use xlink:href="#DejaVuSans-36" x="95.410156"/>
       <use xlink:href="#DejaVuSans-34" x="159.033203"/>
       <use xlink:href="#DejaVuSans-38" x="222.65625"/>
      </g>
     </g>
    </g>
    <g id="ytick_4">
     <g id="line2d_9">
      <g>
       <use xlink:href="#mf34a2b96d2" x="57.6" y="133.954265" style="stroke: #000000; stroke-width: 0.8"/>
      </g>
     </g>
     <g id="text_10">
      <!-- 0.650 -->
      <g transform="translate(21.971875 137.753484) scale(0.1 -0.1)">
       <defs>
        <path id="DejaVuSans-35" d="M 691 4666 
L 3169 4666 
L 3169 4134 
L 1269 4134 
L 1269 2991 
Q 1406 3038 1543 3061 
Q 1681 3084 1819 3084 
Q 2600 3084 3056 2656 
Q 3513 2228 3513 1497 
Q 3513 744 3044 326 
Q 2575 -91 1722 -91 
Q 1428 -91 1123 -41 
Q 819 9 494 109 
L 494 744 
Q 775 591 1075 516 
Q 1375 441 1709 441 
Q 2250 441 2565 725 
Q 2881 1009 2881 1497 
Q 2881 1984 2565 2268 
Q 2250 2553 1709 2553 
Q 1456 2553 1204 2497 
Q 953 2441 691 2322 
L 691 4666 
z
" transform="scale(0.015625)"/>
       </defs>
       <use xlink:href="#DejaVuSans-30"/>
       <use xlink:href="#DejaVuSans-2e" x="63.623047"/>
       <use xlink:href="#DejaVuSans-36" x="95.410156"/>
       <use xlink:href="#DejaVuSans-35" x="159.033203"/>
       <use xlink:href="#DejaVuSans-30" x="222.65625"/>
      </g>
     </g>
    </g>
    <g id="ytick_5">
     <g id="line2d_10">
      <g>
       <use xlink:href="#mf34a2b96d2" x="57.6" y="83.779758" style="stroke: #000000; stroke-width: 0.8"/>
      </g>
     </g>
     <g id="text_11">
      <!-- 0.652 -->
      <g transform="translate(21.971875 87.578977) scale(0.1 -0.1)">
       <use xlink:href="#DejaVuSans-30"/>
       <use xlink:href="#DejaVuSans-2e" x="63.623047"/>
       <use xlink:href="#DejaVuSans-36" x="95.410156"/>
       <use xlink:href="#DejaVuSans-35" x="159.033203"/>
       <use xlink:href="#DejaVuSans-32" x="222.65625"/>
      </g>
     </g>
    </g>
    <g id="text_12">
     <!-- score -->
     <g transform="translate(15.892188 187.960813) rotate(-90) scale(0.1 -0.1)">
      <defs>
       <path id="DejaVuSans-63" d="M 3122 3366 
L 3122 2828 
Q 2878 2963 2633 3030 
Q 2388 3097 2138 3097 
Q 1578 3097 1268 2742 
Q 959 2388 959 1747 
Q 959 1106 1268 751 
Q 1578 397 2138 397 
Q 2388 397 2633 464 
Q 2878 531 3122 666 
L 3122 134 
Q 2881 22 2623 -34 
Q 2366 -91 2075 -91 
Q 1284 -91 818 406 
Q 353 903 353 1747 
Q 353 2603 823 3093 
Q 1294 3584 2113 3584 
Q 2378 3584 2631 3529 
Q 2884 3475 3122 3366 
z
" transform="scale(0.015625)"/>
       <path id="DejaVuSans-6f" d="M 1959 3097 
Q 1497 3097 1228 2736 
Q 959 2375 959 1747 
Q 959 1119 1226 758 
Q 1494 397 1959 397 
Q 2419 397 2687 759 
Q 2956 1122 2956 1747 
Q 2956 2369 2687 2733 
Q 2419 3097 1959 3097 
z
M 1959 3584 
Q 2709 3584 3137 3096 
Q 3566 2609 3566 1747 
Q 3566 888 3137 398 
Q 2709 -91 1959 -91 
Q 1206 -91 779 398 
Q 353 888 353 1747 
Q 353 2609 779 3096 
Q 1206 3584 1959 3584 
z
" transform="scale(0.015625)"/>
       <path id="DejaVuSans-65" d="M 3597 1894 
L 3597 1613 
L 953 1613 
Q 991 1019 1311 708 
Q 1631 397 2203 397 
Q 2534 397 2845 478 
Q 3156 559 3463 722 
L 3463 178 
Q 3153 47 2828 -22 
Q 2503 -91 2169 -91 
Q 1331 -91 842 396 
Q 353 884 353 1716 
Q 353 2575 817 3079 
Q 1281 3584 2069 3584 
Q 2775 3584 3186 3129 
Q 3597 2675 3597 1894 
z
M 3022 2063 
Q 3016 2534 2758 2815 
Q 2500 3097 2075 3097 
Q 1594 3097 1305 2825 
Q 1016 2553 972 2059 
L 3022 2063 
z
" transform="scale(0.015625)"/>
      </defs>
      <use xlink:href="#DejaVuSans-73"/>
      <use xlink:href="#DejaVuSans-63" x="52.099609"/>
      <use xlink:href="#DejaVuSans-6f" x="107.080078"/>
      <use xlink:href="#DejaVuSans-72" x="168.261719"/>
      <use xlink:href="#DejaVuSans-65" x="207.125"/>
     </g>
    </g>
   </g>
   <g id="line2d_11">
    <path d="M 73.832727 158.217457 
L 77.112066 157.96929 
L 80.391405 157.721122 
L 83.670744 157.472955 
L 86.950083 157.224788 
L 90.229421 156.976621 
L 93.50876 156.728453 
L 96.788099 156.480286 
L 100.067438 156.232119 
L 103.346777 155.983952 
L 106.626116 155.735784 
L 109.905455 155.487617 
L 113.184793 155.23945 
L 116.464132 154.991283 
L 119.743471 154.743115 
L 123.02281 154.494948 
L 126.302149 154.246781 
L 129.581488 153.998614 
L 132.860826 153.750446 
L 136.140165 153.502279 
L 139.419504 153.254112 
L 142.698843 153.005945 
L 145.978182 152.757777 
L 149.257521 152.50961 
L 152.53686 152.261443 
L 155.816198 152.013276 
L 159.095537 151.765108 
L 162.374876 151.516941 
L 165.654215 151.268774 
L 168.933554 151.020607 
L 172.212893 150.772439 
L 175.492231 150.524272 
L 178.77157 150.276105 
L 182.050909 150.027938 
L 185.330248 149.77977 
L 188.609587 149.531603 
L 191.888926 149.283436 
L 195.168264 149.035269 
L 198.447603 148.787101 
L 201.726942 148.538934 
L 205.006281 148.290767 
L 208.28562 148.0426 
L 211.564959 147.794432 
L 214.844298 147.546265 
L 218.123636 147.298098 
L 221.402975 147.04993 
L 224.682314 146.801763 
L 227.961653 146.553596 
L 231.240992 146.305429 
L 234.520331 146.057261 
L 237.799669 145.809094 
L 241.079008 145.560927 
L 244.358347 145.31276 
L 247.637686 145.064592 
L 250.917025 144.816425 
L 254.196364 144.568258 
L 257.475702 144.320091 
L 260.755041 144.071923 
L 264.03438 143.823756 
L 267.313719 143.575589 
L 270.593058 143.327422 
L 273.872397 143.079254 
L 277.151736 142.831087 
L 280.431074 142.58292 
L 283.710413 142.334753 
L 286.989752 142.086585 
L 290.269091 141.838418 
L 293.54843 141.590251 
L 296.827769 141.342084 
L 300.107107 141.093916 
L 303.386446 140.845749 
L 306.665785 140.597582 
L 309.945124 140.349415 
L 313.224463 140.101247 
L 316.503802 139.85308 
L 319.78314 139.604913 
L 323.062479 139.356746 
L 326.341818 139.108578 
L 329.621157 138.860411 
L 332.900496 138.612244 
L 336.179835 138.364077 
L 339.459174 138.115909 
L 342.738512 137.867742 
L 346.017851 137.619575 
L 349.29719 137.371408 
L 352.576529 137.12324 
L 355.855868 136.875073 
L 359.135207 136.626906 
L 362.414545 136.378739 
L 365.693884 136.130571 
L 368.973223 135.882404 
L 372.252562 135.634237 
L 375.531901 135.38607 
L 378.81124 135.137902 
L 382.090579 134.889735 
L 385.369917 134.641568 
L 388.649256 134.3934 
L 391.928595 134.145233 
L 395.207934 133.897066 
L 398.487273 133.648899 
" clip-path="url(#p1fde4c0c17)" style="fill: none; stroke: #1f77b4; stroke-width: 2.25; stroke-linecap: square"/>
   </g>
   <g id="patch_3">
    <path d="M 57.6 307.584 
L 57.6 41.472 
" style="fill: none; stroke: #000000; stroke-width: 0.8; stroke-linejoin: miter; stroke-linecap: square"/>
   </g>
   <g id="patch_4">
    <path d="M 414.72 307.584 
L 414.72 41.472 
" style="fill: none; stroke: #000000; stroke-width: 0.8; stroke-linejoin: miter; stroke-linecap: square"/>
   </g>
   <g id="patch_5">
    <path d="M 57.6 307.584 
L 414.72 307.584 
" style="fill: none; stroke: #000000; stroke-width: 0.8; stroke-linejoin: miter; stroke-linecap: square"/>
   </g>
   <g id="patch_6">
    <path d="M 57.6 41.472 
L 414.72 41.472 
" style="fill: none; stroke: #000000; stroke-width: 0.8; stroke-linejoin: miter; stroke-linecap: square"/>
   </g>
   <g id="text_13">
    <!-- Ranks x f-score -->
    <g transform="translate(190.615313 35.472) scale(0.12 -0.12)">
     <defs>
      <path id="DejaVuSans-52" d="M 2841 2188 
Q 3044 2119 3236 1894 
Q 3428 1669 3622 1275 
L 4263 0 
L 3584 0 
L 2988 1197 
Q 2756 1666 2539 1819 
Q 2322 1972 1947 1972 
L 1259 1972 
L 1259 0 
L 628 0 
L 628 4666 
L 2053 4666 
Q 2853 4666 3247 4331 
Q 3641 3997 3641 3322 
Q 3641 2881 3436 2590 
Q 3231 2300 2841 2188 
z
M 1259 4147 
L 1259 2491 
L 2053 2491 
Q 2509 2491 2742 2702 
Q 2975 2913 2975 3322 
Q 2975 3731 2742 3939 
Q 2509 4147 2053 4147 
L 1259 4147 
z
" transform="scale(0.015625)"/>
      <path id="DejaVuSans-20" transform="scale(0.015625)"/>
      <path id="DejaVuSans-78" d="M 3513 3500 
L 2247 1797 
L 3578 0 
L 2900 0 
L 1881 1375 
L 863 0 
L 184 0 
L 1544 1831 
L 300 3500 
L 978 3500 
L 1906 2253 
L 2834 3500 
L 3513 3500 
z
" transform="scale(0.015625)"/>
      <path id="DejaVuSans-66" d="M 2375 4863 
L 2375 4384 
L 1825 4384 
Q 1516 4384 1395 4259 
Q 1275 4134 1275 3809 
L 1275 3500 
L 2222 3500 
L 2222 3053 
L 1275 3053 
L 1275 0 
L 697 0 
L 697 3053 
L 147 3053 
L 147 3500 
L 697 3500 
L 697 3744 
Q 697 4328 969 4595 
Q 1241 4863 1831 4863 
L 2375 4863 
z
" transform="scale(0.015625)"/>
      <path id="DejaVuSans-2d" d="M 313 2009 
L 1997 2009 
L 1997 1497 
L 313 1497 
L 313 2009 
z
" transform="scale(0.015625)"/>
     </defs>
     <use xlink:href="#DejaVuSans-52"/>
     <use xlink:href="#DejaVuSans-61" x="67.232422"/>
     <use xlink:href="#DejaVuSans-6e" x="128.511719"/>
     <use xlink:href="#DejaVuSans-6b" x="191.890625"/>
     <use xlink:href="#DejaVuSans-73" x="249.800781"/>
     <use xlink:href="#DejaVuSans-20" x="301.900391"/>
     <use xlink:href="#DejaVuSans-78" x="333.6875"/>
     <use xlink:href="#DejaVuSans-20" x="392.867188"/>
     <use xlink:href="#DejaVuSans-66" x="424.654297"/>
     <use xlink:href="#DejaVuSans-2d" x="454.359375"/>
     <use xlink:href="#DejaVuSans-73" x="490.443359"/>
     <use xlink:href="#DejaVuSans-63" x="542.542969"/>
     <use xlink:href="#DejaVuSans-6f" x="597.523438"/>
     <use xlink:href="#DejaVuSans-72" x="658.705078"/>
     <use xlink:href="#DejaVuSans-65" x="697.568359"/>
    </g>
   </g>
  </g>
 </g>
 <defs>
  <clipPath id="p1fde4c0c17">
   <rect x="57.6" y="41.472" width="357.12" height="266.112"/>
  </clipPath>
 </defs>
</svg>
