<?xml version="1.0" encoding="utf-8" standalone="no"?>
<!DOCTYPE svg PUBLIC "-//W3C//DTD SVG 1.1//EN"
  "http://www.w3.org/Graphics/SVG/1.1/DTD/svg11.dtd">
<svg xmlns:xlink="http://www.w3.org/1999/xlink" width="1080pt" height="1440pt" viewBox="0 0 1080 1440" xmlns="http://www.w3.org/2000/svg" version="1.1">
 <metadata>
  <rdf:RDF xmlns:dc="http://purl.org/dc/elements/1.1/" xmlns:cc="http://creativecommons.org/ns#" xmlns:rdf="http://www.w3.org/1999/02/22-rdf-syntax-ns#">
   <cc:Work>
    <dc:type rdf:resource="http://purl.org/dc/dcmitype/StillImage"/>
    <dc:date>2024-01-31T12:58:12.328024</dc:date>
    <dc:format>image/svg+xml</dc:format>
    <dc:creator>
     <cc:Agent>
      <dc:title>Matplotlib v3.8.0, https://matplotlib.org/</dc:title>
     </cc:Agent>
    </dc:creator>
   </cc:Work>
  </rdf:RDF>
 </metadata>
 <defs>
  <style type="text/css">*{stroke-linejoin: round; stroke-linecap: butt}</style>
 </defs>
 <g id="figure_1">
  <g id="patch_1">
   <path d="M 0 1440 
L 1080 1440 
L 1080 0 
L 0 0 
z
" style="fill: #ffffff"/>
  </g>
  <g id="axes_1">
   <g id="patch_2">
    <path d="M 197.572244 143.720064 
C 180.859412 163.637641 172.734665 189.406048 175.000762 215.307658 
C 177.266859 241.209269 189.742811 265.175348 209.660388 281.88818 
L 272.700374 206.76005 
z
" style="fill: #dbd957"/>
   </g>
   <g id="patch_3">
    <path d="M 209.660388 281.88818 
C 221.515811 291.836061 235.559291 298.837882 250.638794 302.319259 
C 265.718297 305.800637 281.40989 305.663698 296.426338 301.919676 
C 311.442785 298.175655 325.361928 290.929807 337.04193 280.776535 
C 348.721933 270.623262 357.834433 257.848006 363.631902 243.498764 
L 272.700374 206.76005 
z
" style="fill: #57b5db"/>
   </g>
   <g id="patch_4">
    <path d="M 363.631902 243.498764 
C 371.783691 223.322374 372.992868 200.99552 367.067794 180.056756 
C 361.14272 159.117992 348.413872 140.735202 330.898629 127.821852 
L 272.700374 206.76005 
z
" style="fill: #5778db"/>
   </g>
   <g id="patch_5">
    <path d="M 330.898629 127.821852 
C 315.920723 116.779189 298.104801 110.224207 279.541582 108.926141 
C 260.978363 107.628075 242.423548 111.63977 226.054565 120.490447 
L 272.700374 206.76005 
z
" style="fill: #db5f57"/>
   </g>
   <g id="patch_6">
    <path d="M 226.054565 120.490447 
C 222.439724 122.444985 218.951302 124.624793 215.609933 127.016979 
C 212.268565 129.409164 209.080852 132.008999 206.065652 134.801106 
L 272.700374 206.76005 
z
" style="fill: #57dbc5"/>
   </g>
   <g id="patch_7">
    <path d="M 206.065652 134.801106 
C 205.312084 135.498918 204.569524 136.208523 203.838247 136.929661 
C 203.10697 137.650798 202.387066 138.383378 201.678801 139.127129 
L 272.700374 206.76005 
z
" style="fill: #db57c9"/>
   </g>
   <g id="patch_8">
    <path d="M 201.678801 139.127129 
C 200.970536 139.870881 200.273998 140.625712 199.589444 141.391344 
C 198.904891 142.156975 198.232406 142.933313 197.57224 143.720069 
L 272.700374 206.76005 
z
" style="fill: #63db57"/>
   </g>
   <g id="patch_9">
    <path d="M 272.700374 255.796454 
C 285.704981 255.796454 298.178703 250.629669 307.374348 241.434024 
C 316.569994 232.238379 321.736779 219.764656 321.736779 206.76005 
C 321.736779 193.755443 316.569994 181.281721 307.374348 172.086076 
C 298.178703 162.89043 285.704981 157.723645 272.700374 157.723645 
C 259.695768 157.723645 247.222046 162.89043 238.0264 172.086076 
C 228.830755 181.281721 223.66397 193.755443 223.66397 206.76005 
C 223.66397 219.764656 228.830755 232.238379 238.0264 241.434024 
C 247.222046 250.629669 259.695768 255.796454 272.700374 255.796454 
z
" clip-path="url(#pb41dd28283)" style="fill: #ffffff"/>
   </g>
   <g id="matplotlib.axis_1"/>
   <g id="matplotlib.axis_2"/>
   <g id="text_1">
    <!-- BIKES -->
    <g transform="translate(255.278438 92.88) scale(0.12 -0.12)">
     <defs>
      <path id="DejaVuSans-42" d="M 1259 2228 
L 1259 519 
L 2272 519 
Q 2781 519 3026 730 
Q 3272 941 3272 1375 
Q 3272 1813 3026 2020 
Q 2781 2228 2272 2228 
L 1259 2228 
z
M 1259 4147 
L 1259 2741 
L 2194 2741 
Q 2656 2741 2882 2914 
Q 3109 3088 3109 3444 
Q 3109 3797 2882 3972 
Q 2656 4147 2194 4147 
L 1259 4147 
z
M 628 4666 
L 2241 4666 
Q 2963 4666 3353 4366 
Q 3744 4066 3744 3513 
Q 3744 3084 3544 2831 
Q 3344 2578 2956 2516 
Q 3422 2416 3680 2098 
Q 3938 1781 3938 1306 
Q 3938 681 3513 340 
Q 3088 0 2303 0 
L 628 0 
L 628 4666 
z
" transform="scale(0.015625)"/>
      <path id="DejaVuSans-49" d="M 628 4666 
L 1259 4666 
L 1259 0 
L 628 0 
L 628 4666 
z
" transform="scale(0.015625)"/>
      <path id="DejaVuSans-4b" d="M 628 4666 
L 1259 4666 
L 1259 2694 
L 3353 4666 
L 4166 4666 
L 1850 2491 
L 4331 0 
L 3500 0 
L 1259 2247 
L 1259 0 
L 628 0 
L 628 4666 
z
" transform="scale(0.015625)"/>
      <path id="DejaVuSans-45" d="M 628 4666 
L 3578 4666 
L 3578 4134 
L 1259 4134 
L 1259 2753 
L 3481 2753 
L 3481 2222 
L 1259 2222 
L 1259 531 
L 3634 531 
L 3634 0 
L 628 0 
L 628 4666 
z
" transform="scale(0.015625)"/>
      <path id="DejaVuSans-53" d="M 3425 4513 
L 3425 3897 
Q 3066 4069 2747 4153 
Q 2428 4238 2131 4238 
Q 1616 4238 1336 4038 
Q 1056 3838 1056 3469 
Q 1056 3159 1242 3001 
Q 1428 2844 1947 2747 
L 2328 2669 
Q 3034 2534 3370 2195 
Q 3706 1856 3706 1288 
Q 3706 609 3251 259 
Q 2797 -91 1919 -91 
Q 1588 -91 1214 -16 
Q 841 59 441 206 
L 441 856 
Q 825 641 1194 531 
Q 1563 422 1919 422 
Q 2459 422 2753 634 
Q 3047 847 3047 1241 
Q 3047 1584 2836 1778 
Q 2625 1972 2144 2069 
L 1759 2144 
Q 1053 2284 737 2584 
Q 422 2884 422 3419 
Q 422 4038 858 4394 
Q 1294 4750 2059 4750 
Q 2388 4750 2728 4690 
Q 3069 4631 3425 4513 
z
" transform="scale(0.015625)"/>
     </defs>
     <use xlink:href="#DejaVuSans-42"/>
     <use xlink:href="#DejaVuSans-49" x="68.603516"/>
     <use xlink:href="#DejaVuSans-4b" x="98.095703"/>
     <use xlink:href="#DejaVuSans-45" x="163.671875"/>
     <use xlink:href="#DejaVuSans-53" x="226.855469"/>
    </g>
   </g>
  </g>
  <g id="axes_2">
   <g id="patch_10">
    <path d="M 732.17187 143.720084 
C 720.883012 157.173622 713.412491 173.4157 710.544104 190.742221 
C 707.675717 208.068742 709.513416 225.851786 715.864392 242.225579 
C 722.215368 258.599372 732.849459 272.97052 746.650949 283.831222 
C 760.452439 294.691923 776.921158 301.648582 794.329228 303.971314 
L 807.299977 206.760052 
z
" style="fill: #dbd957"/>
   </g>
   <g id="patch_11">
    <path d="M 794.329228 303.971314 
C 811.219585 306.224969 828.409251 304.038166 844.19734 297.627287 
C 859.985429 291.216409 873.833445 280.800114 884.371151 267.409076 
C 894.908856 254.018039 901.776835 238.108998 904.295513 221.256123 
C 906.81419 204.403248 904.89766 187.181354 898.73556 171.294515 
L 807.299977 206.760052 
z
" style="fill: #db5f57"/>
   </g>
   <g id="patch_12">
    <path d="M 898.73556 171.294515 
C 892.384582 154.920724 881.75049 140.549576 867.948999 129.688876 
C 854.147507 118.828175 837.678788 111.871518 820.270718 109.548788 
L 807.299977 206.760052 
z
" style="fill: #5778db"/>
   </g>
   <g id="patch_13">
    <path d="M 820.270718 109.548788 
C 817.216171 109.141224 814.144111 108.877856 811.064765 108.75956 
C 807.98542 108.641264 804.902209 108.668171 801.825396 108.840192 
L 807.299977 206.760052 
z
" style="fill: #57dbc5"/>
   </g>
   <g id="patch_14">
    <path d="M 801.825396 108.840192 
C 789.484106 109.530179 777.383778 112.547131 766.163137 117.731796 
C 754.942496 122.916461 744.80251 130.17598 736.278424 139.127153 
L 807.299977 206.760052 
z
" style="fill: #57b5db"/>
   </g>
   <g id="patch_15">
    <path d="M 736.278424 139.127153 
C 735.57016 139.870905 734.873622 140.625736 734.189068 141.391367 
C 733.504515 142.156998 732.832031 142.933336 732.171864 143.720091 
L 807.299977 206.760052 
z
" style="fill: #db9c57"/>
   </g>
   <g id="patch_16">
    <path d="M 807.299977 255.796441 
C 820.30458 255.796441 832.778298 250.629658 841.973941 241.434015 
C 851.169584 232.238372 856.336367 219.764654 856.336367 206.760052 
C 856.336367 193.755449 851.169584 181.281731 841.973941 172.086088 
C 832.778298 162.890445 820.30458 157.723662 807.299977 157.723662 
C 794.295375 157.723662 781.821657 162.890445 772.626014 172.086088 
C 763.430371 181.281731 758.263588 193.755449 758.263588 206.760052 
C 758.263588 219.764654 763.430371 232.238372 772.626014 241.434015 
C 781.821657 250.629658 794.295375 255.796441 807.299977 255.796441 
z
" clip-path="url(#p2f1bc69ef4)" style="fill: #ffffff"/>
   </g>
   <g id="matplotlib.axis_3"/>
   <g id="matplotlib.axis_4"/>
   <g id="text_2">
    <!-- SPORTS -->
    <g transform="translate(783.942187 92.88) scale(0.12 -0.12)">
     <defs>
      <path id="DejaVuSans-50" d="M 1259 4147 
L 1259 2394 
L 2053 2394 
Q 2494 2394 2734 2622 
Q 2975 2850 2975 3272 
Q 2975 3691 2734 3919 
Q 2494 4147 2053 4147 
L 1259 4147 
z
M 628 4666 
L 2053 4666 
Q 2838 4666 3239 4311 
Q 3641 3956 3641 3272 
Q 3641 2581 3239 2228 
Q 2838 1875 2053 1875 
L 1259 1875 
L 1259 0 
L 628 0 
L 628 4666 
z
" transform="scale(0.015625)"/>
      <path id="DejaVuSans-4f" d="M 2522 4238 
Q 1834 4238 1429 3725 
Q 1025 3213 1025 2328 
Q 1025 1447 1429 934 
Q 1834 422 2522 422 
Q 3209 422 3611 934 
Q 4013 1447 4013 2328 
Q 4013 3213 3611 3725 
Q 3209 4238 2522 4238 
z
M 2522 4750 
Q 3503 4750 4090 4092 
Q 4678 3434 4678 2328 
Q 4678 1225 4090 567 
Q 3503 -91 2522 -91 
Q 1538 -91 948 565 
Q 359 1222 359 2328 
Q 359 3434 948 4092 
Q 1538 4750 2522 4750 
z
" transform="scale(0.015625)"/>
      <path id="DejaVuSans-52" d="M 2841 2188 
Q 3044 2119 3236 1894 
Q 3428 1669 3622 1275 
L 4263 0 
L 3584 0 
L 2988 1197 
Q 2756 1666 2539 1819 
Q 2322 1972 1947 1972 
L 1259 1972 
L 1259 0 
L 628 0 
L 628 4666 
L 2053 4666 
Q 2853 4666 3247 4331 
Q 3641 3997 3641 3322 
Q 3641 2881 3436 2590 
Q 3231 2300 2841 2188 
z
M 1259 4147 
L 1259 2491 
L 2053 2491 
Q 2509 2491 2742 2702 
Q 2975 2913 2975 3322 
Q 2975 3731 2742 3939 
Q 2509 4147 2053 4147 
L 1259 4147 
z
" transform="scale(0.015625)"/>
      <path id="DejaVuSans-54" d="M -19 4666 
L 3928 4666 
L 3928 4134 
L 2272 4134 
L 2272 0 
L 1638 0 
L 1638 4134 
L -19 4134 
L -19 4666 
z
" transform="scale(0.015625)"/>
     </defs>
     <use xlink:href="#DejaVuSans-53"/>
     <use xlink:href="#DejaVuSans-50" x="63.476562"/>
     <use xlink:href="#DejaVuSans-4f" x="123.779297"/>
     <use xlink:href="#DejaVuSans-52" x="202.490234"/>
     <use xlink:href="#DejaVuSans-54" x="264.722656"/>
     <use xlink:href="#DejaVuSans-53" x="325.806641"/>
    </g>
   </g>
  </g>
  <g id="axes_3">
   <g id="patch_17">
    <path d="M 197.571842 386.360067 
C 182.225173 404.649515 174.073108 427.928158 174.656431 451.796209 
C 175.239754 475.664261 184.519243 498.516886 200.741026 516.034817 
C 216.962809 533.552748 239.036169 544.558118 262.789124 546.970855 
C 286.542079 549.383591 310.377531 543.041466 329.790457 529.143175 
L 272.699998 449.400075 
z
" style="fill: #dbd957"/>
   </g>
   <g id="patch_18">
    <path d="M 329.790457 529.143175 
C 342.374135 520.134146 352.648455 508.273144 359.77058 494.53317 
C 366.892705 480.793195 370.662409 465.560522 370.770451 450.084738 
L 272.699998 449.400075 
z
" style="fill: #db5f57"/>
   </g>
   <g id="patch_19">
    <path d="M 370.770451 450.084738 
C 370.885768 433.566876 366.826118 417.284517 358.969631 402.75425 
C 351.113143 388.223983 339.711559 375.911394 325.826857 366.963315 
L 272.699998 449.400075 
z
" style="fill: #5778db"/>
   </g>
   <g id="patch_20">
    <path d="M 325.826857 366.963315 
C 312.818112 358.579753 298.007802 353.393257 282.610868 351.829295 
C 267.213934 350.265333 251.663232 352.367872 237.234439 357.964433 
L 272.699998 449.400075 
z
" style="fill: #57b5db"/>
   </g>
   <g id="patch_21">
    <path d="M 237.234439 357.964433 
C 235.319258 358.707283 233.427889 359.510122 231.563131 360.371761 
C 229.698373 361.233401 227.861147 362.153415 226.054171 363.130444 
L 272.699998 449.400075 
z
" style="fill: #db9c57"/>
   </g>
   <g id="patch_22">
    <path d="M 226.054171 363.130444 
C 223.343429 364.596137 220.703275 366.18878 218.142498 367.903071 
C 215.58172 369.617363 213.103164 371.451398 210.71508 373.399072 
L 272.699998 449.400075 
z
" style="fill: #63db57"/>
   </g>
   <g id="patch_23">
    <path d="M 210.71508 373.399072 
C 209.123188 374.697388 207.57248 376.045398 206.065251 377.441108 
C 204.558022 378.836818 203.095016 380.279538 201.678399 381.767133 
L 272.699998 449.400075 
z
" style="fill: #db578c"/>
   </g>
   <g id="patch_24">
    <path d="M 201.678399 381.767133 
C 200.970134 382.510885 200.273595 383.265716 199.589042 384.031348 
C 198.904488 384.79698 198.232003 385.573318 197.571836 386.360074 
L 272.699998 449.400075 
z
" style="fill: #57db87"/>
   </g>
   <g id="patch_25">
    <path d="M 272.699998 498.436496 
C 285.704609 498.436496 298.178336 493.26971 307.373984 484.074061 
C 316.569633 474.878413 321.736419 462.404686 321.736419 449.400075 
C 321.736419 436.395464 316.569633 423.921738 307.373984 414.726089 
C 298.178336 405.53044 285.704609 400.363654 272.699998 400.363654 
C 259.695387 400.363654 247.221661 405.53044 238.026012 414.726089 
C 228.830363 423.921738 223.663577 436.395464 223.663577 449.400075 
C 223.663577 462.404686 228.830363 474.878413 238.026012 484.074061 
C 247.221661 493.26971 259.695387 498.436496 272.699998 498.436496 
z
" clip-path="url(#p01bd22c311)" style="fill: #ffffff"/>
   </g>
   <g id="matplotlib.axis_5"/>
   <g id="matplotlib.axis_6"/>
   <g id="text_3">
    <!-- ANIME -->
    <g transform="translate(253.36875 335.52) scale(0.12 -0.12)">
     <defs>
      <path id="DejaVuSans-41" d="M 2188 4044 
L 1331 1722 
L 3047 1722 
L 2188 4044 
z
M 1831 4666 
L 2547 4666 
L 4325 0 
L 3669 0 
L 3244 1197 
L 1141 1197 
L 716 0 
L 50 0 
L 1831 4666 
z
" transform="scale(0.015625)"/>
      <path id="DejaVuSans-4e" d="M 628 4666 
L 1478 4666 
L 3547 763 
L 3547 4666 
L 4159 4666 
L 4159 0 
L 3309 0 
L 1241 3903 
L 1241 0 
L 628 0 
L 628 4666 
z
" transform="scale(0.015625)"/>
      <path id="DejaVuSans-4d" d="M 628 4666 
L 1569 4666 
L 2759 1491 
L 3956 4666 
L 4897 4666 
L 4897 0 
L 4281 0 
L 4281 4097 
L 3078 897 
L 2444 897 
L 1241 4097 
L 1241 0 
L 628 0 
L 628 4666 
z
" transform="scale(0.015625)"/>
     </defs>
     <use xlink:href="#DejaVuSans-41"/>
     <use xlink:href="#DejaVuSans-4e" x="68.408203"/>
     <use xlink:href="#DejaVuSans-49" x="143.212891"/>
     <use xlink:href="#DejaVuSans-4d" x="172.705078"/>
     <use xlink:href="#DejaVuSans-45" x="258.984375"/>
    </g>
   </g>
  </g>
  <g id="axes_4">
   <g id="patch_26">
    <path d="M 732.17189 386.360013 
C 718.184233 403.029853 710.13486 423.89029 709.299505 445.635181 
C 708.46415 467.380072 714.889406 488.796569 727.556943 506.490399 
L 807.3 449.399982 
z
" style="fill: #dbd957"/>
   </g>
   <g id="patch_27">
    <path d="M 727.556943 506.490399 
C 735.355892 517.383856 745.304943 526.564577 756.788778 533.464762 
C 768.272613 540.364947 781.049504 544.839351 794.32924 546.611248 
C 807.608977 548.383144 821.112028 547.415234 834.003273 543.767381 
C 846.894518 540.119527 858.902602 533.868516 869.284864 525.400951 
L 807.3 449.399982 
z
" style="fill: #db5f57"/>
   </g>
   <g id="patch_28">
    <path d="M 869.284864 525.400951 
C 881.278024 515.619571 890.787308 503.136854 897.032637 488.9768 
C 903.277966 474.816746 906.083765 459.377439 905.219864 443.925418 
L 807.3 449.399982 
z
" style="fill: #5778db"/>
   </g>
   <g id="patch_29">
    <path d="M 905.219864 443.925418 
C 904.385009 428.992931 900.145372 414.44739 892.826263 401.40489 
C 885.507155 388.36239 875.300691 377.165276 862.990023 368.672713 
C 850.679355 360.180151 836.58762 354.615057 821.79609 352.404446 
C 807.00456 350.193836 791.90149 351.395734 777.645754 355.917918 
L 807.3 449.399982 
z
" style="fill: #57b5db"/>
   </g>
   <g id="patch_30">
    <path d="M 777.645754 355.917918 
C 776.666792 356.228463 775.692768 356.554366 774.724044 356.895508 
C 773.755319 357.23665 772.792014 357.592987 771.834483 357.964389 
L 807.3 449.399982 
z
" style="fill: #db9c57"/>
   </g>
   <g id="patch_31">
    <path d="M 771.834483 357.964389 
C 768.003178 359.450453 764.269061 361.175857 760.65422 363.130394 
C 757.03938 365.08493 753.550958 367.264737 750.20959 369.656921 
L 807.3 449.399982 
z
" style="fill: #57dbc5"/>
   </g>
   <g id="patch_32">
    <path d="M 750.20959 369.656921 
C 748.539318 370.852718 746.907028 372.100698 745.315137 373.399012 
C 743.723245 374.697327 742.172538 376.045336 740.665309 377.441045 
L 807.3 449.399982 
z
" style="fill: #db57c9"/>
   </g>
   <g id="patch_33">
    <path d="M 740.665309 377.441045 
C 739.911742 378.138856 739.169182 378.848461 738.437905 379.569598 
C 737.706628 380.290735 736.986724 381.023315 736.278459 381.767066 
L 807.3 449.399982 
z
" style="fill: #7357db"/>
   </g>
   <g id="patch_34">
    <path d="M 736.278459 381.767066 
C 735.570194 382.510817 734.873656 383.265648 734.189102 384.031279 
C 733.504549 384.79691 732.832064 385.573247 732.171898 386.360003 
L 807.3 449.399982 
z
" style="fill: #db578c"/>
   </g>
   <g id="patch_35">
    <path d="M 807.3 498.436374 
C 820.304603 498.436374 832.778321 493.26959 841.973964 484.073947 
C 851.169607 474.878304 856.336391 462.404585 856.336391 449.399982 
C 856.336391 436.395379 851.169607 423.921661 841.973964 414.726018 
C 832.778321 405.530375 820.304603 400.363591 807.3 400.363591 
C 794.295397 400.363591 781.821678 405.530375 772.626035 414.726018 
C 763.430392 423.921661 758.263608 436.395379 758.263608 449.399982 
C 758.263608 462.404585 763.430392 474.878304 772.626035 484.073947 
C 781.821678 493.26959 794.295397 498.436374 807.3 498.436374 
z
" clip-path="url(#p5c06fe898b)" style="fill: #ffffff"/>
   </g>
   <g id="matplotlib.axis_7"/>
   <g id="matplotlib.axis_8"/>
   <g id="text_4">
    <!-- AUTO-MOTO -->
    <g transform="translate(769.799062 335.52) scale(0.12 -0.12)">
     <defs>
      <path id="DejaVuSans-55" d="M 556 4666 
L 1191 4666 
L 1191 1831 
Q 1191 1081 1462 751 
Q 1734 422 2344 422 
Q 2950 422 3222 751 
Q 3494 1081 3494 1831 
L 3494 4666 
L 4128 4666 
L 4128 1753 
Q 4128 841 3676 375 
Q 3225 -91 2344 -91 
Q 1459 -91 1007 375 
Q 556 841 556 1753 
L 556 4666 
z
" transform="scale(0.015625)"/>
      <path id="DejaVuSans-2d" d="M 313 2009 
L 1997 2009 
L 1997 1497 
L 313 1497 
L 313 2009 
z
" transform="scale(0.015625)"/>
     </defs>
     <use xlink:href="#DejaVuSans-41"/>
     <use xlink:href="#DejaVuSans-55" x="68.408203"/>
     <use xlink:href="#DejaVuSans-54" x="141.601562"/>
     <use xlink:href="#DejaVuSans-4f" x="202.685547"/>
     <use xlink:href="#DejaVuSans-2d" x="284.146484"/>
     <use xlink:href="#DejaVuSans-4d" x="320.230469"/>
     <use xlink:href="#DejaVuSans-4f" x="406.509766"/>
     <use xlink:href="#DejaVuSans-54" x="485.220703"/>
     <use xlink:href="#DejaVuSans-4f" x="546.304688"/>
    </g>
   </g>
  </g>
  <g id="axes_5">
   <g id="patch_36">
    <path d="M 197.571822 629.000079 
C 187.289174 641.254462 180.159271 655.840609 176.806011 671.482168 
C 173.452752 687.123728 173.976882 703.350758 178.332538 718.743321 
C 182.688195 734.135884 190.744514 748.231519 201.796533 759.796796 
C 212.848551 771.362072 226.564217 780.049518 241.743349 785.098943 
L 272.699924 692.040042 
z
" style="fill: #dbd957"/>
   </g>
   <g id="patch_37">
    <path d="M 241.743349 785.098943 
C 256.428297 789.983974 272.063131 791.324352 287.365273 789.01012 
C 302.667415 786.695888 317.206672 780.792107 329.790341 771.783084 
C 342.37401 762.774061 352.648323 750.913069 359.770443 737.173104 
C 366.892563 723.433139 370.662264 708.200477 370.770306 692.724704 
L 272.699924 692.040042 
z
" style="fill: #57b5db"/>
   </g>
   <g id="patch_38">
    <path d="M 370.770306 692.724704 
C 370.936982 668.850125 362.379895 645.717318 346.716378 627.698507 
C 331.052861 609.679695 309.336095 597.986424 285.670663 594.828785 
L 272.699924 692.040042 
z
" style="fill: #db5f57"/>
   </g>
   <g id="patch_39">
    <path d="M 285.670663 594.828785 
C 277.51601 593.740722 269.256757 593.683062 261.087708 594.657163 
C 252.918658 595.631264 244.904545 597.629408 237.23439 600.604466 
L 272.699924 692.040042 
z
" style="fill: #5778db"/>
   </g>
   <g id="patch_40">
    <path d="M 237.23439 600.604466 
C 234.361326 601.718855 231.542381 602.968039 228.78694 604.347862 
C 226.031499 605.727684 223.342624 607.236611 220.729264 608.869619 
L 272.699924 692.040042 
z
" style="fill: #db9c57"/>
   </g>
   <g id="patch_41">
    <path d="M 220.729264 608.869619 
C 218.115905 610.502628 215.580965 612.257904 213.132884 614.129604 
C 210.684803 616.001304 208.326299 617.987348 206.065225 620.081126 
L 272.699924 692.040042 
z
" style="fill: #57dbc5"/>
   </g>
   <g id="patch_42">
    <path d="M 206.065225 620.081126 
C 205.311657 620.778938 204.569098 621.488543 203.837821 622.20968 
C 203.106544 622.930817 202.38664 623.663397 201.678376 624.407148 
L 272.699924 692.040042 
z
" style="fill: #a0db57"/>
   </g>
   <g id="patch_43">
    <path d="M 201.678376 624.407148 
C 200.970111 625.150899 200.273573 625.90573 199.58902 626.671362 
C 198.904467 627.436993 198.231982 628.21333 197.571816 629.000086 
L 272.699924 692.040042 
z
" style="fill: #db57c9"/>
   </g>
   <g id="patch_44">
    <path d="M 272.699924 741.076428 
C 285.704525 741.076428 298.178243 735.909645 307.373885 726.714003 
C 316.569527 717.518361 321.73631 705.044643 321.73631 692.040042 
C 321.73631 679.03544 316.569527 666.561723 307.373885 657.366081 
C 298.178243 648.170439 285.704525 643.003656 272.699924 643.003656 
C 259.695322 643.003656 247.221605 648.170439 238.025963 657.366081 
C 228.830321 666.561723 223.663538 679.03544 223.663538 692.040042 
C 223.663538 705.044643 228.830321 717.518361 238.025963 726.714003 
C 247.221605 735.909645 259.695322 741.076428 272.699924 741.076428 
z
" clip-path="url(#pc2439d2371)" style="fill: #ffffff"/>
   </g>
   <g id="matplotlib.axis_9"/>
   <g id="matplotlib.axis_10"/>
   <g id="text_5">
    <!-- NATURE -->
    <g transform="translate(248.555625 578.16) scale(0.12 -0.12)">
     <use xlink:href="#DejaVuSans-4e"/>
     <use xlink:href="#DejaVuSans-41" x="74.804688"/>
     <use xlink:href="#DejaVuSans-54" x="135.462891"/>
     <use xlink:href="#DejaVuSans-55" x="196.546875"/>
     <use xlink:href="#DejaVuSans-52" x="269.740234"/>
     <use xlink:href="#DejaVuSans-45" x="339.222656"/>
    </g>
   </g>
  </g>
  <g id="axes_6">
   <g id="patch_45">
    <path d="M 732.171677 629.000185 
C 722.558243 640.45703 715.691679 653.962543 712.098864 668.480433 
C 708.50605 682.998322 708.28129 698.147516 711.441831 712.7656 
C 714.602373 727.383685 721.065256 741.086959 730.334577 752.823957 
C 739.603898 764.560954 751.436353 774.023597 764.924024 780.485807 
L 807.3 692.040333 
z
" style="fill: #dbd957"/>
   </g>
   <g id="patch_46">
    <path d="M 764.924024 780.485807 
C 784.548794 789.888422 806.755723 792.497138 828.025263 787.898503 
C 849.294803 783.299867 868.440619 771.750374 882.428317 755.080488 
L 807.3 692.040333 
z
" style="fill: #57b5db"/>
   </g>
   <g id="patch_47">
    <path d="M 882.428317 755.080488 
C 892.041753 743.623644 898.908318 730.118131 902.501134 715.600243 
C 906.09395 701.082354 906.318711 685.93316 903.158171 671.315075 
C 899.997631 656.69699 893.534749 642.993715 884.265429 631.256717 
C 874.996108 619.519719 863.163655 610.057075 849.675985 603.594863 
L 807.3 692.040333 
z
" style="fill: #db5f57"/>
   </g>
   <g id="patch_48">
    <path d="M 849.675985 603.594863 
C 836.657171 597.357291 822.420292 594.070446 807.984688 593.969663 
C 793.549083 593.86888 779.2677 596.956622 766.163063 603.011812 
L 807.3 692.040333 
z
" style="fill: #5778db"/>
   </g>
   <g id="patch_49">
    <path d="M 766.163063 603.011812 
C 763.365632 604.304406 760.630679 605.728132 757.967307 607.278251 
C 755.303935 608.82837 752.715103 610.50316 750.20943 612.297045 
L 807.3 692.040333 
z
" style="fill: #db9c57"/>
   </g>
   <g id="patch_50">
    <path d="M 750.20943 612.297045 
C 749.374344 612.894908 748.5487 613.505852 747.732804 614.129651 
C 746.916909 614.75345 746.110862 615.390027 745.314963 616.039146 
L 807.3 692.040333 
z
" style="fill: #db57c9"/>
   </g>
   <g id="patch_51">
    <path d="M 745.314963 616.039146 
C 744.519064 616.688265 743.733411 617.349847 742.958294 618.023645 
C 742.183177 618.697444 741.418693 619.383377 740.665123 620.08119 
L 807.3 692.040333 
z
" style="fill: #63db57"/>
   </g>
   <g id="patch_52">
    <path d="M 740.665123 620.08119 
C 739.911553 620.779003 739.168991 621.48861 738.437712 622.209749 
C 737.706432 622.930888 736.986526 623.66347 736.278259 624.407223 
L 807.3 692.040333 
z
" style="fill: #57dbc5"/>
   </g>
   <g id="patch_53">
    <path d="M 736.278259 624.407223 
C 735.569993 625.150976 734.873453 625.905809 734.188897 626.671443 
C 733.504342 627.437076 732.831855 628.213416 732.171687 629.000174 
L 807.3 692.040333 
z
" style="fill: #57db87"/>
   </g>
   <g id="patch_54">
    <path d="M 807.3 741.076863 
C 820.30464 741.076863 832.778394 735.910065 841.974063 726.714396 
C 851.169732 717.518727 856.33653 705.044973 856.33653 692.040333 
C 856.33653 679.035693 851.169732 666.561939 841.974063 657.36627 
C 832.778394 648.170601 820.30464 643.003803 807.3 643.003803 
C 794.29536 643.003803 781.821606 648.170601 772.625937 657.36627 
C 763.430268 666.561939 758.26347 679.035693 758.26347 692.040333 
C 758.26347 705.044973 763.430268 717.518727 772.625937 726.714396 
C 781.821606 735.910065 794.29536 741.076863 807.3 741.076863 
z
" clip-path="url(#p09b443a441)" style="fill: #ffffff"/>
   </g>
   <g id="matplotlib.axis_11"/>
   <g id="matplotlib.axis_12"/>
   <g id="text_6">
    <!-- METAL-DETECTING -->
    <g transform="translate(750.995625 578.16) scale(0.12 -0.12)">
     <defs>
      <path id="DejaVuSans-4c" d="M 628 4666 
L 1259 4666 
L 1259 531 
L 3531 531 
L 3531 0 
L 628 0 
L 628 4666 
z
" transform="scale(0.015625)"/>
      <path id="DejaVuSans-44" d="M 1259 4147 
L 1259 519 
L 2022 519 
Q 2988 519 3436 956 
Q 3884 1394 3884 2338 
Q 3884 3275 3436 3711 
Q 2988 4147 2022 4147 
L 1259 4147 
z
M 628 4666 
L 1925 4666 
Q 3281 4666 3915 4102 
Q 4550 3538 4550 2338 
Q 4550 1131 3912 565 
Q 3275 0 1925 0 
L 628 0 
L 628 4666 
z
" transform="scale(0.015625)"/>
      <path id="DejaVuSans-43" d="M 4122 4306 
L 4122 3641 
Q 3803 3938 3442 4084 
Q 3081 4231 2675 4231 
Q 1875 4231 1450 3742 
Q 1025 3253 1025 2328 
Q 1025 1406 1450 917 
Q 1875 428 2675 428 
Q 3081 428 3442 575 
Q 3803 722 4122 1019 
L 4122 359 
Q 3791 134 3420 21 
Q 3050 -91 2638 -91 
Q 1578 -91 968 557 
Q 359 1206 359 2328 
Q 359 3453 968 4101 
Q 1578 4750 2638 4750 
Q 3056 4750 3426 4639 
Q 3797 4528 4122 4306 
z
" transform="scale(0.015625)"/>
      <path id="DejaVuSans-47" d="M 3809 666 
L 3809 1919 
L 2778 1919 
L 2778 2438 
L 4434 2438 
L 4434 434 
Q 4069 175 3628 42 
Q 3188 -91 2688 -91 
Q 1594 -91 976 548 
Q 359 1188 359 2328 
Q 359 3472 976 4111 
Q 1594 4750 2688 4750 
Q 3144 4750 3555 4637 
Q 3966 4525 4313 4306 
L 4313 3634 
Q 3963 3931 3569 4081 
Q 3175 4231 2741 4231 
Q 1884 4231 1454 3753 
Q 1025 3275 1025 2328 
Q 1025 1384 1454 906 
Q 1884 428 2741 428 
Q 3075 428 3337 486 
Q 3600 544 3809 666 
z
" transform="scale(0.015625)"/>
     </defs>
     <use xlink:href="#DejaVuSans-4d"/>
     <use xlink:href="#DejaVuSans-45" x="86.279297"/>
     <use xlink:href="#DejaVuSans-54" x="149.462891"/>
     <use xlink:href="#DejaVuSans-41" x="202.796875"/>
     <use xlink:href="#DejaVuSans-4c" x="271.205078"/>
     <use xlink:href="#DejaVuSans-2d" x="325.167969"/>
     <use xlink:href="#DejaVuSans-44" x="361.251953"/>
     <use xlink:href="#DejaVuSans-45" x="438.253906"/>
     <use xlink:href="#DejaVuSans-54" x="501.4375"/>
     <use xlink:href="#DejaVuSans-45" x="562.521484"/>
     <use xlink:href="#DejaVuSans-43" x="625.705078"/>
     <use xlink:href="#DejaVuSans-54" x="695.529297"/>
     <use xlink:href="#DejaVuSans-49" x="756.613281"/>
     <use xlink:href="#DejaVuSans-4e" x="786.105469"/>
     <use xlink:href="#DejaVuSans-47" x="860.910156"/>
    </g>
   </g>
  </g>
  <g id="axes_7">
   <g id="patch_55">
    <path d="M 197.571817 871.640056 
C 187.289163 883.894445 180.159256 898.480601 176.805994 914.122169 
C 173.452733 929.763737 173.976863 945.990776 178.332522 961.383348 
C 182.688181 976.775919 190.744505 990.871562 201.79653 1002.436845 
C 212.848554 1014.002128 226.564228 1022.689579 241.743368 1027.739006 
L 272.69996 934.680054 
z
" style="fill: #dbd957"/>
   </g>
   <g id="patch_56">
    <path d="M 241.743368 1027.739006 
C 257.417151 1032.95298 274.157092 1034.12355 290.403983 1031.141688 
C 306.650874 1028.159825 321.884124 1021.121076 334.68486 1010.68105 
L 272.69996 934.680054 
z
" style="fill: #5778db"/>
   </g>
   <g id="patch_57">
    <path d="M 334.68486 1010.68105 
C 347.485596 1000.241025 357.443651 986.734248 363.631501 971.418783 
C 369.819351 956.103317 372.038722 939.469909 370.082894 923.067845 
C 368.127067 906.66578 362.058711 891.020624 352.443052 877.589612 
C 342.827393 864.1586 329.972541 853.372097 315.075835 846.234791 
L 272.69996 934.680054 
z
" style="fill: #57b5db"/>
   </g>
   <g id="patch_58">
    <path d="M 315.075835 846.234791 
C 299.237534 838.646347 281.647879 835.449764 264.152355 836.980424 
C 246.656831 838.511083 229.889482 844.713513 215.609518 854.936962 
L 272.69996 934.680054 
z
" style="fill: #db5f57"/>
   </g>
   <g id="patch_59">
    <path d="M 215.609518 854.936962 
C 214.774434 855.534824 213.948792 856.145766 213.132898 856.769564 
C 212.317005 857.393362 211.51096 858.029937 210.715063 858.679055 
L 272.69996 934.680054 
z
" style="fill: #7357db"/>
   </g>
   <g id="patch_60">
    <path d="M 210.715063 858.679055 
C 208.32698 860.626728 206.032022 862.685876 203.837829 864.849644 
C 201.643636 867.013412 199.552646 869.279396 197.571819 871.640052 
L 272.69996 934.680054 
z
" style="fill: #57dbc5"/>
   </g>
   <g id="patch_61">
    <path d="M 272.69996 983.716467 
C 285.704569 983.716467 298.178293 978.549681 307.37394 969.354034 
C 316.569588 960.158387 321.736373 947.684662 321.736373 934.680054 
C 321.736373 921.675445 316.569588 909.20172 307.37394 900.006073 
C 298.178293 890.810426 285.704569 885.64364 272.69996 885.64364 
C 259.695351 885.64364 247.221627 890.810426 238.02598 900.006073 
C 228.830333 909.20172 223.663547 921.675445 223.663547 934.680054 
C 223.663547 947.684662 228.830333 960.158387 238.02598 969.354034 
C 247.221627 978.549681 259.695351 983.716467 272.69996 983.716467 
z
" clip-path="url(#pfbfa19d097)" style="fill: #ffffff"/>
   </g>
   <g id="matplotlib.axis_13"/>
   <g id="matplotlib.axis_14"/>
   <g id="text_7">
    <!-- MEDICINE-AESTHETICS -->
    <g transform="translate(203.96625 820.8) scale(0.12 -0.12)">
     <defs>
      <path id="DejaVuSans-48" d="M 628 4666 
L 1259 4666 
L 1259 2753 
L 3553 2753 
L 3553 4666 
L 4184 4666 
L 4184 0 
L 3553 0 
L 3553 2222 
L 1259 2222 
L 1259 0 
L 628 0 
L 628 4666 
z
" transform="scale(0.015625)"/>
     </defs>
     <use xlink:href="#DejaVuSans-4d"/>
     <use xlink:href="#DejaVuSans-45" x="86.279297"/>
     <use xlink:href="#DejaVuSans-44" x="149.462891"/>
     <use xlink:href="#DejaVuSans-49" x="226.464844"/>
     <use xlink:href="#DejaVuSans-43" x="255.957031"/>
     <use xlink:href="#DejaVuSans-49" x="325.78125"/>
     <use xlink:href="#DejaVuSans-4e" x="355.273438"/>
     <use xlink:href="#DejaVuSans-45" x="430.078125"/>
     <use xlink:href="#DejaVuSans-2d" x="493.261719"/>
     <use xlink:href="#DejaVuSans-41" x="527.095703"/>
     <use xlink:href="#DejaVuSans-45" x="595.503906"/>
     <use xlink:href="#DejaVuSans-53" x="658.6875"/>
     <use xlink:href="#DejaVuSans-54" x="722.164062"/>
     <use xlink:href="#DejaVuSans-48" x="783.248047"/>
     <use xlink:href="#DejaVuSans-45" x="858.443359"/>
     <use xlink:href="#DejaVuSans-54" x="921.626953"/>
     <use xlink:href="#DejaVuSans-49" x="982.710938"/>
     <use xlink:href="#DejaVuSans-43" x="1012.203125"/>
     <use xlink:href="#DejaVuSans-53" x="1082.027344"/>
    </g>
   </g>
  </g>
  <g id="axes_8">
   <g id="patch_62">
    <path d="M 732.171614 871.639989 
C 717.505253 889.118676 709.388523 911.179303 709.229233 933.995553 
C 709.069943 956.811803 716.877867 978.983607 731.298757 996.665365 
C 745.719647 1014.347124 765.868596 1026.453834 788.25086 1030.885641 
C 810.633123 1035.317449 833.875262 1031.802406 853.946033 1020.950181 
L 807.300045 934.680228 
z
" style="fill: #dbd957"/>
   </g>
   <g id="patch_63">
    <path d="M 853.946033 1020.950181 
C 867.559667 1013.589318 879.239592 1003.10952 888.027665 990.370482 
C 896.815739 977.631444 902.4649 962.991301 904.511728 947.651034 
L 807.300045 934.680228 
z
" style="fill: #5778db"/>
   </g>
   <g id="patch_64">
    <path d="M 904.511728 947.651034 
C 906.696382 931.277813 904.709458 914.614975 898.736026 899.214547 
C 892.762593 883.81412 882.994056 870.169571 870.340285 859.551796 
L 807.300045 934.680228 
z
" style="fill: #57b5db"/>
   </g>
   <g id="patch_65">
    <path d="M 870.340285 859.551796 
C 868.766669 858.231376 867.151956 856.960722 865.498536 855.741716 
C 863.845116 854.522709 862.153804 853.355952 860.427105 852.24317 
L 807.300045 934.680228 
z
" style="fill: #db57c9"/>
   </g>
   <g id="patch_66">
    <path d="M 860.427105 852.24317 
C 856.972854 850.017057 853.382098 848.010251 849.676079 846.234625 
C 845.97006 844.458998 842.156099 842.918057 838.256758 841.620919 
L 807.300045 934.680228 
z
" style="fill: #57dbc5"/>
   </g>
   <g id="patch_67">
    <path d="M 838.256758 841.620919 
C 821.592198 836.077358 803.740536 835.110546 786.574746 838.821921 
C 769.408957 842.533296 753.551134 850.788356 740.665061 862.720991 
L 807.300045 934.680228 
z
" style="fill: #db5f57"/>
   </g>
   <g id="patch_68">
    <path d="M 740.665061 862.720991 
C 739.91149 863.418805 739.168927 864.128414 738.437647 864.849554 
C 737.706367 865.570694 736.98646 866.303277 736.278192 867.047031 
L 807.300045 934.680228 
z
" style="fill: #57db87"/>
   </g>
   <g id="patch_69">
    <path d="M 736.278192 867.047031 
C 735.569924 867.790786 734.873383 868.54562 734.188827 869.311254 
C 733.50427 870.076889 732.831783 870.85323 732.171614 871.639989 
L 807.300045 934.680228 
z
" style="fill: #63db57"/>
   </g>
   <g id="patch_70">
    <path d="M 807.300045 983.716829 
C 820.304704 983.716829 832.778476 978.550024 841.974159 969.354341 
C 851.169841 960.158659 856.336647 947.684887 856.336647 934.680228 
C 856.336647 921.675569 851.169841 909.201797 841.974159 900.006115 
C 832.778476 890.810433 820.304704 885.643627 807.300045 885.643627 
C 794.295387 885.643627 781.821615 890.810433 772.625932 900.006115 
C 763.43025 909.201797 758.263444 921.675569 758.263444 934.680228 
C 758.263444 947.684887 763.43025 960.158659 772.625932 969.354341 
C 781.821615 978.550024 794.295387 983.716829 807.300045 983.716829 
z
" clip-path="url(#pf8bd7f176e)" style="fill: #ffffff"/>
   </g>
   <g id="matplotlib.axis_15"/>
   <g id="matplotlib.axis_16"/>
   <g id="text_8">
    <!-- CELEBRITIES -->
    <g transform="translate(769.094062 820.8) scale(0.12 -0.12)">
     <use xlink:href="#DejaVuSans-43"/>
     <use xlink:href="#DejaVuSans-45" x="69.824219"/>
     <use xlink:href="#DejaVuSans-4c" x="133.007812"/>
     <use xlink:href="#DejaVuSans-45" x="188.720703"/>
     <use xlink:href="#DejaVuSans-42" x="251.904297"/>
     <use xlink:href="#DejaVuSans-52" x="320.507812"/>
     <use xlink:href="#DejaVuSans-49" x="389.990234"/>
     <use xlink:href="#DejaVuSans-54" x="419.482422"/>
     <use xlink:href="#DejaVuSans-49" x="480.566406"/>
     <use xlink:href="#DejaVuSans-45" x="510.058594"/>
     <use xlink:href="#DejaVuSans-53" x="573.242188"/>
    </g>
   </g>
  </g>
  <g id="axes_9">
   <g id="patch_71">
    <path d="M 197.571962 1114.280066 
C 184.261301 1130.143095 176.310695 1149.821536 174.866198 1170.478806 
C 173.421701 1191.136076 178.556223 1211.729518 189.52964 1229.290654 
L 272.700047 1177.320014 
z
" style="fill: #dbd957"/>
   </g>
   <g id="patch_72">
    <path d="M 189.52964 1229.290654 
C 197.455007 1241.973893 208.177595 1252.677782 220.874647 1260.581001 
C 233.571699 1268.48422 247.909939 1273.379322 262.789177 1274.8907 
C 277.668415 1276.402078 292.698097 1274.490061 306.724978 1269.30136 
C 320.751859 1264.11266 333.407756 1255.783471 343.721569 1244.952901 
L 272.700047 1177.320014 
z
" style="fill: #db5f57"/>
   </g>
   <g id="patch_73">
    <path d="M 343.721569 1244.952901 
C 358.728328 1229.194253 368.071652 1208.88041 370.270732 1187.230888 
C 372.469811 1165.581366 367.401989 1143.803692 355.870458 1125.349381 
L 272.700047 1177.320014 
z
" style="fill: #57b5db"/>
   </g>
   <g id="patch_74">
    <path d="M 355.870458 1125.349381 
C 354.237451 1122.736022 352.482176 1120.201083 350.610477 1117.753002 
C 348.738778 1115.304921 346.752734 1112.946417 344.658957 1110.685343 
L 272.700047 1177.320014 
z
" style="fill: #63db57"/>
   </g>
   <g id="patch_75">
    <path d="M 344.658957 1110.685343 
C 334.850604 1100.093284 322.823494 1091.796336 309.438752 1086.388548 
C 296.054009 1080.980759 281.638887 1078.59435 267.225486 1079.400183 
L 272.700047 1177.320014 
z
" style="fill: #5778db"/>
   </g>
   <g id="patch_76">
    <path d="M 267.225486 1079.400183 
C 260.040363 1079.801893 252.921233 1080.993227 245.996781 1082.952648 
C 239.07233 1084.91207 232.384533 1087.627702 226.054279 1091.050457 
L 272.700047 1177.320014 
z
" style="fill: #57dbc5"/>
   </g>
   <g id="patch_77">
    <path d="M 226.054279 1091.050457 
C 225.150848 1091.53894 224.255146 1092.041585 223.367504 1092.558205 
C 222.479862 1093.074825 221.60039 1093.605356 220.729414 1094.149602 
L 272.700047 1177.320014 
z
" style="fill: #db57c9"/>
   </g>
   <g id="patch_78">
    <path d="M 220.729414 1094.149602 
C 218.116055 1095.78261 215.581116 1097.537885 213.133034 1099.409584 
C 210.684953 1101.281283 208.32645 1103.267327 206.065376 1105.361104 
L 272.700047 1177.320014 
z
" style="fill: #7357db"/>
   </g>
   <g id="patch_79">
    <path d="M 206.065376 1105.361104 
C 205.311809 1106.058915 204.569249 1106.76852 203.837972 1107.489657 
C 203.106695 1108.210794 202.386792 1108.943373 201.678527 1109.687124 
L 272.700047 1177.320014 
z
" style="fill: #db9c57"/>
   </g>
   <g id="patch_80">
    <path d="M 201.678527 1109.687124 
C 200.970263 1110.430875 200.273725 1111.185705 199.589171 1111.951337 
C 198.904618 1112.716968 198.232134 1113.493304 197.571968 1114.28006 
L 272.700047 1177.320014 
z
" style="fill: #b057db"/>
   </g>
   <g id="patch_81">
    <path d="M 272.700047 1226.356388 
C 285.704645 1226.356388 298.17836 1221.189607 307.373999 1211.993967 
C 316.569639 1202.798327 321.736421 1190.324612 321.736421 1177.320014 
C 321.736421 1164.315415 316.569639 1151.841701 307.373999 1142.646061 
C 298.17836 1133.450421 285.704645 1128.28364 272.700047 1128.28364 
C 259.695448 1128.28364 247.221734 1133.450421 238.026094 1142.646061 
C 228.830454 1151.841701 223.663672 1164.315415 223.663672 1177.320014 
C 223.663672 1190.324612 228.830454 1202.798327 238.026094 1211.993967 
C 247.221734 1221.189607 259.695448 1226.356388 272.700047 1226.356388 
z
" clip-path="url(#pc0c0ad9199)" style="fill: #ffffff"/>
   </g>
   <g id="matplotlib.axis_17"/>
   <g id="matplotlib.axis_18"/>
   <g id="text_9">
    <!-- SMOKE -->
    <g transform="translate(251.265 1063.44) scale(0.12 -0.12)">
     <use xlink:href="#DejaVuSans-53"/>
     <use xlink:href="#DejaVuSans-4d" x="63.476562"/>
     <use xlink:href="#DejaVuSans-4f" x="149.755859"/>
     <use xlink:href="#DejaVuSans-4b" x="228.466797"/>
     <use xlink:href="#DejaVuSans-45" x="294.042969"/>
    </g>
   </g>
  </g>
  <g id="axes_10">
   <g id="patch_82">
    <path d="M 732.171828 1114.280016 
C 715.458988 1134.197604 707.334235 1159.966025 709.600334 1185.86765 
C 711.866433 1211.769275 724.342391 1235.735368 744.259979 1252.448208 
C 764.177567 1269.161049 789.945988 1277.285801 815.847613 1275.019703 
C 841.749238 1272.753604 865.715331 1260.277646 882.428172 1240.360058 
L 807.3 1177.320037 
z
" style="fill: #dbd957"/>
   </g>
   <g id="patch_83">
    <path d="M 882.428172 1240.360058 
C 893.717039 1226.906509 901.187567 1210.664417 904.055956 1193.337881 
C 906.924346 1176.011345 905.086645 1158.228286 898.735664 1141.854479 
L 807.3 1177.320037 
z
" style="fill: #57b5db"/>
   </g>
   <g id="patch_84">
    <path d="M 898.735664 1141.854479 
C 895.387556 1133.222543 890.833915 1125.108049 885.210515 1117.752948 
C 879.587115 1110.397846 872.95041 1103.875975 865.498286 1098.381796 
L 807.3 1177.320037 
z
" style="fill: #5778db"/>
   </g>
   <g id="patch_85">
    <path d="M 865.498286 1098.381796 
C 853.041617 1089.197948 838.586193 1083.091738 823.31784 1080.56408 
C 808.049487 1078.036421 792.397448 1079.158374 777.645713 1083.837901 
L 807.3 1177.320037 
z
" style="fill: #db5f57"/>
   </g>
   <g id="patch_86">
    <path d="M 777.645713 1083.837901 
C 770.786217 1086.013862 764.187013 1088.938227 757.967388 1092.558136 
C 751.747762 1096.178045 745.945419 1100.471554 740.665241 1105.361053 
L 807.3 1177.320037 
z
" style="fill: #57dbc5"/>
   </g>
   <g id="patch_87">
    <path d="M 740.665241 1105.361053 
C 739.911673 1106.058865 739.169112 1106.768471 738.437835 1107.489609 
C 737.706557 1108.210747 736.986653 1108.943327 736.278388 1109.687079 
L 807.3 1177.320037 
z
" style="fill: #63db57"/>
   </g>
   <g id="patch_88">
    <path d="M 736.278388 1109.687079 
C 735.570122 1110.430831 734.873584 1111.185663 734.18903 1111.951295 
C 733.504476 1112.716927 732.831991 1113.493265 732.171824 1114.280021 
L 807.3 1177.320037 
z
" style="fill: #57db87"/>
   </g>
   <g id="patch_89">
    <path d="M 807.3 1226.356468 
C 820.304614 1226.356468 832.778343 1221.189681 841.973993 1211.99403 
C 851.169644 1202.79838 856.336431 1190.324651 856.336431 1177.320037 
C 856.336431 1164.315423 851.169644 1151.841694 841.973993 1142.646044 
C 832.778343 1133.450393 820.304614 1128.283606 807.3 1128.283606 
C 794.295386 1128.283606 781.821657 1133.450393 772.626007 1142.646044 
C 763.430356 1151.841694 758.263569 1164.315423 758.263569 1177.320037 
C 758.263569 1190.324651 763.430356 1202.79838 772.626007 1211.99403 
C 781.821657 1221.189681 794.295386 1226.356468 807.3 1226.356468 
z
" clip-path="url(#pf7f542b141)" style="fill: #ffffff"/>
   </g>
   <g id="matplotlib.axis_19"/>
   <g id="matplotlib.axis_20"/>
   <g id="text_10">
    <!-- ENTERTAINMENT -->
    <g transform="translate(757.145625 1063.44) scale(0.12 -0.12)">
     <use xlink:href="#DejaVuSans-45"/>
     <use xlink:href="#DejaVuSans-4e" x="63.183594"/>
     <use xlink:href="#DejaVuSans-54" x="137.988281"/>
     <use xlink:href="#DejaVuSans-45" x="199.072266"/>
     <use xlink:href="#DejaVuSans-52" x="262.255859"/>
     <use xlink:href="#DejaVuSans-54" x="324.488281"/>
     <use xlink:href="#DejaVuSans-41" x="377.822266"/>
     <use xlink:href="#DejaVuSans-49" x="446.230469"/>
     <use xlink:href="#DejaVuSans-4e" x="475.722656"/>
     <use xlink:href="#DejaVuSans-4d" x="550.527344"/>
     <use xlink:href="#DejaVuSans-45" x="636.806641"/>
     <use xlink:href="#DejaVuSans-4e" x="699.990234"/>
     <use xlink:href="#DejaVuSans-54" x="774.794922"/>
    </g>
   </g>
  </g>
  <g id="legend_1">
   <g id="patch_90">
    <path d="M 345.099219 1435 
L 734.900781 1435 
Q 736.900781 1435 736.900781 1433 
L 736.900781 1375.2875 
Q 736.900781 1373.2875 734.900781 1373.2875 
L 345.099219 1373.2875 
Q 343.099219 1373.2875 343.099219 1375.2875 
L 343.099219 1433 
Q 343.099219 1435 345.099219 1435 
z
" style="fill: #ffffff; opacity: 0.8; stroke: #cccccc; stroke-linejoin: miter"/>
   </g>
   <g id="text_11">
    <!-- Categories -->
    <g transform="translate(513.048437 1384.885937) scale(0.1 -0.1)">
     <defs>
      <path id="DejaVuSans-61" d="M 2194 1759 
Q 1497 1759 1228 1600 
Q 959 1441 959 1056 
Q 959 750 1161 570 
Q 1363 391 1709 391 
Q 2188 391 2477 730 
Q 2766 1069 2766 1631 
L 2766 1759 
L 2194 1759 
z
M 3341 1997 
L 3341 0 
L 2766 0 
L 2766 531 
Q 2569 213 2275 61 
Q 1981 -91 1556 -91 
Q 1019 -91 701 211 
Q 384 513 384 1019 
Q 384 1609 779 1909 
Q 1175 2209 1959 2209 
L 2766 2209 
L 2766 2266 
Q 2766 2663 2505 2880 
Q 2244 3097 1772 3097 
Q 1472 3097 1187 3025 
Q 903 2953 641 2809 
L 641 3341 
Q 956 3463 1253 3523 
Q 1550 3584 1831 3584 
Q 2591 3584 2966 3190 
Q 3341 2797 3341 1997 
z
" transform="scale(0.015625)"/>
      <path id="DejaVuSans-74" d="M 1172 4494 
L 1172 3500 
L 2356 3500 
L 2356 3053 
L 1172 3053 
L 1172 1153 
Q 1172 725 1289 603 
Q 1406 481 1766 481 
L 2356 481 
L 2356 0 
L 1766 0 
Q 1100 0 847 248 
Q 594 497 594 1153 
L 594 3053 
L 172 3053 
L 172 3500 
L 594 3500 
L 594 4494 
L 1172 4494 
z
" transform="scale(0.015625)"/>
      <path id="DejaVuSans-65" d="M 3597 1894 
L 3597 1613 
L 953 1613 
Q 991 1019 1311 708 
Q 1631 397 2203 397 
Q 2534 397 2845 478 
Q 3156 559 3463 722 
L 3463 178 
Q 3153 47 2828 -22 
Q 2503 -91 2169 -91 
Q 1331 -91 842 396 
Q 353 884 353 1716 
Q 353 2575 817 3079 
Q 1281 3584 2069 3584 
Q 2775 3584 3186 3129 
Q 3597 2675 3597 1894 
z
M 3022 2063 
Q 3016 2534 2758 2815 
Q 2500 3097 2075 3097 
Q 1594 3097 1305 2825 
Q 1016 2553 972 2059 
L 3022 2063 
z
" transform="scale(0.015625)"/>
      <path id="DejaVuSans-67" d="M 2906 1791 
Q 2906 2416 2648 2759 
Q 2391 3103 1925 3103 
Q 1463 3103 1205 2759 
Q 947 2416 947 1791 
Q 947 1169 1205 825 
Q 1463 481 1925 481 
Q 2391 481 2648 825 
Q 2906 1169 2906 1791 
z
M 3481 434 
Q 3481 -459 3084 -895 
Q 2688 -1331 1869 -1331 
Q 1566 -1331 1297 -1286 
Q 1028 -1241 775 -1147 
L 775 -588 
Q 1028 -725 1275 -790 
Q 1522 -856 1778 -856 
Q 2344 -856 2625 -561 
Q 2906 -266 2906 331 
L 2906 616 
Q 2728 306 2450 153 
Q 2172 0 1784 0 
Q 1141 0 747 490 
Q 353 981 353 1791 
Q 353 2603 747 3093 
Q 1141 3584 1784 3584 
Q 2172 3584 2450 3431 
Q 2728 3278 2906 2969 
L 2906 3500 
L 3481 3500 
L 3481 434 
z
" transform="scale(0.015625)"/>
      <path id="DejaVuSans-6f" d="M 1959 3097 
Q 1497 3097 1228 2736 
Q 959 2375 959 1747 
Q 959 1119 1226 758 
Q 1494 397 1959 397 
Q 2419 397 2687 759 
Q 2956 1122 2956 1747 
Q 2956 2369 2687 2733 
Q 2419 3097 1959 3097 
z
M 1959 3584 
Q 2709 3584 3137 3096 
Q 3566 2609 3566 1747 
Q 3566 888 3137 398 
Q 2709 -91 1959 -91 
Q 1206 -91 779 398 
Q 353 888 353 1747 
Q 353 2609 779 3096 
Q 1206 3584 1959 3584 
z
" transform="scale(0.015625)"/>
      <path id="DejaVuSans-72" d="M 2631 2963 
Q 2534 3019 2420 3045 
Q 2306 3072 2169 3072 
Q 1681 3072 1420 2755 
Q 1159 2438 1159 1844 
L 1159 0 
L 581 0 
L 581 3500 
L 1159 3500 
L 1159 2956 
Q 1341 3275 1631 3429 
Q 1922 3584 2338 3584 
Q 2397 3584 2469 3576 
Q 2541 3569 2628 3553 
L 2631 2963 
z
" transform="scale(0.015625)"/>
      <path id="DejaVuSans-69" d="M 603 3500 
L 1178 3500 
L 1178 0 
L 603 0 
L 603 3500 
z
M 603 4863 
L 1178 4863 
L 1178 4134 
L 603 4134 
L 603 4863 
z
" transform="scale(0.015625)"/>
      <path id="DejaVuSans-73" d="M 2834 3397 
L 2834 2853 
Q 2591 2978 2328 3040 
Q 2066 3103 1784 3103 
Q 1356 3103 1142 2972 
Q 928 2841 928 2578 
Q 928 2378 1081 2264 
Q 1234 2150 1697 2047 
L 1894 2003 
Q 2506 1872 2764 1633 
Q 3022 1394 3022 966 
Q 3022 478 2636 193 
Q 2250 -91 1575 -91 
Q 1294 -91 989 -36 
Q 684 19 347 128 
L 347 722 
Q 666 556 975 473 
Q 1284 391 1588 391 
Q 1994 391 2212 530 
Q 2431 669 2431 922 
Q 2431 1156 2273 1281 
Q 2116 1406 1581 1522 
L 1381 1569 
Q 847 1681 609 1914 
Q 372 2147 372 2553 
Q 372 3047 722 3315 
Q 1072 3584 1716 3584 
Q 2034 3584 2315 3537 
Q 2597 3491 2834 3397 
z
" transform="scale(0.015625)"/>
     </defs>
     <use xlink:href="#DejaVuSans-43"/>
     <use xlink:href="#DejaVuSans-61" x="69.824219"/>
     <use xlink:href="#DejaVuSans-74" x="131.103516"/>
     <use xlink:href="#DejaVuSans-65" x="170.3125"/>
     <use xlink:href="#DejaVuSans-67" x="231.835938"/>
     <use xlink:href="#DejaVuSans-6f" x="295.3125"/>
     <use xlink:href="#DejaVuSans-72" x="356.494141"/>
     <use xlink:href="#DejaVuSans-69" x="397.607422"/>
     <use xlink:href="#DejaVuSans-65" x="425.390625"/>
     <use xlink:href="#DejaVuSans-73" x="486.914062"/>
    </g>
   </g>
   <g id="patch_91">
    <path d="M 347.099219 1399.564063 
L 367.099219 1399.564063 
L 367.099219 1392.564063 
L 347.099219 1392.564063 
z
" style="fill: #db5f57; stroke: #db5f57; stroke-linejoin: miter"/>
   </g>
   <g id="text_12">
    <!-- NOUN -->
    <g transform="translate(375.099219 1399.564063) scale(0.1 -0.1)">
     <use xlink:href="#DejaVuSans-4e"/>
     <use xlink:href="#DejaVuSans-4f" x="74.804688"/>
     <use xlink:href="#DejaVuSans-55" x="153.515625"/>
     <use xlink:href="#DejaVuSans-4e" x="226.708984"/>
    </g>
   </g>
   <g id="patch_92">
    <path d="M 347.099219 1414.242188 
L 367.099219 1414.242188 
L 367.099219 1407.242188 
L 347.099219 1407.242188 
z
" style="fill: #db9c57; stroke: #db9c57; stroke-linejoin: miter"/>
   </g>
   <g id="text_13">
    <!-- AUX -->
    <g transform="translate(375.099219 1414.242188) scale(0.1 -0.1)">
     <defs>
      <path id="DejaVuSans-58" d="M 403 4666 
L 1081 4666 
L 2241 2931 
L 3406 4666 
L 4084 4666 
L 2584 2425 
L 4184 0 
L 3506 0 
L 2194 1984 
L 872 0 
L 191 0 
L 1856 2491 
L 403 4666 
z
" transform="scale(0.015625)"/>
     </defs>
     <use xlink:href="#DejaVuSans-41"/>
     <use xlink:href="#DejaVuSans-55" x="68.408203"/>
     <use xlink:href="#DejaVuSans-58" x="141.601562"/>
    </g>
   </g>
   <g id="patch_93">
    <path d="M 347.099219 1428.920312 
L 367.099219 1428.920312 
L 367.099219 1421.920312 
L 347.099219 1421.920312 
z
" style="fill: #dbd957; stroke: #dbd957; stroke-linejoin: miter"/>
   </g>
   <g id="text_14">
    <!-- UNKNOW -->
    <g transform="translate(375.099219 1428.920312) scale(0.1 -0.1)">
     <defs>
      <path id="DejaVuSans-57" d="M 213 4666 
L 850 4666 
L 1831 722 
L 2809 4666 
L 3519 4666 
L 4500 722 
L 5478 4666 
L 6119 4666 
L 4947 0 
L 4153 0 
L 3169 4050 
L 2175 0 
L 1381 0 
L 213 4666 
z
" transform="scale(0.015625)"/>
     </defs>
     <use xlink:href="#DejaVuSans-55"/>
     <use xlink:href="#DejaVuSans-4e" x="73.193359"/>
     <use xlink:href="#DejaVuSans-4b" x="147.998047"/>
     <use xlink:href="#DejaVuSans-4e" x="213.574219"/>
     <use xlink:href="#DejaVuSans-4f" x="288.378906"/>
     <use xlink:href="#DejaVuSans-57" x="367.089844"/>
    </g>
   </g>
   <g id="patch_94">
    <path d="M 441.697656 1399.564063 
L 461.697656 1399.564063 
L 461.697656 1392.564063 
L 441.697656 1392.564063 
z
" style="fill: #a0db57; stroke: #a0db57; stroke-linejoin: miter"/>
   </g>
   <g id="text_15">
    <!-- NUM -->
    <g transform="translate(469.697656 1399.564063) scale(0.1 -0.1)">
     <use xlink:href="#DejaVuSans-4e"/>
     <use xlink:href="#DejaVuSans-55" x="74.804688"/>
     <use xlink:href="#DejaVuSans-4d" x="147.998047"/>
    </g>
   </g>
   <g id="patch_95">
    <path d="M 441.697656 1414.242188 
L 461.697656 1414.242188 
L 461.697656 1407.242188 
L 441.697656 1407.242188 
z
" style="fill: #63db57; stroke: #63db57; stroke-linejoin: miter"/>
   </g>
   <g id="text_16">
    <!-- INTJ -->
    <g transform="translate(469.697656 1414.242188) scale(0.1 -0.1)">
     <defs>
      <path id="DejaVuSans-4a" d="M 628 4666 
L 1259 4666 
L 1259 325 
Q 1259 -519 939 -900 
Q 619 -1281 -91 -1281 
L -331 -1281 
L -331 -750 
L -134 -750 
Q 284 -750 456 -515 
Q 628 -281 628 325 
L 628 4666 
z
" transform="scale(0.015625)"/>
     </defs>
     <use xlink:href="#DejaVuSans-49"/>
     <use xlink:href="#DejaVuSans-4e" x="29.492188"/>
     <use xlink:href="#DejaVuSans-54" x="104.296875"/>
     <use xlink:href="#DejaVuSans-4a" x="165.380859"/>
    </g>
   </g>
   <g id="patch_96">
    <path d="M 441.697656 1428.920312 
L 461.697656 1428.920312 
L 461.697656 1421.920312 
L 441.697656 1421.920312 
z
" style="fill: #57db87; stroke: #57db87; stroke-linejoin: miter"/>
   </g>
   <g id="text_17">
    <!-- CCONJ -->
    <g transform="translate(469.697656 1428.920312) scale(0.1 -0.1)">
     <use xlink:href="#DejaVuSans-43"/>
     <use xlink:href="#DejaVuSans-43" x="69.824219"/>
     <use xlink:href="#DejaVuSans-4f" x="139.648438"/>
     <use xlink:href="#DejaVuSans-4e" x="218.359375"/>
     <use xlink:href="#DejaVuSans-4a" x="293.164062"/>
    </g>
   </g>
   <g id="patch_97">
    <path d="M 521.966406 1399.564063 
L 541.966406 1399.564063 
L 541.966406 1392.564063 
L 521.966406 1392.564063 
z
" style="fill: #57dbc5; stroke: #57dbc5; stroke-linejoin: miter"/>
   </g>
   <g id="text_18">
    <!-- ADV -->
    <g transform="translate(549.966406 1399.564063) scale(0.1 -0.1)">
     <defs>
      <path id="DejaVuSans-56" d="M 1831 0 
L 50 4666 
L 709 4666 
L 2188 738 
L 3669 4666 
L 4325 4666 
L 2547 0 
L 1831 0 
z
" transform="scale(0.015625)"/>
     </defs>
     <use xlink:href="#DejaVuSans-41"/>
     <use xlink:href="#DejaVuSans-44" x="68.408203"/>
     <use xlink:href="#DejaVuSans-56" x="143.660156"/>
    </g>
   </g>
   <g id="patch_98">
    <path d="M 521.966406 1414.242188 
L 541.966406 1414.242188 
L 541.966406 1407.242188 
L 521.966406 1407.242188 
z
" style="fill: #57b5db; stroke: #57b5db; stroke-linejoin: miter"/>
   </g>
   <g id="text_19">
    <!-- VERB -->
    <g transform="translate(549.966406 1414.242188) scale(0.1 -0.1)">
     <use xlink:href="#DejaVuSans-56"/>
     <use xlink:href="#DejaVuSans-45" x="68.408203"/>
     <use xlink:href="#DejaVuSans-52" x="131.591797"/>
     <use xlink:href="#DejaVuSans-42" x="201.074219"/>
    </g>
   </g>
   <g id="patch_99">
    <path d="M 521.966406 1428.920312 
L 541.966406 1428.920312 
L 541.966406 1421.920312 
L 521.966406 1421.920312 
z
" style="fill: #5778db; stroke: #5778db; stroke-linejoin: miter"/>
   </g>
   <g id="text_20">
    <!-- ADJ -->
    <g transform="translate(549.966406 1428.920312) scale(0.1 -0.1)">
     <use xlink:href="#DejaVuSans-41"/>
     <use xlink:href="#DejaVuSans-44" x="68.408203"/>
     <use xlink:href="#DejaVuSans-4a" x="145.410156"/>
    </g>
   </g>
   <g id="patch_100">
    <path d="M 596.935156 1399.564063 
L 616.935156 1399.564063 
L 616.935156 1392.564063 
L 596.935156 1392.564063 
z
" style="fill: #7357db; stroke: #7357db; stroke-linejoin: miter"/>
   </g>
   <g id="text_21">
    <!-- ADP -->
    <g transform="translate(624.935156 1399.564063) scale(0.1 -0.1)">
     <use xlink:href="#DejaVuSans-41"/>
     <use xlink:href="#DejaVuSans-44" x="68.408203"/>
     <use xlink:href="#DejaVuSans-50" x="145.410156"/>
    </g>
   </g>
   <g id="patch_101">
    <path d="M 596.935156 1414.242188 
L 616.935156 1414.242188 
L 616.935156 1407.242188 
L 596.935156 1407.242188 
z
" style="fill: #b057db; stroke: #b057db; stroke-linejoin: miter"/>
   </g>
   <g id="text_22">
    <!-- SCONJ -->
    <g transform="translate(624.935156 1414.242188) scale(0.1 -0.1)">
     <use xlink:href="#DejaVuSans-53"/>
     <use xlink:href="#DejaVuSans-43" x="63.476562"/>
     <use xlink:href="#DejaVuSans-4f" x="133.300781"/>
     <use xlink:href="#DejaVuSans-4e" x="212.011719"/>
     <use xlink:href="#DejaVuSans-4a" x="286.816406"/>
    </g>
   </g>
   <g id="patch_102">
    <path d="M 676.569531 1399.564063 
L 696.569531 1399.564063 
L 696.569531 1392.564063 
L 676.569531 1392.564063 
z
" style="fill: #db57c9; stroke: #db57c9; stroke-linejoin: miter"/>
   </g>
   <g id="text_23">
    <!-- PRON -->
    <g transform="translate(704.569531 1399.564063) scale(0.1 -0.1)">
     <use xlink:href="#DejaVuSans-50"/>
     <use xlink:href="#DejaVuSans-52" x="60.302734"/>
     <use xlink:href="#DejaVuSans-4f" x="129.785156"/>
     <use xlink:href="#DejaVuSans-4e" x="208.496094"/>
    </g>
   </g>
   <g id="patch_103">
    <path d="M 676.569531 1414.242188 
L 696.569531 1414.242188 
L 696.569531 1407.242188 
L 676.569531 1407.242188 
z
" style="fill: #db578c; stroke: #db578c; stroke-linejoin: miter"/>
   </g>
   <g id="text_24">
    <!-- DET -->
    <g transform="translate(704.569531 1414.242188) scale(0.1 -0.1)">
     <use xlink:href="#DejaVuSans-44"/>
     <use xlink:href="#DejaVuSans-45" x="77.001953"/>
     <use xlink:href="#DejaVuSans-54" x="140.185547"/>
    </g>
   </g>
  </g>
 </g>
 <defs>
  <clipPath id="pb41dd28283">
   <rect x="10.8" y="98.88" width="523.8" height="215.76"/>
  </clipPath>
  <clipPath id="p2f1bc69ef4">
   <rect x="545.4" y="98.88" width="523.8" height="215.76"/>
  </clipPath>
  <clipPath id="p01bd22c311">
   <rect x="10.8" y="341.52" width="523.8" height="215.76"/>
  </clipPath>
  <clipPath id="p5c06fe898b">
   <rect x="545.4" y="341.52" width="523.8" height="215.76"/>
  </clipPath>
  <clipPath id="pc2439d2371">
   <rect x="10.8" y="584.16" width="523.8" height="215.76"/>
  </clipPath>
  <clipPath id="p09b443a441">
   <rect x="545.4" y="584.16" width="523.8" height="215.76"/>
  </clipPath>
  <clipPath id="pfbfa19d097">
   <rect x="10.8" y="826.8" width="523.8" height="215.76"/>
  </clipPath>
  <clipPath id="pf8bd7f176e">
   <rect x="545.4" y="826.8" width="523.8" height="215.76"/>
  </clipPath>
  <clipPath id="pc0c0ad9199">
   <rect x="10.8" y="1069.44" width="523.8" height="215.76"/>
  </clipPath>
  <clipPath id="pf7f542b141">
   <rect x="545.4" y="1069.44" width="523.8" height="215.76"/>
  </clipPath>
 </defs>
</svg>
